<svg width="37" height="30" viewBox="0 0 37 30" fill="none" xmlns="http://www.w3.org/2000/svg">
<path d="M20.3533 21.6667H16.7604C15.7724 21.6667 14.964 20.9167 14.964 20H2.40714V26.6667C2.40714 28.5 4.02391 30 5.99996 30H31.1317C33.1077 30 34.7245 28.5 34.7245 26.6667V20H22.1497C22.1497 20.9167 21.3413 21.6667 20.3533 21.6667ZM32.9281 6.66667H25.7425C25.7425 2.98333 22.5269 0 18.5568 0C14.5868 0 11.3712 2.98333 11.3712 6.66667H4.18559C2.20954 6.66667 0.592773 8.16667 0.592773 10V15C0.592773 16.85 2.19158 18.3333 4.18559 18.3333H14.964V16.6667C14.964 15.75 15.7724 15 16.7604 15H20.3533C21.3413 15 22.1497 15.75 22.1497 16.6667V18.3333H32.9281C34.9041 18.3333 36.5209 16.8333 36.5209 15V10C36.5209 8.16667 34.9041 6.66667 32.9281 6.66667ZM14.964 6.66667C14.964 4.83333 16.5808 3.33333 18.5568 3.33333C20.5329 3.33333 22.1497 4.83333 22.1497 6.66667H14.9461H14.964Z" fill="#701D9F" fill-opacity="0.4"/>
</svg>
