<svg width="49" height="49" viewBox="0 0 49 49" fill="none" xmlns="http://www.w3.org/2000/svg">
<path d="M38.7917 6.12533H30.2575C29.4 3.75699 27.1542 2.04199 24.5 2.04199C21.8458 2.04199 19.6 3.75699 18.7425 6.12533H10.2083C7.9625 6.12533 6.125 7.96282 6.125 10.2087V38.792C6.125 41.0378 7.9625 42.8753 10.2083 42.8753H38.7917C41.0375 42.8753 42.875 41.0378 42.875 38.792V10.2087C42.875 7.96282 41.0375 6.12533 38.7917 6.12533ZM24.5 6.12533C25.6229 6.12533 26.5417 7.04408 26.5417 8.16699C26.5417 9.28991 25.6229 10.2087 24.5 10.2087C23.3771 10.2087 22.4583 9.28991 22.4583 8.16699C22.4583 7.04408 23.3771 6.12533 24.5 6.12533ZM20.4167 34.7087L12.25 26.542L15.1287 23.6632L20.4167 28.9307L33.8713 15.4762L36.75 18.3753L20.4167 34.7087Z" fill="#701D9F"/>
</svg>
