<svg width="48" height="48" viewBox="0 0 48 48" fill="none" xmlns="http://www.w3.org/2000/svg">
<path d="M42.6667 4.8H31.52C30.4 2.016 27.4667 0 24 0C20.5333 0 17.6 2.016 16.48 4.8H5.33333C2.4 4.8 0 6.96 0 9.6V43.2C0 45.84 2.4 48 5.33333 48H42.6667C45.6 48 48 45.84 48 43.2V9.6C48 6.96 45.6 4.8 42.6667 4.8ZM24 4.8C25.4667 4.8 26.6667 5.88 26.6667 7.2C26.6667 8.52 25.4667 9.6 24 9.6C22.5333 9.6 21.3333 8.52 21.3333 7.2C21.3333 5.88 22.5333 4.8 24 4.8ZM29.3333 38.4H10.6667V33.6H29.3333V38.4ZM37.3333 28.8H10.6667V24H37.3333V28.8ZM37.3333 19.2H10.6667V14.4H37.3333V19.2Z" fill="#485EAD" fill-opacity="0.2"/>
</svg>
