<svg width="259" height="245" viewBox="0 0 259 245" fill="none" xmlns="http://www.w3.org/2000/svg">
<path d="M223.017 13.6846H244.637V19.9279H223.017V13.6846Z" fill="#EBEBEB"/>
<path d="M74.2202 87.624H95.8398V93.8673H74.2202V87.624Z" fill="#EBEBEB"/>
<path d="M235.076 5.81357C238.667 5.86937 247.872 6.00885 251.34 6.04791H256.696L256.413 5.79125V12.0346L256.721 11.7556C253.13 11.7556 243.974 11.8002 240.506 11.8449L235.101 11.9063L235.249 12.0346L235.101 5.79125L235.076 5.81357ZM235.076 5.81357L234.935 12.0569V12.1908H235.083C237.782 12.2243 243.199 12.2801 245.892 12.2968L256.702 12.3359H257.01V12.0569V5.81357V5.5625H256.733H251.279C247.836 5.59598 238.674 5.73546 235.113 5.79125L235.076 5.81357Z" fill="#EBEBEB"/>
<path d="M173.903 140.314C177.494 140.37 186.699 140.509 190.167 140.543H195.523L195.24 140.292V146.535L195.547 146.256C191.956 146.256 182.8 146.295 179.332 146.34L173.927 146.401L174.075 146.535L173.927 140.292L173.903 140.314ZM173.903 140.314L173.755 146.557V146.686H173.903C176.602 146.686 182.013 146.775 184.713 146.792L195.523 146.831H195.83V146.552V140.308V140.052H195.553L190.099 140.08C186.656 140.113 177.488 140.253 173.934 140.308L173.903 140.314Z" fill="#EBEBEB"/>
<path d="M185.958 132.433C189.549 132.489 198.754 132.628 202.222 132.662H207.577L207.294 132.411V138.654L207.602 138.375C204.011 138.375 194.855 138.414 191.387 138.459L185.982 138.52L186.13 138.654L185.982 132.411L185.958 132.433ZM185.958 132.433L185.81 138.676V138.805H185.958C188.657 138.833 194.074 138.894 196.767 138.911L207.577 138.95H207.885V138.671V132.428V132.171H207.602H202.148C198.704 132.204 189.542 132.344 185.982 132.4L185.958 132.433Z" fill="#EBEBEB"/>
<path d="M197.967 140.305H219.587V146.548H197.967V140.305Z" fill="#EBEBEB"/>
<path d="M2.32559 5.8125H23.9453V12.0558H2.32559V5.8125Z" fill="#EBEBEB"/>
<path d="M14.3861 198.609H36.0059V204.853H14.3861V198.609Z" fill="#EBEBEB"/>
<path d="M2.32671 190.736C5.9177 190.792 15.1227 190.931 18.5907 190.97H23.9465L23.6636 190.714V196.957L23.971 196.678C20.38 196.678 11.2242 196.723 7.75623 196.767L2.35131 196.829L2.49888 196.957L2.35131 190.714L2.32671 190.736ZM2.32671 190.736L2.17914 196.98V197.113H2.32671C5.0261 197.147 10.4372 197.203 13.1366 197.225L23.9465 197.258H24.2539V196.974L24.2232 190.731V190.479H23.9465H18.4923C15.0489 190.513 5.88081 190.658 2.32671 190.708V190.736Z" fill="#EBEBEB"/>
<path d="M223.019 198.61C226.61 198.665 235.815 198.805 239.283 198.844H244.639L244.356 198.587V204.831L244.663 204.552L233.854 204.591C231.16 204.591 225.737 204.669 223.044 204.702L223.191 204.831L223.044 198.587L223.019 198.61ZM223.019 198.61L222.872 204.853V204.987H223.019C225.719 205.02 231.136 205.076 233.829 205.098L244.639 205.132H244.946V204.847V198.604V198.342H244.67H239.215C235.772 198.375 226.61 198.52 223.05 198.571L223.019 198.61Z" fill="#EBEBEB"/>
<path d="M159.585 47.7809L158.466 55.0341C158.373 55.7597 158.12 56.4608 157.72 57.0947C157.32 57.7287 156.782 58.2823 156.139 58.7221C155.496 59.1619 154.762 59.4787 153.98 59.6532C153.198 59.8278 152.386 59.8564 151.591 59.7375C149.996 59.53 148.556 58.7581 147.586 57.5904C146.616 56.4227 146.195 54.954 146.414 53.5053L148.203 41.9001C148.203 41.7886 148.345 41.8053 148.363 41.6937C148.259 41.5654 148.259 41.5654 148.271 41.4538C148.538 40.0223 149.398 38.7376 150.675 37.8631C151.952 36.9886 153.549 36.5904 155.139 36.7503C156.959 37.002 158.816 36.9234 160.602 36.5191C162.388 36.1148 164.068 35.3927 165.544 34.3949C167.02 33.3971 168.264 32.1433 169.202 30.7062C170.14 29.2691 170.755 27.6773 171.01 26.0231C171.265 24.3689 171.156 22.6852 170.688 21.0696C170.221 19.454 169.405 17.9386 168.287 16.6114C167.17 15.2842 165.773 14.1714 164.178 13.3377C162.582 12.504 160.821 11.9659 158.995 11.7546C156.607 11.4442 154.171 11.7099 151.933 12.5248C149.694 13.3396 147.731 14.675 146.242 16.3966C145.743 16.9777 145.122 17.4633 144.415 17.8255C143.708 18.1877 142.929 18.4193 142.123 18.507C141.317 18.5947 140.5 18.5366 139.719 18.3363C138.938 18.1359 138.208 17.7971 137.572 17.3396C136.948 16.8887 136.429 16.3303 136.044 15.6966C135.659 15.0628 135.416 14.3661 135.329 13.6468C135.242 12.9274 135.313 12.1996 135.537 11.5052C135.762 10.8108 136.136 10.1636 136.637 9.6009C139.303 6.51274 142.773 4.07392 146.734 2.50357C150.696 0.933215 155.026 0.280534 159.334 0.604166C163.643 0.927798 167.795 2.2176 171.418 4.3577C175.041 6.49779 178.022 9.42111 180.092 12.865C182.162 16.3089 183.256 20.1655 183.277 24.0882C183.298 28.0109 182.244 31.8769 180.211 35.3387C178.178 38.8006 175.229 41.7499 171.629 43.9216C168.028 46.0934 163.89 47.4195 159.585 47.7809ZM155.816 72.2131L155.502 74.2217C155.413 74.9486 155.161 75.6514 154.763 76.2872C154.365 76.9231 153.828 77.4787 153.185 77.9203C152.543 78.3619 151.808 78.6802 151.025 78.8558C150.243 79.0315 149.429 79.0607 148.634 78.9419C147.037 78.7372 145.595 77.9659 144.624 76.7975C143.654 75.6291 143.234 74.1589 143.456 72.7097L143.764 70.7011C144.005 69.2587 144.858 67.9593 146.142 67.0812C147.426 66.203 149.038 65.8161 150.632 66.0032C151.425 66.0956 152.19 66.3304 152.881 66.694C153.573 67.0576 154.178 67.5427 154.661 68.1209C155.143 68.6991 155.494 69.3588 155.692 70.0615C155.891 70.7641 155.933 71.4956 155.816 72.2131Z" fill="#EBEBEB"/>
<path d="M238.984 82.507L240.773 88.4267C240.968 89.0117 241.03 89.6266 240.955 90.2339C240.88 90.8413 240.669 91.4284 240.336 91.9597C240.003 92.4909 239.555 92.9552 239.018 93.3242C238.481 93.6933 237.867 93.9595 237.213 94.1065C235.912 94.4302 234.522 94.2725 233.349 93.668C232.175 93.0635 231.314 92.0615 230.953 90.8816L228.082 81.3967C228.082 81.313 228.162 81.2851 228.131 81.1902C228.002 81.1288 228.002 81.1288 227.971 81.034C227.652 79.8537 227.843 78.6074 228.505 77.551C229.167 76.4947 230.25 75.7086 231.531 75.3542C233.063 75.0346 234.508 74.437 235.779 73.5973C237.049 72.7575 238.12 71.6931 238.925 70.4681C239.73 69.2431 240.253 67.8829 240.464 66.4694C240.674 65.0559 240.567 63.6184 240.149 62.2435C239.73 60.8686 239.01 59.5848 238.03 58.4693C237.05 57.3539 235.832 56.43 234.448 55.7532C233.064 55.0765 231.544 54.6609 229.979 54.5315C228.413 54.4022 226.835 54.5617 225.339 55.0005C223.391 55.4792 221.617 56.4158 220.195 57.7158C218.773 59.0157 217.754 60.633 217.241 62.4044C217.073 63.0034 216.776 63.5661 216.366 64.0597C215.956 64.5533 215.442 64.968 214.853 65.2795C214.265 65.5911 213.614 65.7933 212.939 65.8745C212.264 65.9556 211.578 65.9139 210.92 65.752C210.276 65.5926 209.673 65.3193 209.146 64.9477C208.618 64.5762 208.177 64.1137 207.847 63.5869C207.518 63.0601 207.306 62.4794 207.224 61.8782C207.143 61.2769 207.193 60.6669 207.372 60.0833C208.291 56.9068 210.065 53.9871 212.535 51.5867C215.005 49.1863 218.094 47.3803 221.524 46.331C224.953 45.2817 228.616 45.0221 232.184 45.5753C235.752 46.1285 239.112 47.4774 241.963 49.5006C244.814 51.5238 247.066 54.158 248.518 57.1665C249.969 60.175 250.574 63.4636 250.278 66.7367C249.982 70.0099 248.794 73.165 246.822 75.9186C244.85 78.6722 242.154 80.9381 238.978 82.5125L238.984 82.507ZM245.022 102.425L245.52 104.06C245.715 104.647 245.776 105.263 245.7 105.872C245.623 106.48 245.411 107.068 245.077 107.6C244.742 108.132 244.291 108.597 243.752 108.966C243.213 109.334 242.597 109.6 241.942 109.746C240.64 110.066 239.251 109.906 238.078 109.301C236.905 108.696 236.044 107.694 235.682 106.515L235.178 104.875C234.841 103.694 235.025 102.44 235.689 101.38C236.354 100.32 237.447 99.5361 238.738 99.195C239.384 99.0245 240.061 98.9732 240.729 99.0441C241.397 99.115 242.043 99.3067 242.628 99.6079C243.214 99.909 243.726 100.313 244.137 100.797C244.547 101.281 244.846 101.835 245.016 102.425H245.022Z" fill="#EBEBEB"/>
<path d="M190.531 109.121L190.267 113.663C190.249 114.116 190.131 114.561 189.918 114.97C189.706 115.38 189.404 115.747 189.031 116.048C188.658 116.349 188.221 116.578 187.748 116.721C187.274 116.865 186.774 116.92 186.276 116.882C185.278 116.833 184.341 116.427 183.673 115.752C183.004 115.078 182.658 114.19 182.71 113.284L183.128 106.03C183.128 105.963 183.214 105.969 183.22 105.897C183.226 105.824 183.14 105.824 183.146 105.751C183.226 104.854 183.681 104.018 184.419 103.415C185.156 102.812 186.12 102.488 187.112 102.51C188.243 102.564 189.374 102.416 190.442 102.074C191.509 101.732 192.492 101.203 193.334 100.516C194.176 99.8292 194.86 98.9987 195.348 98.0719C195.837 97.1451 196.119 96.1401 196.179 95.1143C196.239 94.0885 196.076 93.0621 195.699 92.0935C195.322 91.1249 194.738 90.2332 193.981 89.4692C193.225 88.7053 192.309 88.0841 191.288 87.6411C190.267 87.1982 189.159 86.9421 188.029 86.8875C186.534 86.8114 185.044 87.0937 183.707 87.7058C182.371 88.3179 181.236 89.2383 180.416 90.3746C180.143 90.7598 179.789 91.0919 179.373 91.3514C178.957 91.611 178.489 91.7928 177.995 91.8863C177.501 91.9798 176.991 91.9831 176.496 91.896C176.001 91.8088 175.529 91.6331 175.11 91.3789C174.698 91.1304 174.344 90.8104 174.069 90.4374C173.794 90.0644 173.603 89.6457 173.507 89.2055C173.411 88.7652 173.412 88.312 173.51 87.8721C173.607 87.4321 173.8 87.0141 174.077 86.642C175.542 84.6021 177.544 82.9248 179.901 81.7607C182.258 80.5966 184.897 79.9822 187.581 79.9728C190.265 79.9634 192.909 80.5592 195.276 81.7067C197.643 82.8543 199.659 84.5176 201.142 86.547C202.625 88.5765 203.529 90.9086 203.773 93.3337C204.017 95.7588 203.593 98.2008 202.539 100.44C201.485 102.68 199.834 104.647 197.735 106.164C195.636 107.681 193.154 108.701 190.513 109.133L190.531 109.121ZM189.64 124.415L189.566 125.67C189.551 126.123 189.436 126.569 189.226 126.98C189.016 127.391 188.716 127.76 188.345 128.063C187.974 128.366 187.538 128.598 187.065 128.743C186.592 128.889 186.092 128.947 185.594 128.912C184.594 128.863 183.657 128.455 182.988 127.779C182.319 127.104 181.973 126.214 182.027 125.307L182.101 124.052C182.167 123.15 182.619 122.306 183.359 121.701C184.1 121.096 185.071 120.776 186.067 120.81C186.564 120.829 187.053 120.937 187.503 121.129C187.954 121.322 188.357 121.594 188.69 121.929C189.023 122.265 189.279 122.658 189.442 123.085C189.605 123.512 189.672 123.964 189.64 124.415Z" fill="#DBDBDB"/>
<path d="M38.55 26.5967H87.7539V71.2431H38.55V26.5967Z" fill="white"/>
<path d="M90.3193 24.2637V73.5523H35.9933V24.2637H90.3193ZM38.5513 71.2312H87.7429V26.5959H38.5513V71.2312Z" fill="#DBDBDB"/>
<path d="M42.0977 62.5879V47.1553H80.4486V62.5879H42.0977Z" fill="#EBEBEB"/>
<path d="M53.332 57.8357V40.0039H72.9841V57.8357H53.332Z" fill="#C7C7C7"/>
<path d="M33.8954 24.2686H35.9922V73.5627H33.8954V24.2686Z" fill="#C7C7C7"/>
<path d="M13.1252 92.2031H62.3291V136.85H13.1252V92.2031Z" fill="white"/>
<path d="M41.023 99.3457H53.8682V133.023H41.023V99.3457Z" fill="#C7C7C7"/>
<path d="M64.8848 89.8779V139.2H10.5649V89.8779H64.8848ZM13.1229 136.851H62.3145V92.2157H13.1229V136.851Z" fill="#DBDBDB"/>
<path d="M27.9 105.611H47.5459V123.438H27.9V105.611Z" fill="#EBEBEB"/>
<path d="M8.46378 89.8779H10.5605V139.172H8.46378V89.8779Z" fill="#C7C7C7"/>
<path d="M254.062 224.974L222.924 224.84L191.786 224.79L129.509 224.695L67.2327 224.79L36.0944 224.84L4.95615 224.974L36.0944 225.108L67.2327 225.158L129.509 225.253L191.786 225.158L222.924 225.108L254.062 224.974Z" fill="#263238"/>
<path d="M106.279 116.444C75.251 145.864 36.6172 207.388 44.2111 219.663C52.6721 233.316 95.8623 192.084 95.6717 189.713C95.518 187.922 110.337 150.657 121.602 123.58C132.867 96.5028 113.953 109.168 106.279 116.444Z" fill="#D3766A"/>
<path d="M95.9635 189.725C97.2424 185.747 117.429 136.626 123.179 121.098C128.928 105.571 123.283 100.867 106.367 115.251C89.4517 129.635 52.6441 177.4 44.4906 202.597C36.6322 226.867 50.3382 226.677 68.2378 215.295C82.8969 205.972 95.9635 189.725 95.9635 189.725Z" fill="#FFC727"/>
<path d="M124.539 108.888C124.656 108.849 124.773 108.81 124.896 108.76C124.847 108.622 124.783 108.489 124.705 108.364C124.471 108.447 124.231 108.526 123.992 108.598C122.055 109.156 119.687 109.34 117.984 108.129C117.792 107.993 117.615 107.84 117.455 107.672L116.988 107.884C118.722 109.77 122.055 109.714 124.539 108.888ZM111.165 111.455L111.638 111.114C111.909 111.233 112.179 111.345 112.45 111.449C116.324 112.995 121.108 114.551 124.459 117.162L124.311 117.72C122.531 116.327 120.534 115.18 118.384 114.317C116.016 113.279 113.52 112.459 111.165 111.455ZM106.861 121.922C105.719 120.596 104.451 119.364 103.073 118.239C103.196 118.117 103.325 117.999 103.448 117.882C106.984 120.672 109.517 124.935 112.88 127.641C114.73 129.198 116.953 130.344 119.374 130.988C119.318 131.133 119.263 131.278 119.202 131.423C117.524 130.988 115.942 130.296 114.522 129.376C111.343 127.417 109.216 124.6 106.854 121.899L106.861 121.922ZM89.3915 132.969C94.5074 139.268 103.786 140.78 111.927 141.896C112.911 142.03 113.895 142.175 114.879 142.354C114.811 142.515 114.75 142.683 114.682 142.85C111.245 142.214 107.709 141.946 104.29 141.238C98.5903 140.055 92.6074 137.605 89.0348 133.387L89.3915 132.969ZM82.4247 187.274C85.9419 186.476 89.1394 187.536 92.2323 189.02C93.2469 189.511 94.2737 190.03 95.3068 190.515L94.9563 190.928C90.7873 188.981 86.772 186.554 81.9697 187.971C80.4017 188.434 78.8952 189.343 78.2803 190.761C77.481 192.607 78.3787 194.532 79.7991 195.899C81.7852 197.802 84.4969 198.561 87.1225 199.459L86.6675 199.922L84.3985 199.119C81.2687 198.003 77.5916 195.927 77.3641 192.513C77.1981 189.762 79.67 187.893 82.4186 187.274H82.4247ZM94.6611 153.239C92.2015 150.064 89.8957 146.767 87.4177 143.587C86.3477 142.209 85.2225 140.797 83.9927 139.475L84.3432 139.045C85.0011 139.748 85.6222 140.468 86.2248 141.193C88.7212 144.2 90.9594 147.375 93.2838 150.488C96.7887 155.181 100.902 160.464 106.301 163.717C106.233 163.89 106.166 164.058 106.092 164.23C101.468 161.446 97.7479 157.178 94.655 153.233L94.6611 153.239ZM93.4313 161.608C93.6221 162.971 93.4027 164.354 92.7965 165.613C92.1902 166.871 91.2197 167.957 89.9879 168.755C87.1225 170.541 83.9189 169.442 81.8836 167.154C80.6538 165.804 79.8114 164.253 78.7353 162.824C77.491 161.144 75.947 159.664 74.1667 158.445C73.1207 157.742 71.9695 157.178 70.7479 156.771L71.0984 156.285C71.8598 156.549 72.5926 156.875 73.2874 157.262C76.7615 159.181 78.8768 162.144 81.0043 165.185C82.0988 166.736 83.4147 168.387 85.4377 168.973C86.3008 169.192 87.213 169.196 88.0785 168.985C88.9441 168.774 89.731 168.356 90.3568 167.773C93.3083 165.274 93.499 161.43 91.2731 158.489C88.9242 155.376 84.8597 153.702 81.0166 152.586C79.0489 152.028 77.0198 151.548 75.0337 150.974L75.3719 150.522C79.3687 151.688 83.6299 152.503 87.0549 154.344C90.0002 155.934 92.8595 158.411 93.4006 161.619L93.4313 161.608ZM60.8419 171.266C62.5042 173.086 64.4762 174.653 66.6834 175.908C70.2857 178.079 74.4284 179.398 78.7353 179.747C82.9962 180.097 87.2419 178.944 90.5905 176.528C93.5113 174.396 96.1246 171.752 99.9984 171.171C101.096 171.006 102.215 170.985 103.319 171.11C103.239 171.305 103.165 171.495 103.085 171.668C101.565 171.515 100.026 171.659 98.5719 172.092C96.5304 172.711 94.8456 173.978 93.2469 175.233C91.761 176.505 90.1282 177.627 88.3769 178.581C86.6541 179.418 84.7797 179.968 82.8428 180.204C78.9779 180.631 75.0569 180.151 71.455 178.81C67.5627 177.415 63.3138 175.016 60.4853 171.835L60.8419 171.266ZM60.8111 219.467C60.2393 219.746 59.6736 220.025 59.1202 220.248C57.2227 220.639 55.3993 221.282 53.7091 222.156C52.9958 222.337 52.2709 222.479 51.5385 222.58C53.4091 221.518 55.4137 220.664 57.5092 220.036C58.5836 219.747 59.6881 219.56 60.805 219.478L60.8111 219.467ZM57.7367 176.21L58.0072 175.774C63.1969 176.784 68.0423 180.154 69.9731 184.445C71.498 187.831 70.588 191.14 68.977 194.354C67.9641 196.151 67.0749 198.003 66.3145 199.9C65.7083 201.644 65.371 203.456 65.3122 205.284C65.1774 208.811 66.1682 212.298 68.1653 215.327L67.6857 215.628C66.1466 213.334 65.185 210.76 64.8695 208.09C64.4569 204.708 64.9876 201.285 66.4129 198.137C68.0915 194.432 70.9446 190.783 70.1022 186.576C69.02 181.543 63.529 177.32 57.7121 176.221L57.7367 176.21ZM44.1721 203.677C45.8511 204.167 47.5728 204.527 49.3188 204.754C51.4094 204.988 53.9305 204.904 55.1603 203.08C56.0457 201.763 55.8858 200.073 55.4062 198.656C54.3548 195.565 51.6 193.79 48.999 191.832C49.0667 191.676 49.1466 191.519 49.2265 191.363C50.5363 192.34 51.9136 193.26 53.0942 194.287C55.2095 196.128 56.7836 199.052 56.2855 201.763C55.6706 205.167 51.8583 205.641 48.6916 205.195C47.1166 204.931 45.5634 204.569 44.043 204.112C44.0368 203.989 44.0983 203.839 44.1475 203.688L44.1721 203.677Z" fill="white"/>
<path opacity="0.1" d="M68.2393 215.294C82.8984 205.976 95.965 189.723 95.965 189.723C97.2378 185.745 117.437 136.624 123.18 121.097C125.302 115.355 125.873 111.098 124.89 108.738L68.2393 215.294Z" fill="black"/>
<path d="M96.9605 224.874H216.785C216.785 224.874 192.275 138.449 151.785 102.685C146.355 97.8866 125.209 98.6956 120.333 105.921C102.064 133.02 96.6284 224.489 96.9605 224.874Z" fill="#FFC727"/>
<path d="M112.198 176.457C116.908 182.527 111.786 190.796 104.278 192.224C102.736 192.509 101.141 192.462 99.6231 192.085L99.5678 192.643C100.969 192.989 102.435 193.069 103.872 192.877C110.55 191.934 116.17 185.479 114.381 179.33C113.003 174.538 107.617 171.201 102.279 171.05C102.279 171.251 102.224 171.447 102.193 171.647C102.652 171.653 103.111 171.686 103.565 171.748C105.278 171.968 106.925 172.498 108.408 173.307C109.891 174.116 111.18 175.187 112.198 176.457ZM211.639 209.498L211.823 209.359C211.891 209.543 211.952 209.727 212.014 209.917C207.334 213.426 206.369 219.747 204.869 224.886H204.254C205.852 219.502 206.726 213.292 211.639 209.498ZM191.611 178.253C187.953 178.041 184.233 176.931 182.007 174.147C180.285 171.999 179.387 168.975 180.66 166.464C182.136 163.557 185.739 162.787 188.961 162.86C190.357 162.888 191.734 163.01 193.106 163.15L193.364 163.708C191.129 163.373 188.855 163.304 186.6 163.501C184.62 163.747 182.671 164.534 181.564 166.107C181.125 166.789 180.838 167.544 180.722 168.328C180.606 169.111 180.662 169.907 180.888 170.671C181.822 174.326 185.106 176.63 189.017 177.4C192.478 178.08 196.002 177.712 199.47 177.26L199.691 177.768C197.022 178.171 194.316 178.333 191.611 178.253ZM186.452 218.922C189.945 218.364 195.553 221.388 197.435 217.248C198.849 214.146 196.82 210.681 194.655 208.349C192.017 205.52 188.611 203.405 185.247 201.347C179.037 197.536 163.99 185.869 171.172 180.926C177.869 176.323 186.471 189.753 191.507 193.965C195.959 197.681 202.477 201.045 208.847 200.962L209.031 201.458C202.593 201.559 196.229 198.233 191.445 194.635C185.149 189.903 178.945 177.601 171.67 181.372C165.632 184.502 176.891 195.477 183.126 199.377C186.268 201.347 189.533 203.193 192.399 205.514C194.932 207.556 197.416 210.078 198.185 213.158C198.75 215.435 198.461 218.358 195.91 219.552C194.286 220.317 192.448 220.026 190.732 219.731C188.574 219.351 186.551 219.123 184.546 220.11C183.546 220.611 182.669 221.292 181.971 222.113C181.273 222.933 180.768 223.876 180.488 224.881H179.83C179.83 224.881 179.83 224.881 179.83 224.853C180.672 222.024 183.23 219.468 186.471 218.927L186.452 218.922ZM142.617 150.055C144.13 149.263 145.863 148.884 147.607 148.962C149.352 149.04 151.035 149.573 152.455 150.496C155.529 152.471 157.417 155.662 158.862 158.742C160.473 162.185 161.937 165.995 165.073 168.545C166.77 169.935 169.444 171.151 171.529 169.661C172.888 168.69 173.374 166.977 173.454 165.465C173.57 162.229 171.443 159.172 169.315 156.728C167.114 154.189 164.544 151.941 162.324 149.413C160.264 147.07 158.456 144.392 157.971 141.379C157.731 139.889 157.971 138.277 159.317 137.278C160.48 136.53 161.916 136.219 163.326 136.408C166.819 136.715 169.801 139.019 171.904 141.429C173.077 142.795 174.106 144.258 174.979 145.798C175.932 147.444 176.639 149.201 177.604 150.819C178.723 152.716 180.648 153.637 182.972 152.99C184.501 152.532 185.826 151.64 186.754 150.446C186.84 150.607 186.926 150.769 187.006 150.931C185.296 152.834 182.739 154.318 180.015 153.514C178.287 153.001 177.358 151.584 176.645 150.167C175.821 148.493 175.022 146.858 174.05 145.274C172.101 142.088 169.389 138.824 165.54 137.412C163.923 136.821 161.851 136.581 160.246 137.345C158.014 138.411 158.296 140.899 158.881 142.78C160.836 149.012 167.298 152.951 171.178 158.134C172.949 160.511 174.419 163.379 174.001 166.319C173.62 168.964 171.541 171.424 168.313 170.783C164.519 170.035 162.047 166.403 160.504 163.468C158.745 160.12 157.565 156.544 155.062 153.576C152.559 150.607 148.716 148.621 144.554 149.91C140.096 151.288 137.544 155.283 137.378 159.395C137.07 166.91 142.912 173.132 148.864 177.668C154.595 182.025 161.07 185.574 166.37 190.4C172.242 195.769 176.063 202.705 177.272 210.19C178.016 214.782 178.01 220.305 175.962 224.864H175.188C175.794 223.513 176.243 222.109 176.528 220.674C178.102 213.008 176.184 204.705 171.953 197.982C167.876 191.505 161.469 187.069 154.982 182.7C149.276 178.856 143.299 174.85 139.69 169.153C135.828 163.144 134.912 153.955 142.635 150.061L142.617 150.055ZM122.651 185.535C122.716 183.83 123.219 182.163 124.119 180.666C125.019 179.168 126.291 177.882 127.835 176.909C129.233 176.037 130.885 175.559 132.582 175.537C134.278 175.514 135.945 175.946 137.372 176.78C140.329 178.499 142.242 181.54 142.973 184.592C144.037 189.027 143.152 193.58 143.053 198.055C142.89 206.634 145.445 215.075 150.413 222.375C150.998 223.229 151.643 224.049 152.307 224.875H151.471C149.47 222.393 147.802 219.703 146.503 216.863C144.703 213.075 143.481 209.083 142.869 204.996C142.223 200.688 142.524 196.465 142.776 192.163C143.016 188.023 142.869 183.688 140.206 180.15C137.863 177.037 133.768 175.129 129.704 176.68C125.639 178.231 123.358 182.159 123.272 186.065C123.026 194.138 129.421 200.917 133.805 207.417C135.896 210.508 137.771 213.777 138.651 217.337C139.259 219.818 139.351 222.38 138.921 224.892H138.306C138.804 222.042 138.619 219.129 137.765 216.35C135.508 209.096 129.624 203.4 125.867 196.822C123.893 193.318 122.399 189.479 122.669 185.54L122.651 185.535ZM104.788 210.084C107.076 207.607 110.39 205.961 114.012 206.284C117.332 206.58 120.247 208.516 120.96 211.557C121.778 215.072 119.73 218.721 117.609 221.538C116.785 222.654 115.85 223.731 114.959 224.858H114.264C115.936 222.682 117.812 220.618 119.085 218.213C120.929 214.732 121.544 209.956 117.24 207.718C113.606 205.816 109.129 206.92 106.233 209.42C103.097 212.132 101.628 216.004 100.755 219.759C100.367 221.432 100.072 223.106 99.7769 224.858H99.1927C100.09 219.597 100.964 214.257 104.807 210.101L104.788 210.084ZM142.604 99.8125C142.94 99.8423 143.272 99.8757 143.6 99.9129C145.003 101.397 146.62 102.701 148.409 103.791C150.87 105.312 153.598 106.444 156.476 107.138L157.227 107.908C156.531 107.78 155.843 107.618 155.167 107.423C150.659 106.106 145.728 103.456 142.604 99.8125ZM141.743 115.284C142.483 113.948 142.672 112.417 142.278 110.966C141.59 108.131 139.093 105.386 135.822 104.912C131.585 104.287 128.24 107.668 124.539 108.89C122.657 109.515 120.296 109.699 118.5 108.935C118.568 108.801 118.642 108.673 118.709 108.55C120.314 109.286 122.319 109.108 123.991 108.6C127.755 107.484 130.755 104.343 134.943 104.388C140.477 104.455 144.72 110.843 142.321 115.346C141.479 116.908 139.862 117.968 138.478 119.084C137.033 120.172 135.875 121.541 135.09 123.09C134.384 124.543 134.01 126.111 133.992 127.7C133.974 129.288 134.312 130.863 134.986 132.329C135.626 133.75 136.702 134.974 138.086 135.857C139.471 136.739 141.105 137.242 142.795 137.306C144.408 137.342 146.008 137.044 147.474 136.434C148.941 135.824 150.234 134.918 151.256 133.786C152.237 132.673 152.796 131.304 152.848 129.88C152.904 127.972 152.111 126.119 151.619 124.301C150.838 121.595 150.721 118.046 154.134 116.807C156.87 115.809 160.11 117.053 162.25 118.632C165.109 120.735 166.265 124.055 167.864 126.945C169.574 130.031 172.07 132.96 176.135 133.295C176.393 133.295 176.645 133.328 176.897 133.328C177.008 133.507 177.118 133.691 177.235 133.886H177.075C173.792 133.914 171.049 132.363 169.149 129.98C166.911 127.191 165.952 123.731 163.787 120.886C161.943 118.47 157.989 116.238 154.656 117.192C149.805 118.582 152.24 124.027 153.039 127.073C153.765 129.824 153.426 132.419 151.28 134.572C147.327 138.528 139.862 139.036 136 134.74C132.04 130.31 132.889 123.19 137.384 119.335C138.835 118.057 140.741 116.997 141.743 115.284ZM124.078 131.347C120.812 132.463 117.209 131.096 114.516 129.406C113.373 128.681 112.318 127.848 111.368 126.923L111.515 126.443C111.952 126.867 112.407 127.274 112.874 127.654C115.709 129.936 120.025 132.229 123.911 130.89C127.914 129.512 128.763 125.271 127.496 121.963C126.07 118.208 122.153 115.931 118.384 114.325C117.683 114.027 116.975 113.742 116.262 113.471C116.318 113.326 116.385 113.186 116.453 113.041C122.221 115.312 128.259 118.252 128.609 124.524C128.769 127.414 127.207 130.27 124.078 131.347ZM103.681 161.934C106.138 163.906 109.044 165.363 112.192 166.202C116.588 167.318 121.046 166.347 123.838 162.949C125.039 161.425 125.945 159.727 126.519 157.928C127.275 155.696 127.822 153.291 127.134 150.998C126.014 147.148 121.944 144.738 117.984 143.611C114.59 142.64 111.023 142.316 107.531 141.798C107.574 141.619 107.611 141.44 107.648 141.24C109.086 141.474 110.519 141.68 111.915 141.87C116.065 142.428 120.327 143.209 123.709 145.608C125.247 146.635 126.452 148.019 127.197 149.614C127.942 151.21 128.201 152.958 127.945 154.675C127.459 158.123 125.941 161.928 123.217 164.416C120.493 166.905 116.68 167.613 112.966 166.899C109.49 166.157 106.27 164.649 103.589 162.508C103.632 162.335 103.681 162.134 103.681 161.934Z" fill="white"/>
<path d="M45.3257 219.032C53.9343 227.122 71.1145 227.842 120.165 229.477C126.929 229.706 141.594 186.671 134.363 186.091C125.25 185.36 89.715 184.323 87.1079 184.54C65.1008 186.409 39.4965 213.548 45.3257 219.032Z" fill="#D3766A"/>
<path d="M118.58 187.129C118.58 187.129 137.906 183.223 148.759 184.032C163.289 185.109 175.347 191.47 180.223 194.41C190.399 200.547 210.353 221.749 204.591 228.048C199.395 233.728 180.235 211.098 180.235 211.098C180.235 211.098 203.97 231.245 196.333 237.042C188.696 242.839 168.097 215.416 168.097 215.416C168.097 215.416 191.967 236.618 183.051 241.461C176.288 245.127 156.113 221.247 156.113 221.247C156.113 221.247 176.497 239.625 169.745 243.631C162.28 248.095 142.112 227.111 142.112 227.111C123.05 234.755 110.518 231.318 101.934 227.909C99.8561 227.083 118.58 187.129 118.58 187.129Z" fill="#D3766A"/>
<path d="M172.521 203.65C175.405 205.926 178.338 208.214 180.989 210.713C183.639 213.213 186.191 215.796 188.576 218.524C194.418 225.181 196.927 230.174 196.736 229.878C192.192 222.949 182.858 213.866 180.208 211.366C177.557 208.866 175.055 206.255 172.411 203.756C172.343 203.678 172.454 203.599 172.521 203.65Z" fill="#263238"/>
<path d="M162.399 212.171C165.941 215.217 169.581 218.13 172.975 221.321C176.369 224.513 179.253 227.782 182.389 231.163C182.629 231.42 182.389 231.453 182.143 231.202C178.872 227.938 175.564 225.149 172.249 221.924C168.935 218.699 165.756 215.346 162.325 212.243C162.257 212.193 162.343 212.126 162.399 212.171Z" fill="#263238"/>
<path d="M152.258 218.062C157.934 222.469 162.712 227.826 167.249 233.176C167.477 233.444 167.17 233.455 166.924 233.176C162.041 228.066 158.26 224.021 152.092 218.218C151.994 218.151 152.141 217.967 152.258 218.062Z" fill="#263238"/>
<path d="M128.709 184.887L94.361 232.982C94.361 232.982 51.9332 229.433 44.0257 220.512C38.8114 214.642 64.7784 184.843 89.2696 184.452L128.709 184.887Z" fill="#FFC727"/>
<path d="M122.67 185.54C122.552 187.725 122.879 189.912 123.635 191.989L124.047 191.431C123.488 189.691 123.227 187.882 123.272 186.07C123.284 185.661 123.321 185.253 123.383 184.848H122.768C122.719 185.071 122.686 185.302 122.67 185.54ZM113.446 206.267L113.077 206.78C110.525 206.875 108.102 207.821 106.27 209.436C103.134 212.148 101.665 216.02 100.792 219.775C100.355 221.633 100.041 223.558 99.7155 225.494L98.953 226.565C99.943 220.757 100.558 214.703 104.813 210.1C106.965 207.762 110.04 206.15 113.44 206.267H113.446ZM66.3943 198.166C67.6241 195.493 69.4257 192.854 70.0283 190.009L70.6002 189.702C70.2995 191.319 69.7467 192.89 68.9584 194.366C67.9455 196.163 67.0564 198.015 66.2959 199.912C65.6898 201.656 65.3525 203.468 65.2936 205.296C65.0477 212.644 69.4811 219.847 77.5608 221.912C84.8289 223.77 93.0746 220.919 95.1099 213.928C96.0091 210.951 95.6426 207.777 94.083 205.034C92.0231 201.569 88.2108 200.504 84.4107 199.137C81.2809 198.021 77.6038 195.945 77.3763 192.531C77.198 189.741 79.6699 187.889 82.4185 187.269C85.9357 186.471 89.1331 187.531 92.226 189.016C95.9831 190.818 99.8385 193.066 104.278 192.218C106.384 191.781 108.332 190.862 109.936 189.548C111.539 188.235 112.746 186.57 113.44 184.714H114.184C113.429 186.786 112.074 188.636 110.261 190.07C108.448 191.504 106.244 192.47 103.878 192.865C95.8847 193.981 90.0124 185.612 81.9758 187.961C80.4078 188.424 78.9013 189.334 78.2864 190.751C77.487 192.598 78.3848 194.522 79.8052 195.889C82.9165 198.869 87.7988 199.036 91.3652 201.363C96.4258 204.666 97.342 211.378 94.7717 216.271C91.7403 222.046 84.1402 224.01 77.6592 222.453C70.3235 220.69 65.6503 214.776 64.8386 208.086C64.4342 204.714 64.967 201.303 66.3882 198.166H66.3943ZM50.6776 205.358L51.1264 204.856C52.7067 204.816 54.2563 204.409 55.1417 203.104C55.6915 202.23 55.9077 201.216 55.7566 200.219L56.2916 199.734C56.4079 200.414 56.4079 201.107 56.2916 201.787C55.7751 204.476 53.2601 205.341 50.6714 205.358H50.6776ZM57.5029 220.048C60.4052 219.267 63.8117 219.128 66.6157 220.305C69.6041 221.555 70.8707 224.211 70.4588 227.123C70.3096 227.985 70.1043 228.838 69.8439 229.678L69.3274 229.589C69.9422 227.302 70.4526 225.02 69.0814 222.938C67.3105 220.26 63.3629 219.758 60.233 220.087C56.31 220.5 53.0572 222.498 49.6876 224.199L49.0174 223.893C51.809 222.492 54.4899 220.857 57.5029 220.048Z" fill="white"/>
<path d="M61.789 195.292C74.1177 186.175 78.2867 184.602 97.6927 184.39C97.8526 184.39 97.8833 184.574 97.7235 184.579C76.442 185.45 66.616 192.586 61.9305 195.437C61.8075 195.504 61.6783 195.375 61.789 195.292Z" fill="#263238"/>
<path d="M81.7341 227.563C85.1959 222.09 88.9837 216.789 92.8022 211.5C96.6207 206.211 100.396 200.899 104.344 195.705C106.576 192.759 108.789 189.807 111.108 186.934C111.169 186.862 111.323 186.934 111.267 187.018C107.812 192.486 104.049 197.803 100.292 203.103C96.5346 208.404 92.7038 213.704 88.8238 218.954C86.6286 221.917 84.3781 224.846 82.06 227.72C81.9185 227.859 81.6295 227.72 81.7341 227.563Z" fill="#263238"/>
<path opacity="0.1" d="M85.394 184.748L113.679 205.95L128.726 184.887L89.2739 184.452C88.8128 184.452 88.3454 184.48 87.8781 184.508L85.6706 184.726L85.394 184.748Z" fill="black"/>
<path d="M166.249 132.411C171.285 183.999 163.414 225.091 139.544 228.054C123.692 230.018 127.664 186.398 127.701 185.466C127.824 182.275 129.65 155.655 140.89 126.698C153.256 94.8453 163.998 109.363 166.249 132.411Z" fill="#D3766A"/>
<path d="M166.249 132.411C171.285 183.999 163.414 225.091 139.544 228.054C123.692 230.018 121.472 193.233 121.509 192.301C121.638 189.109 129.65 155.655 140.89 126.698C153.256 94.8453 163.998 109.363 166.249 132.411Z" fill="#FFC727"/>
<path d="M139.512 130.371C136.038 140.085 132.877 149.899 129.809 159.719C126.888 169.577 123.77 179.425 121.938 189.507C126.101 172.211 134.328 147.717 139.512 130.365V130.371Z" fill="#263238"/>
<path d="M136.573 132.781C135.786 135.571 135.196 138.545 135.921 141.368C135.829 138.539 136.407 135.604 136.573 132.781Z" fill="#263238"/>
<path d="M163.732 120.902C164.008 121.265 164.261 121.633 164.506 122.018C164.379 121.501 164.244 120.993 164.101 120.495C163.555 119.809 162.915 119.19 162.194 118.653C160.055 117.075 156.814 115.83 154.078 116.829C150.665 118.068 150.782 121.616 151.563 124.322C152.086 126.141 152.879 127.993 152.793 129.902C152.74 131.325 152.181 132.695 151.2 133.807C150.178 134.94 148.885 135.846 147.419 136.456C145.952 137.066 144.352 137.364 142.739 137.328C140.846 137.282 139.026 136.657 137.574 135.554C137.506 135.726 137.445 135.899 137.383 136.078C141.448 138.923 147.695 138.109 151.194 134.611C153.34 132.457 153.654 129.863 152.953 127.112C152.153 124.066 149.718 118.62 154.57 117.231C157.933 116.254 161.893 118.486 163.732 120.902ZM157.964 141.395C157.724 139.905 157.964 138.293 159.311 137.294C160.473 136.539 161.911 136.221 163.326 136.407C164.512 136.518 165.663 136.839 166.714 137.35C166.714 137.545 166.751 137.741 166.763 137.936C166.367 137.734 165.956 137.557 165.533 137.406C163.916 136.814 161.844 136.575 160.239 137.339C158.007 138.405 158.29 140.893 158.874 142.773C160.307 147.337 164.156 150.674 167.624 154.166C167.624 154.417 167.624 154.669 167.624 154.914C165.859 153.078 163.984 151.332 162.311 149.424C160.251 147.086 158.45 144.414 157.964 141.395ZM139.646 169.164C135.828 163.144 134.912 153.954 142.635 150.06C144.148 149.268 145.881 148.889 147.625 148.967C149.37 149.045 151.053 149.578 152.473 150.501C155.547 152.476 157.435 155.667 158.88 158.747C160.491 162.19 161.955 166 165.091 168.55C165.814 169.152 166.646 169.637 167.55 169.984C167.55 170.185 167.55 170.38 167.519 170.575C164.168 169.515 161.936 166.19 160.504 163.467C158.745 160.12 157.564 156.543 155.062 153.575C152.559 150.607 148.716 148.621 144.553 149.909C140.095 151.287 137.543 155.282 137.377 159.394C137.07 166.91 142.911 173.131 148.864 177.667C154.318 181.812 160.442 185.227 165.589 189.707C165.546 189.97 165.503 190.232 165.453 190.488C162.171 187.67 158.678 185.06 155 182.677C149.233 178.866 143.262 174.86 139.646 169.164ZM125.854 196.782C124.009 193.574 122.614 190.025 122.638 186.382C122.638 186.097 122.638 185.824 122.669 185.539C122.768 184.015 123.186 182.521 123.899 181.137C124.763 179.423 126.136 177.96 127.865 176.914C129.264 176.042 130.915 175.564 132.612 175.541C134.309 175.519 135.975 175.951 137.402 176.785C140.36 178.504 142.272 181.545 143.004 184.597C144.067 189.032 143.182 193.585 143.084 198.06C142.912 206.634 145.456 215.073 150.413 222.375C150.548 222.576 150.69 222.771 150.831 222.972C150.665 223.117 150.493 223.256 150.321 223.396C148.835 221.326 147.557 219.14 146.502 216.862C144.703 213.075 143.48 209.082 142.868 204.995C142.223 200.688 142.524 196.464 142.776 192.162C143.016 188.022 142.868 183.687 140.206 180.15C137.863 177.036 133.768 175.128 129.703 176.679C125.639 178.23 123.358 182.158 123.272 186.064C123.026 194.137 129.421 200.916 133.805 207.416C135.895 210.507 137.771 213.777 138.65 217.337C139.474 220.713 139.345 224.223 138.275 227.541C138.214 227.742 138.14 227.943 138.072 228.144C137.863 228.144 137.654 228.144 137.457 228.105C138.829 224.298 138.934 220.209 137.759 216.349C135.496 209.073 129.611 203.36 125.854 196.782Z" fill="white"/>
<path d="M167.328 139.486C167.396 152.079 167.039 164.689 165.889 177.231C164.432 192.926 160.355 226.012 138.219 227.574C134.751 227.764 131.553 227.15 128.749 225.181C124.55 222.452 121.039 218.943 117.681 215.394C110.997 208.23 104.934 200.28 99.3144 192.552L100.661 191.308L99.2652 192.508C101.036 195.23 102.911 197.892 104.799 200.536C110.426 208.152 123.406 225.644 132.943 228.149C144.626 230.498 153.407 223.217 158.154 214.234C168.607 194.187 167.992 161.687 167.346 139.47L167.328 139.486Z" fill="#263238"/>
<path d="M168.473 142.606C168.178 144.994 167.747 147.299 167.464 149.687C168.417 147.433 168.763 145.006 168.473 142.606Z" fill="#263238"/>
<path d="M126.755 130.272C126.755 130.272 147.212 113.288 160.033 114.091L170.603 123.186C170.603 123.186 174.139 124.358 175.325 122.332C178.246 117.311 179.242 105.036 167.879 96.7115C157.469 89.0733 135.499 89.9046 120.784 92.951C106.642 95.8746 98.648 103.122 102.651 111.542C106.654 119.961 126.755 130.272 126.755 130.272Z" fill="#FFC727"/>
<path opacity="0.1" d="M125.49 126.332C125.49 126.332 109.81 115.436 108.378 109.209C106.945 102.982 120.78 97.4921 129.659 95.4556C143.402 92.2921 152.644 93.3689 160.029 100.193C167.414 107.016 125.49 126.332 125.49 126.332Z" fill="black"/>
<path d="M123.231 124.256C130.56 125.093 141.677 113.984 145.557 105.475C145.822 104.917 144.205 99.1761 142.6 92.146C141.647 87.8777 140.694 83.1073 140.171 78.694C140.066 77.7846 110.465 88.3855 110.465 88.3855C110.465 88.3855 114.554 97.346 115.415 105.046C115.474 105.655 115.474 106.267 115.415 106.876C115.415 106.959 115.415 107.065 115.415 107.183C115.2 110.681 116.147 123.441 123.231 124.256Z" fill="#D3766A"/>
<path d="M118.558 107.02C117.518 107.157 116.466 107.21 115.416 107.177C115.416 107.059 115.416 106.959 115.416 106.87C115.48 106.261 115.48 105.648 115.416 105.04C114.561 97.3512 110.496 88.3907 110.496 88.3907C110.496 88.3907 134.527 79.7816 139.396 78.7383C138.991 83.9271 136.506 104.911 118.558 107.02Z" fill="#263238"/>
<path d="M149.873 56.4822C150.642 66.7762 137.932 93.3677 128.807 97.9707C115.58 104.666 97.447 101.726 92.1221 88.0393C86.9385 74.7659 104.18 40.38 114.043 36.5302C128.561 30.8559 148.735 41.2727 149.873 56.4822Z" fill="#D3766A"/>
<path d="M115.684 67.5855C115.733 67.5241 115.801 67.7305 115.764 67.8031C114.854 69.5773 114.141 71.7422 115.647 73.031C115.696 73.0756 115.647 73.1593 115.586 73.1259C113.519 71.9988 114.509 69.131 115.684 67.5855Z" fill="#263238"/>
<path d="M118.336 66.396C121.62 67.417 119.142 73.3034 116.098 72.3604C113.054 71.4175 115.581 65.5479 118.336 66.396Z" fill="#263238"/>
<path d="M103.463 63.0659C103.463 62.9878 103.272 63.0659 103.242 63.1719C102.541 65.0187 101.397 67.0217 99.3123 66.9994C99.2508 66.9994 99.2201 67.0887 99.3123 67.1054C101.624 67.5909 103.125 64.9127 103.463 63.0659Z" fill="#263238"/>
<path d="M102.451 60.5278C99.3151 59.1832 96.5788 64.9913 99.4873 66.2188C102.396 67.4463 105.101 61.6437 102.451 60.5278Z" fill="#263238"/>
<path d="M121.127 66.6311C120.23 66.3428 119.352 66.0113 118.495 65.6379C117.486 65.2474 116.65 65.0298 116.035 64.1594C115.889 63.897 115.843 63.5979 115.904 63.3091C115.965 63.0203 116.13 62.7581 116.373 62.5637C117.462 61.777 118.833 61.9778 120.063 62.4075C121.319 62.7917 122.371 63.5876 123.014 64.6392C123.684 65.7439 122.356 66.977 121.127 66.6311Z" fill="#263238"/>
<path d="M102.305 55.6569C103.244 55.7979 104.19 55.8948 105.14 55.947C106.228 56.0475 107.089 56.226 108.092 55.7406C108.36 55.5752 108.561 55.3342 108.663 55.0548C108.765 54.7755 108.763 54.4733 108.657 54.1951C108.116 53.029 106.813 52.6049 105.515 52.4376C104.204 52.227 102.853 52.4677 101.727 53.1127C100.547 53.7599 101.051 55.4226 102.305 55.6569Z" fill="#263238"/>
<path d="M110.506 84.519C109.848 84.7812 109.116 85.1997 108.366 85.0044C107.623 84.7308 106.953 84.3182 106.398 83.7936C106.388 83.7808 106.372 83.7718 106.355 83.7683C106.338 83.7647 106.32 83.7668 106.305 83.7742C106.289 83.7816 106.277 83.7938 106.27 83.8086C106.264 83.8235 106.263 83.8399 106.269 83.855C106.406 84.3134 106.676 84.7299 107.052 85.0607C107.427 85.3916 107.894 85.6246 108.403 85.7353C109.374 85.9027 110.124 85.3447 110.665 84.6696C110.739 84.5636 110.604 84.4688 110.506 84.519Z" fill="#263238"/>
<path d="M109.267 81.6334C107.115 79.8201 103.733 78.9609 101.538 78.4643C101.322 78.3527 101.285 77.8617 101.335 77.6497L103.112 73.8445C102.441 73.9003 99.0964 74.0566 99.453 73.348C102.417 67.4896 105.713 60.9729 110.023 55.7059C110.049 55.6645 110.092 55.6341 110.143 55.6216C110.194 55.609 110.248 55.6153 110.294 55.6389C110.339 55.6626 110.373 55.7018 110.387 55.7478C110.4 55.7939 110.394 55.843 110.367 55.8844C107.766 61.6145 104.071 66.8982 101.353 72.6227C102.398 72.6227 104.126 72.5725 104.919 72.8737C105.116 73.0021 102.81 76.8128 102.62 77.46C102.62 77.46 107.145 77.7892 109.636 80.869C110.287 81.6502 110.3 82.4982 109.267 81.6334Z" fill="#263238"/>
<path d="M143.337 81.7289C138.38 81.316 136.96 73.9512 136.874 71.0164C136.788 68.0816 141.326 57.1627 140.735 52.6043C140.145 48.0459 135.49 45.0554 131.389 44.7931C127.288 44.5309 120.678 47.2704 118.052 46.1099C115.426 44.9494 117.007 39.3699 115.113 38.7172C110.944 37.2832 105.274 45.0777 102.778 48.9665C102.778 48.9665 108.158 29.9965 130.282 35.5759C150.457 40.5974 151.631 55.009 151.096 60.9232C150.082 72.1992 143.337 81.7289 143.337 81.7289Z" fill="#263238"/>
<path d="M113.717 79.6256C115.363 80.0557 117.108 80.0582 118.755 79.6326C120.402 79.2071 121.885 78.3707 123.034 77.2185C124.183 76.0663 124.953 74.6447 125.255 73.1152C125.558 71.5858 125.382 70.0099 124.746 68.567C124.111 67.124 123.041 65.8718 121.66 64.9529C120.279 64.034 118.642 63.4852 116.934 63.369C115.226 63.2527 113.517 63.5737 112 64.2954C110.484 65.0171 109.221 66.1105 108.355 67.4513C107.132 69.352 106.79 71.6153 107.403 73.7447C108.016 75.8742 109.535 77.6961 111.626 78.811C112.284 79.1593 112.986 79.4328 113.717 79.6256ZM118.439 64.7341C119.073 64.8987 119.681 65.1369 120.247 65.4427C121.979 66.3691 123.256 67.8595 123.819 69.6104C124.383 71.3614 124.189 73.2413 123.278 74.8673C122.367 76.4933 120.808 77.7432 118.917 78.3625C117.026 78.9818 114.946 78.9239 113.101 78.2005C111.256 77.4772 109.783 76.1429 108.984 74.4693C108.185 72.7956 108.119 70.9085 108.799 69.1922C109.48 67.4758 110.855 66.0593 112.646 65.2311C114.437 64.4028 116.509 64.2251 118.439 64.7341Z" fill="#EBEBEB"/>
<path d="M94.4031 72.1539C97.7666 73.0355 101.782 70.7089 103.627 66.714C104.548 64.819 104.791 62.7095 104.321 60.6826C104.147 59.8124 103.744 58.993 103.146 58.2938C102.549 57.5946 101.775 57.0361 100.89 56.6655C99.1686 56.0071 97.2009 56.2247 95.3255 57.2569C93.4033 58.3725 91.9135 60.0052 91.0643 61.9268C89.1151 66.1505 90.3448 70.6586 93.8067 71.9698C94.0004 72.0441 94.1997 72.1056 94.4031 72.1539ZM99.9925 57.5526C100.143 57.5916 100.291 57.6381 100.435 57.6921C101.142 57.9954 101.757 58.449 102.229 59.0143C102.701 59.5797 103.016 60.24 103.147 60.9393C103.559 62.7357 103.344 64.6039 102.532 66.2844C100.835 69.9389 97.1579 72.0423 94.3109 70.9544C91.464 69.8664 90.5355 66.0166 92.2264 62.3565C92.9733 60.6507 94.289 59.1993 95.9896 58.2054C96.5701 57.85 97.2259 57.6084 97.9152 57.496C98.6044 57.3836 99.3119 57.4029 99.9925 57.5526Z" fill="#EBEBEB"/>
<path d="M108.232 68.4437L109.32 67.936C108.49 66.4742 106.135 64.0304 103.171 65.2523L103.669 66.2621C106.326 65.1686 108.152 68.3377 108.232 68.4437Z" fill="#EBEBEB"/>
<path d="M144.879 84.7313L146.108 84.642C146.065 84.1287 145.598 79.5648 143.249 78.2369C141.054 76.9983 125.343 72.5237 124.679 72.334L124.31 73.3941C128.818 74.6717 140.913 78.2146 142.603 79.1743C144.165 80.0558 144.793 83.4815 144.879 84.7313Z" fill="#EBEBEB"/>
<path d="M135.513 78.2416C135.513 78.2416 144.878 70.888 148.752 74.1463C152.626 77.4047 143.79 89.1661 138.046 89.7352C132.303 90.3043 131.627 85.4837 131.627 85.4837L135.513 78.2416Z" fill="#D3766A"/>
<path d="M146.11 77.4608C146.129 77.4608 146.148 77.4679 146.162 77.4804C146.176 77.493 146.184 77.51 146.184 77.5278C146.184 77.5455 146.176 77.5625 146.162 77.5751C146.148 77.5877 146.129 77.5947 146.11 77.5947C142.051 78.1024 139.248 80.7527 136.997 83.6484C138.436 82.6664 140.115 82.3316 141.609 83.9329C141.683 84.0166 141.553 84.1338 141.455 84.0891C140.035 83.4475 138.879 83.4363 137.557 84.2956C136.65 84.9561 135.825 85.7045 135.097 86.5273C134.839 86.784 134.292 86.4883 134.513 86.1758C134.526 86.1498 134.542 86.1254 134.562 86.1033C135.657 81.8462 140.982 76.7076 146.11 77.4608Z" fill="#263238"/>
<path d="M125.489 126.331C125.489 126.331 142.27 102.418 162.192 100.604L160.028 114.09C160.028 114.09 148.197 113.755 126.75 130.27L125.489 126.331Z" fill="#FFC727"/>
<path d="M165.367 114.486C161.752 113.967 158.118 114.586 154.674 115.457C151.224 116.389 147.903 117.675 144.774 119.29C141.621 120.87 138.587 122.638 135.692 124.585L131.431 127.614L127.317 130.822L126.856 131.185L126.364 130.939C122.729 129.099 119.237 127.035 115.911 124.763C114.229 123.648 112.623 122.44 111.103 121.148C109.568 119.873 108.173 118.466 106.94 116.946C109.781 119.691 113.144 121.862 116.544 123.948C118.254 124.981 120.012 125.951 121.79 126.883C123.567 127.815 125.35 128.758 127.158 129.6L126.211 129.712L130.33 126.392C131.751 125.338 133.202 124.311 134.635 123.29C136.067 122.269 137.654 121.371 139.21 120.5C140.765 119.63 142.364 118.76 144.036 118.045C147.321 116.494 150.811 115.332 154.422 114.586C155.314 114.385 156.236 114.274 157.146 114.134C158.056 113.995 158.991 113.961 159.907 113.95C161.747 113.847 163.594 114.028 165.367 114.486Z" fill="#263238"/>
<path d="M170.6 123.184C168.632 121.879 166.765 120.455 165.01 118.921C163.23 117.412 161.566 115.794 160.03 114.078C162 115.379 163.87 116.801 165.625 118.335C167.401 119.849 169.062 121.469 170.6 123.184Z" fill="#263238"/>
<path d="M133.085 121.567C133.714 127.259 133.801 132.99 133.343 138.696C133.054 142.68 130.004 156.801 125.183 155.903C120.362 155.005 129.174 146.418 131.289 139.02C133.429 131.498 131.707 125.93 131.843 121.405L133.085 121.567Z" fill="#FFC727"/>
<g opacity="0.1">
<path opacity="0.1" d="M133.089 121.566C133.718 127.258 133.805 132.989 133.347 138.695C133.058 142.679 130.008 156.8 125.187 155.902C120.366 155.004 129.178 146.417 131.293 139.019C133.433 131.497 131.711 125.929 131.847 121.404L133.089 121.566Z" fill="black"/>
</g>
<path d="M116.643 122.275C114.487 127.079 112.792 132.043 111.577 137.111C110.697 140.643 109.351 153.637 113.796 153.978C118.242 154.318 113.009 144.811 113.268 137.87C113.52 130.829 116.594 126.365 117.769 122.42L116.643 122.275Z" fill="#FFC727"/>
<g opacity="0.1">
<path opacity="0.1" d="M116.643 122.275C114.487 127.079 112.792 132.043 111.577 137.111C110.697 140.643 109.351 153.637 113.796 153.978C118.242 154.318 113.009 144.811 113.268 137.87C113.52 130.829 116.594 126.365 117.769 122.42L116.643 122.275Z" fill="black"/>
</g>
<path d="M135.102 224.926C122.017 223.101 100.575 196.354 86.986 165.784C84.3973 159.965 134.191 136.436 136.178 142.908C142.499 163.669 154.877 190.824 154.477 207.574C154.151 220.596 144.147 226.192 135.102 224.926Z" fill="#D3766A"/>
<path d="M111.808 120.876C114.98 117.349 115.466 107.485 118.313 101.671C121.16 95.8574 129.504 93.1291 130.974 95.266C132.443 97.4029 130.267 99.5566 129.584 109.109C129.148 115.246 134.331 127.521 132.118 138.68C131.005 144.276 108.598 124.402 111.808 120.876Z" fill="#F7A9A0"/>
<path d="M111.808 120.876C114.98 117.349 115.466 107.485 118.313 101.671C121.16 95.8574 129.504 93.1291 130.974 95.266C132.443 97.4029 130.267 99.5566 129.584 109.109C129.148 115.246 134.331 127.521 132.118 138.68C131.005 144.276 108.598 124.402 111.808 120.876Z" fill="#D3766A"/>
<path opacity="0.06" d="M111.808 120.876C114.98 117.349 115.466 107.485 118.313 101.671C121.16 95.8574 129.504 93.1291 130.974 95.266C132.443 97.4029 130.267 99.5566 129.584 109.109C129.148 115.246 134.331 127.521 132.118 138.68C131.005 144.276 108.598 124.402 111.808 120.876Z" fill="black"/>
<path d="M87.0788 90.8742C82.6331 94.6347 93.7873 103.791 93.7873 103.791C93.7873 103.791 89.7351 102.797 86.2118 104.583C82.1781 106.619 83.9367 113.259 83.9367 113.259C83.9367 113.259 79.6017 113.024 76.0906 115.245C72.4443 117.555 73.1699 124.479 73.1699 124.479C73.1699 124.479 69.0009 126.276 67.4882 130.17C64.8934 136.837 73.0223 144.833 76.9576 150.685C81.182 156.951 86.4823 164.729 89.5199 168.59L137.144 146.607C137.144 146.607 128.984 113.56 122.521 107.903C117.055 103.138 93.8426 85.1218 87.0788 90.8742Z" fill="#D3766A"/>
<path d="M93.9792 103.762C101.112 107.567 107.224 112.912 113.041 118.129C113.068 118.153 113.083 118.187 113.083 118.221C113.083 118.256 113.068 118.289 113.041 118.313C113.014 118.338 112.978 118.351 112.94 118.351C112.901 118.351 112.865 118.338 112.838 118.313C107.101 113.063 99.6793 109.079 93.7271 104.047C93.6855 104.016 93.6589 103.972 93.6532 103.924C93.6474 103.876 93.6629 103.828 93.6964 103.79C93.7298 103.752 93.7784 103.728 93.8314 103.723C93.8845 103.718 93.9376 103.732 93.9792 103.762Z" fill="#263238"/>
<path d="M84.5133 113.017C86.0998 113.921 87.348 115.299 88.6024 116.538C89.9552 117.871 91.2834 119.233 92.5808 120.605C95.1879 123.358 97.7192 126.168 100.175 129.036C100.285 129.164 100.095 129.348 99.9718 129.22C97.3708 126.48 94.7206 123.774 91.9782 121.141C90.6131 119.82 89.2357 118.518 87.8461 117.235C86.561 116.024 85.0852 114.847 84.1137 113.396C84.0862 113.373 84.0642 113.344 84.0489 113.313C84.0336 113.281 84.0252 113.247 84.0244 113.213C84.0235 113.178 84.0301 113.144 84.0439 113.112C84.0576 113.08 84.0782 113.05 84.1045 113.025C84.1307 113.001 84.1621 112.981 84.1968 112.967C84.2316 112.953 84.269 112.945 84.307 112.944C84.345 112.944 84.3827 112.95 84.4181 112.962C84.4535 112.975 84.4859 112.993 84.5133 113.017Z" fill="#263238"/>
<path d="M73.2626 124.59C74.6769 125.326 75.7222 126.821 76.7614 127.937C77.9174 129.217 79.0836 130.489 80.2601 131.753C82.609 134.281 84.9579 136.808 87.4052 139.263C87.5282 139.386 87.3253 139.57 87.2023 139.448C84.7058 136.965 82.1724 134.515 79.7006 132.01C78.4708 130.783 77.2635 129.548 76.0788 128.305C75.0581 127.251 73.65 126.04 73.1212 124.696C73.1149 124.678 73.1145 124.66 73.12 124.643C73.1255 124.625 73.1366 124.61 73.1519 124.599C73.1672 124.587 73.186 124.58 73.2057 124.578C73.2255 124.577 73.2453 124.581 73.2626 124.59Z" fill="#263238"/>
<path d="M92.3762 89.7529C100.462 92.7881 110.153 99.2379 115.834 103.244C117.955 104.736 119.989 106.326 121.928 108.009C123.81 109.722 125.039 111.914 126.232 114.062C127.05 115.519 127.745 117.031 128.434 118.526C127.204 114.62 125.728 110.469 122.666 107.367C120.753 105.595 118.711 103.942 116.554 102.418C110.835 98.4289 104.969 94.3838 98.3161 91.7782L92.3762 89.7529Z" fill="#263238"/>
<path d="M146.423 154.965L99.291 192.531C99.291 192.531 123.936 228.675 135.428 227.966C146.921 227.257 159.409 220.506 158.468 195.438C158.241 189.161 146.423 154.965 146.423 154.965Z" fill="#FFC727"/>
<path d="M154.939 182.715L155.554 183.116C155.468 182.815 155.375 182.514 155.289 182.207C153.106 180.739 150.924 179.266 148.845 177.682C143.6 173.698 138.466 168.409 137.513 162.06L137.045 162.433C137.474 164.789 138.363 167.057 139.671 169.129C143.262 174.859 149.233 178.865 154.939 182.715ZM127.853 176.918C129.251 176.046 130.903 175.568 132.6 175.545C134.297 175.523 135.963 175.955 137.39 176.789C140.347 178.508 142.26 181.548 142.991 184.6C144.055 189.036 143.17 193.589 143.071 198.064C142.905 206.553 145.402 214.91 150.272 222.161C150.106 222.317 149.934 222.468 149.761 222.613C148.517 220.77 147.426 218.845 146.496 216.855C144.697 213.067 143.474 209.075 142.862 204.988C142.217 200.68 142.518 196.457 142.77 192.155C143.01 188.015 142.862 183.68 140.2 180.142C137.857 177.029 133.762 175.121 129.697 176.672C125.633 178.223 123.358 182.157 123.272 186.062C123.026 194.136 129.421 200.915 133.805 207.415C135.896 210.506 137.771 213.775 138.65 217.335C139.474 220.711 139.345 224.221 138.275 227.54C138.262 227.587 138.245 227.633 138.226 227.679L137.568 227.774C138.831 224.059 138.895 220.094 137.753 216.347C135.496 209.094 129.611 203.397 125.854 196.819C123.893 193.366 122.399 189.516 122.669 185.577C122.728 183.866 123.228 182.191 124.128 180.686C125.028 179.182 126.303 177.889 127.853 176.912V176.918ZM114.042 206.304C117.363 206.6 120.277 208.536 120.99 211.577C121.495 213.753 120.904 215.985 119.878 218.032C119.736 217.882 119.582 217.731 119.435 217.58C121.015 214.177 121.279 209.836 117.27 207.738C116.219 207.207 115.054 206.886 113.854 206.798C112.655 206.709 111.448 206.855 110.316 207.225C110.193 207.074 110.076 206.924 109.947 206.773C111.256 206.34 112.655 206.178 114.042 206.299V206.304ZM99.8012 192.127C101.274 192.459 102.811 192.484 104.296 192.2C110.101 191.084 114.479 185.906 113.993 180.806L114.608 180.299C115.561 186.129 110.199 191.96 103.878 192.852C102.353 193.054 100.799 192.953 99.3216 192.557L99.2909 192.506L99.8012 192.127Z" fill="white"/>
<path d="M146.944 170.503C144.638 172.25 142.486 174.18 140.297 176.044C138.108 177.907 135.931 179.799 133.785 181.712C129.497 185.54 125.244 189.395 121.026 193.279C119.876 194.344 118.726 195.41 117.595 196.498C116.464 197.586 115.338 198.958 114.115 200.102C114.1 200.122 114.094 200.145 114.096 200.168C114.099 200.191 114.11 200.213 114.128 200.23C114.146 200.246 114.17 200.256 114.196 200.259C114.221 200.261 114.247 200.255 114.268 200.242C115.338 199.321 116.556 198.534 117.65 197.631C118.745 196.727 119.895 195.734 121.002 194.768C123.166 192.875 125.322 190.974 127.47 189.066C131.774 185.25 136.036 181.406 140.186 177.466C142.529 175.235 144.97 173.048 147.165 170.699C147.194 170.672 147.21 170.636 147.209 170.599C147.208 170.562 147.192 170.526 147.162 170.501C147.133 170.475 147.093 170.46 147.052 170.461C147.012 170.461 146.972 170.477 146.944 170.503Z" fill="#263238"/>
<path d="M141.088 159.222L146.536 155.082L146.271 155.015C148.86 163.875 151.719 172.668 154.4 181.5C155.638 185.32 156.665 189.193 157.475 193.106C158.177 198.199 158.193 203.352 157.524 208.449C158.879 203.386 159.315 198.156 158.815 192.966C157.481 184.402 154.456 176.139 151.639 167.909C150.035 163.473 148.337 159.071 146.499 154.708L146.321 154.853L141.094 159.222H141.088Z" fill="#263238"/>
<path d="M5.95985 171.728C14.0273 181.637 22.4329 193.136 24.4805 205.562C24.4805 205.746 24.173 205.807 24.1238 205.623C23.1962 202.234 22.0044 198.91 20.5574 195.675C15.257 194.352 10.055 193.264 7.26958 188.489C4.42876 183.579 4.80998 177.185 5.33265 171.834C5.36954 171.561 5.79998 171.561 5.95985 171.728Z" fill="#7C1730"/>
<path d="M20.481 195.579C16.8593 188.203 12.2107 180.799 6.30154 174.734C6.29338 174.726 6.28201 174.721 6.2699 174.721C6.25779 174.72 6.24595 174.724 6.23699 174.731C6.22802 174.739 6.22264 174.749 6.22207 174.76C6.22149 174.771 6.22575 174.782 6.23391 174.79C10.1016 179.114 13.047 183.818 15.9185 188.605C13.2437 186.144 10.323 183.94 7.78959 181.351C7.7404 181.296 7.66046 181.351 7.70965 181.424C10.2246 184.158 12.967 187.126 16.2321 189.152C17.1094 190.617 17.9969 192.088 18.8946 193.565C18.6732 193.453 18.4457 193.353 18.2244 193.252C18.1813 193.252 18.1506 193.291 18.1875 193.308C18.4396 193.425 18.6855 193.543 18.9438 193.643C19.3681 194.34 19.7862 195.038 20.2228 195.735C20.3212 195.869 20.561 195.735 20.481 195.579Z" fill="#263238"/>
<path d="M17.7846 193.007C15.6176 191.903 13.5475 190.65 11.5926 189.258C11.5434 189.219 11.4635 189.258 11.5188 189.325C13.4022 190.806 15.4651 192.088 17.6678 193.147C17.7969 193.191 17.883 193.057 17.7846 193.007Z" fill="#263238"/>
<path d="M25.4161 203.714C25.4161 203.865 25.1148 203.859 25.121 203.714C25.0779 199.625 25.121 195.513 25.0472 191.401C23.8912 189.286 21.4132 188.114 19.6853 186.424C18.4461 185.184 17.3671 183.819 16.4694 182.356C14.3934 178.863 13.1234 175.023 12.737 171.069C12.2635 166.695 14.0959 152.25 16.1251 152.752C17.1827 153.009 20.5954 160.167 21.4992 162.527C22.9669 166.429 24.0413 170.444 24.709 174.523C26.3569 184.136 26.2093 194.023 25.4161 203.714Z" fill="#E95A44"/>
<path d="M25.447 186.066C25.201 180.888 23.9159 175.66 22.7168 170.639C21.4194 165.227 19.9006 160.133 16.8322 155.307C16.7769 155.217 16.6293 155.307 16.6847 155.39C18.7297 159.144 20.3133 163.09 21.4071 167.157C21.198 166.862 20.9521 166.599 20.7368 166.309C20.6508 166.203 20.454 166.309 20.5401 166.415C20.8129 166.853 21.1343 167.264 21.4993 167.643C21.5112 167.647 21.5243 167.647 21.5362 167.643C22.5938 171.509 23.3501 175.454 23.9958 179.41L23.8482 179.259C23.8175 179.226 23.7621 179.259 23.7806 179.304C23.8605 179.438 23.9527 179.566 24.0388 179.7C24.3709 181.703 24.6537 183.7 24.9735 185.681C21.0443 182.635 17.6931 179.041 15.7992 174.611C15.7992 174.611 15.75 174.611 15.7623 174.611C17.607 179.203 20.5401 183.282 25.0411 186.071C25.1211 186.629 25.201 187.137 25.2871 187.667C25.2871 187.779 25.4961 187.751 25.4961 187.667C25.4961 187.193 25.4961 186.719 25.447 186.25C25.4648 186.241 25.4797 186.227 25.4901 186.211C25.5004 186.195 25.5059 186.177 25.5059 186.158C25.5059 186.139 25.5004 186.121 25.4901 186.105C25.4797 186.089 25.4648 186.075 25.447 186.066Z" fill="#263238"/>
<path d="M23.5981 178.556C20.5913 174.488 17.7874 170.538 15.6045 166.047C15.6045 165.996 15.4815 166.047 15.5061 166.08C17.3508 170.544 19.9518 175.074 23.4567 178.662C23.5182 178.734 23.6596 178.639 23.5981 178.556Z" fill="#263238"/>
<path d="M19.6032 165.042C18.3734 163.045 17.0452 161.098 15.8769 159.061C15.84 159.006 15.7539 159.061 15.7847 159.112C16.7417 161.238 17.9564 163.261 19.4064 165.143C19.4925 165.243 19.6708 165.154 19.6032 165.042Z" fill="#263238"/>
<path d="M20.0602 165.908V165.945C20.0602 165.945 20.1159 165.908 20.0602 165.908Z" fill="#263238"/>
<path d="M28.4663 191.879C28.5263 194.591 28.8784 197.291 29.5178 199.941C29.4747 200.232 29.4256 200.499 29.3825 200.823C28.4582 197.895 27.9236 194.878 27.7899 191.834C27.7623 191.792 27.7478 191.744 27.7478 191.695C27.7478 191.646 27.7623 191.598 27.7899 191.556C27.6562 187.474 27.9859 183.39 28.7738 179.37C30.1696 171.855 33.2194 164.635 38.9995 159C39.047 158.967 39.1017 158.944 39.1598 158.933C39.2178 158.921 39.278 158.921 39.3361 158.932C39.3943 158.943 39.4492 158.965 39.4972 158.997C39.5452 159.029 39.5851 159.07 39.6144 159.117C41.9448 164.501 41.1332 170.923 39.1471 176.29C38.0659 179.196 36.5204 181.943 34.5599 184.442C32.6046 186.975 30.0774 189.112 28.4663 191.879Z" fill="#F0B848"/>
<path d="M38.3163 161.518C32.8376 169.585 29.0252 179.149 28.564 188.678C28.564 188.846 28.8653 188.89 28.8899 188.717C29.019 187.864 29.1666 187.016 29.3142 186.173C31.5832 184.204 33.9075 182.128 35.5308 179.662C35.5308 179.623 35.4878 179.567 35.4509 179.612C33.5679 181.703 31.5517 183.693 29.4126 185.57C29.8225 183.465 30.2919 181.392 30.8207 179.349C30.9683 179.193 31.1097 179.037 31.2573 178.886C31.4048 178.736 31.1896 178.635 31.0913 178.741L30.9621 178.87C31.7318 176.069 32.6887 173.313 33.8275 170.618C35.2172 169.111 36.779 167.828 37.7936 165.987C37.7977 165.978 37.7982 165.968 37.7949 165.959C37.7916 165.95 37.7848 165.942 37.7757 165.938C37.7667 165.933 37.756 165.931 37.7457 165.933C37.7354 165.935 37.7262 165.94 37.7198 165.948C36.902 166.991 36.1149 168.034 35.1865 169C34.8175 169.385 34.4117 169.742 34.0305 170.115C35.2903 167.191 36.7865 164.354 38.5069 161.629C38.5111 161.608 38.5082 161.585 38.4986 161.565C38.4889 161.545 38.4729 161.528 38.4525 161.516C38.4321 161.504 38.4083 161.498 38.3841 161.498C38.3599 161.498 38.3363 161.505 38.3163 161.518Z" fill="#263238"/>
<path d="M37.2097 171.47C35.4388 173.63 33.422 175.694 31.774 177.931C31.7248 177.993 31.8294 178.06 31.8909 178.009C34.0061 176.207 35.7955 173.752 37.3266 171.532C37.3758 171.465 37.2774 171.403 37.2097 171.47Z" fill="#263238"/>
<path d="M31.5285 178.427L31.455 178.499C31.3999 178.543 31.455 178.615 31.5346 178.571L31.6081 178.505C31.6633 178.455 31.5775 178.383 31.5285 178.427Z" fill="#263238"/>
<path d="M46.9004 177.028C46.4577 181.179 44.0534 186.134 41.1204 189.331C39.8297 190.723 38.2314 191.854 36.4287 192.651C34.3996 193.566 32.272 194.615 30.1753 195.362C29.1751 197.667 28.4335 200.058 27.9616 202.498L27.7587 201.868C29.1053 191.362 36.6009 182.379 46.2056 176.615C46.2799 176.575 46.3653 176.554 46.452 176.556C46.5387 176.557 46.6232 176.581 46.6958 176.624C46.7683 176.667 46.826 176.728 46.8622 176.799C46.8984 176.871 46.9116 176.95 46.9004 177.028Z" fill="#FFC727"/>
<path d="M43.5879 180.131C43.6556 180.075 43.5879 179.969 43.4896 180.019C38.2221 183.572 34.0229 188.268 31.2777 193.677C31.2101 193.817 31.4253 193.945 31.5175 193.8C31.9602 193.092 32.4153 192.405 32.8764 191.725C35.0655 191.351 37.1377 189.95 38.761 188.622C38.804 188.589 38.761 188.533 38.6995 188.567C37.8611 189.258 36.9292 189.851 35.9263 190.33C35.0347 190.743 34.0816 190.999 33.147 191.328C33.9669 190.164 34.8134 189.048 35.6865 187.981C38.0486 187.167 40.264 186.039 42.2598 184.633C42.2681 184.63 42.2757 184.626 42.2819 184.62C42.2881 184.614 42.2929 184.607 42.2958 184.599C42.2988 184.592 42.2999 184.584 42.299 184.576C42.2981 184.568 42.2953 184.56 42.2908 184.553C42.2863 184.546 42.2801 184.54 42.2728 184.535C42.2654 184.531 42.257 184.527 42.2482 184.526C42.2394 184.525 42.2304 184.525 42.2218 184.527C42.2131 184.529 42.2051 184.533 42.1983 184.538C40.2212 185.625 38.1809 186.614 36.0862 187.501C37.4211 185.904 38.8584 184.38 40.3905 182.937C41.1345 182.58 41.8908 182.223 42.6103 181.821C42.6223 181.814 42.631 181.803 42.635 181.79C42.639 181.778 42.638 181.764 42.6321 181.752C42.6262 181.74 42.6159 181.73 42.6029 181.725C42.5899 181.719 42.5751 181.718 42.5611 181.721C41.9625 181.912 41.3908 182.167 40.8578 182.48C41.7433 181.682 42.6349 180.895 43.5879 180.131Z" fill="#263238"/>
<path d="M43.384 183.757C43.2547 183.828 43.1313 183.908 43.015 183.996C42.9782 183.996 43.0151 184.068 43.0642 184.052C43.1902 183.987 43.3114 183.914 43.427 183.835C43.5131 183.835 43.427 183.718 43.384 183.757Z" fill="#263238"/>
<path d="M12.7991 225.257H39.0674L36.946 203.553L36.4787 198.766H15.3816L14.9205 203.553L12.7991 225.257Z" fill="#455A64"/>
<path d="M14.9198 203.553H36.9453L36.478 198.766H15.381L14.9198 203.553Z" fill="#263238"/>
<path d="M14.1256 195.417H37.7314V200.154H14.1256V195.417Z" fill="#455A64"/>
<path d="M64.3743 55.3279C64.2661 56.4798 64.5365 57.6349 65.1515 58.6474C65.7666 59.6598 66.6985 60.4841 67.8297 61.0161C68.9608 61.5481 70.2404 61.7639 71.5067 61.6363C72.773 61.5086 73.9691 61.0433 74.944 60.299C75.9189 59.5547 76.6288 58.5648 76.9839 57.4546C77.339 56.3443 77.3234 55.1635 76.9392 54.0612C76.5549 52.959 75.8192 51.9849 74.825 51.2619C73.8308 50.539 72.6227 50.0997 71.3534 49.9995C70.5094 49.9329 69.6593 50.018 68.8516 50.2498C68.0439 50.4817 67.2945 50.8557 66.6462 51.3506C65.998 51.8455 65.4637 52.4516 65.0739 53.134C64.684 53.8165 64.4463 54.562 64.3743 55.3279Z" fill="white"/>
<path d="M64.3741 55.3267C63.8207 60.5267 70.6399 63.8185 75.1163 60.4876C75.7947 59.9758 76.3544 59.347 76.7632 58.6376C77.1719 57.9282 77.4216 57.1523 77.4976 56.3547C77.5737 55.5572 77.4747 54.7539 77.2063 53.9913C76.9379 53.2287 76.5055 52.522 75.9341 51.9121C72.1586 47.9284 64.8107 50.1099 64.3741 55.3267ZM64.3741 55.3267C64.8722 50.2327 72.0049 48.2576 75.5283 52.219C76.554 53.3687 77.0495 54.8341 76.9108 56.3079C76.7721 57.7818 76.01 59.1497 74.7842 60.125C70.5661 63.4726 63.9068 60.4151 64.3802 55.3267H64.3741Z" fill="#263238"/>
<path d="M81.4568 61.3971C81.3962 62.038 81.5463 62.6808 81.8883 63.2443C82.2303 63.8078 82.7488 64.2666 83.3781 64.5627C84.0074 64.8589 84.7194 64.9791 85.424 64.9081C86.1286 64.8371 86.7942 64.5782 87.3366 64.164C87.8791 63.7498 88.274 63.199 88.4714 62.5812C88.6689 61.9634 88.66 61.3063 88.446 60.693C88.2319 60.0798 87.8223 59.5379 87.2688 59.1359C86.7154 58.7339 86.043 58.4898 85.3367 58.4345C84.3895 58.3618 83.4492 58.6328 82.7219 59.1881C81.9946 59.7435 81.5396 60.5379 81.4568 61.3971Z" fill="white"/>
<path d="M81.4557 61.3987C81.405 61.9593 81.5084 62.5226 81.7568 63.038C82.0051 63.5534 82.3906 64.0048 82.8786 64.3517C83.3666 64.6986 83.9419 64.9301 84.5529 65.0255C85.1639 65.1209 85.7914 65.0772 86.3791 64.8982C86.9669 64.7193 87.4964 64.4108 87.9203 64.0003C88.3442 63.5899 88.6492 63.0903 88.8079 62.5466C88.9666 62.0028 88.974 61.4318 88.8294 60.8848C88.6849 60.3377 88.393 59.8319 87.9798 59.4125C87.4904 58.9226 86.8546 58.5724 86.1498 58.4046C85.4449 58.2368 84.7015 58.2586 84.0101 58.4673C83.3187 58.676 82.7091 59.0627 82.2556 59.5802C81.802 60.0977 81.5241 60.7237 81.4557 61.382V61.3987ZM81.4557 61.3987C81.9969 57.2867 88.5517 57.8335 88.2934 61.9566C87.7707 66.0407 81.2098 65.5553 81.4557 61.3987Z" fill="#263238"/>
<path d="M8.07986 30.2478C7.68304 33.219 8.1534 36.2327 9.44386 38.987C10.7343 41.7414 12.7996 44.1398 15.4329 45.9422C18.0662 47.7445 21.1751 48.8875 24.4483 49.2568C27.7216 49.626 31.0443 49.2086 34.0838 48.0461C35.5615 49.7976 37.4649 51.2158 39.6457 52.1903C41.8265 53.1648 44.2258 53.6693 46.6567 53.6644C49.0876 53.6596 51.4845 53.1455 53.6605 52.1623C55.8366 51.1791 57.7331 49.7533 59.2023 47.9959C59.8906 48.1869 60.5965 48.3214 61.3114 48.3977C63.7692 48.6692 66.2611 48.2885 68.4855 47.3017C70.7099 46.3148 72.5713 44.7641 73.8445 42.8372C75.1178 40.9103 75.7482 38.6899 75.6595 36.4447C75.5708 34.1994 74.7668 32.0257 73.3449 30.1864C76.1246 26.9848 77.5508 22.9868 77.3659 18.9144C77.1809 14.8421 75.3971 10.9641 72.3365 7.98081C69.2759 4.99757 65.1405 3.10584 60.6772 2.64735C56.2139 2.18887 51.717 3.19386 47.9989 5.48078C46.2568 3.50458 43.969 1.98229 41.3682 1.06874C38.7673 0.155194 35.9462 -0.117025 33.1918 0.279779C30.4374 0.676583 27.8479 1.72825 25.6868 3.32782C23.5257 4.92738 21.87 7.01777 20.8881 9.38637C20.2317 9.18348 19.5537 9.04324 18.8651 8.96791C16.7707 8.73538 14.6479 9.09041 12.7825 9.98525C10.917 10.8801 9.39833 12.2718 8.43064 13.9733C7.46295 15.6747 7.09269 17.6042 7.36966 19.5023C7.64664 21.4004 8.55754 23.176 9.97989 24.5903C8.98147 26.3588 8.33809 28.2746 8.07986 30.2478Z" fill="white"/>
<path d="M8.0818 30.2483C7.68349 33.2265 8.15308 36.2474 9.44366 39.0094C10.7342 41.7714 12.8007 44.178 15.4367 45.9888C18.0727 47.7996 21.1861 48.9514 24.466 49.3291C27.746 49.7069 31.0778 49.2974 34.1288 48.1415L33.9996 48.108C35.4875 49.8787 37.4057 51.3138 39.6049 52.3017C41.8041 53.2895 44.2249 53.8035 46.6788 53.8035C49.1327 53.8035 51.5535 53.2895 53.7527 52.3017C55.9518 51.3138 57.87 49.8787 59.3579 48.108L59.1488 48.1694C60.109 48.4375 61.1029 48.5931 62.1065 48.6325C72.9409 49.2406 79.7847 38.1153 73.5558 30.0419V30.3431C82.8407 19.7813 75.4805 3.91905 60.6984 2.44608C56.1854 1.98827 51.6411 3.01367 47.8901 5.33622L48.1422 5.37527C40.4622 -3.32303 25.096 -1.08569 20.7978 9.35339L20.9147 9.30318C20.103 9.05083 19.2566 8.90248 18.3997 8.86241C16.3276 8.72285 14.257 9.15081 12.4559 10.0909C10.6549 11.031 9.20619 12.44 8.29742 14.1355C7.38864 15.8309 7.0616 17.7349 7.35861 19.6009C7.65563 21.4669 8.56303 23.2091 9.96338 24.6019C8.95883 26.3634 8.31901 28.2773 8.07567 30.2483H8.0818ZM8.0818 30.2483C8.34638 28.2724 8.99599 26.3548 10.0003 24.5852C8.48457 23.0504 7.57158 21.1035 7.40388 19.0483C7.23617 16.9931 7.82319 14.9453 9.07328 13.2248C10.3234 11.5042 12.1661 10.2077 14.3139 9.53758C16.4617 8.8675 18.7936 8.86159 20.9454 9.52078C25.1697 -0.762084 40.3269 -3.00501 47.8594 5.61519L47.9639 5.73793L48.1115 5.64866C51.788 3.38226 56.2405 2.39202 60.6553 2.85896C75.0193 4.3654 82.0352 19.7367 73.1254 30.0363L72.9963 30.1869L73.1131 30.3376C79.1391 38.0874 72.572 48.8166 62.1311 48.2754C61.1123 48.2372 60.1034 48.0778 59.1304 47.8011C57.6882 49.5631 55.8154 50.9976 53.6591 51.9919C51.5028 52.9862 49.1218 53.5133 46.7031 53.5317C44.2845 53.5501 41.894 53.0593 39.7197 52.0979C37.5453 51.1365 35.6463 49.7306 34.1718 47.9908L34.1165 47.9295L34.0427 47.9629C31.0138 49.1214 27.703 49.5388 24.4408 49.1733C21.1787 48.8078 18.0792 47.6722 15.4519 45.88C12.8245 44.0878 10.7613 41.7016 9.46802 38.9596C8.17477 36.2177 7.69679 33.2159 8.0818 30.2539V30.2483Z" fill="#263238"/>
<path d="M42.1578 29.3099L42.004 31.67C41.9966 31.9051 41.9364 32.1364 41.827 32.3497C41.7177 32.563 41.5616 32.7538 41.3682 32.9105C41.1748 33.0672 40.9482 33.1864 40.7023 33.2609C40.4564 33.3354 40.1963 33.3636 39.938 33.3438C39.4197 33.3164 38.9345 33.1038 38.5887 32.7524C38.2429 32.401 38.0648 31.9395 38.0933 31.4691L38.327 27.6974C38.327 27.6584 38.37 27.664 38.3762 27.6249C38.3823 27.5858 38.3147 27.6082 38.3147 27.5524C38.357 27.0863 38.5949 26.6527 38.9794 26.3412C39.3639 26.0297 39.8655 25.8641 40.3807 25.8785C40.9795 25.926 41.5828 25.8638 42.1546 25.6956C42.7265 25.5275 43.2553 25.2569 43.7097 24.8998C44.1641 24.5427 44.5348 24.1064 44.7999 23.6169C45.0649 23.1273 45.2189 22.5944 45.2527 22.0499C45.2865 21.5053 45.1993 20.9601 44.9965 20.4466C44.7937 19.9332 44.4792 19.4619 44.0719 19.0608C43.6645 18.6597 43.1725 18.337 42.625 18.1117C42.0776 17.8864 41.4858 17.7632 40.8849 17.7493C40.1086 17.7077 39.3338 17.8523 38.6387 18.1687C37.9435 18.485 37.3525 18.962 36.925 19.5515C36.7898 19.7594 36.6095 19.9403 36.3951 20.0832C36.1806 20.2261 35.9365 20.328 35.6774 20.3829C35.4183 20.4377 35.1496 20.4443 34.8876 20.4023C34.6257 20.3602 34.3758 20.2704 34.1531 20.1382C33.9305 20.0061 33.7397 19.8343 33.5923 19.6333C33.4449 19.4324 33.3439 19.2064 33.2955 18.969C33.2471 18.7316 33.2523 18.4878 33.3107 18.2522C33.3691 18.0167 33.4795 17.7944 33.6353 17.5987C34.4013 16.541 35.4449 15.6727 36.6724 15.0716C37.8998 14.4706 39.2726 14.1557 40.6674 14.1553C42.0622 14.1549 43.4352 14.4689 44.6631 15.0692C45.891 15.6696 46.9352 16.5373 47.702 17.5945C48.4687 18.6517 48.934 19.8652 49.0559 21.126C49.1778 22.3867 48.9525 23.6552 48.4003 24.8174C47.8482 25.9796 46.9864 26.999 45.8925 27.7842C44.7985 28.5693 43.5067 29.0955 42.1332 29.3155L42.1578 29.3099ZM41.6659 37.255L41.6228 37.9078C41.6145 38.1426 41.5537 38.3736 41.4441 38.5865C41.3344 38.7994 41.1783 38.9899 40.9851 39.1464C40.7919 39.3029 40.5657 39.4222 40.3201 39.497C40.0746 39.5718 39.8149 39.6006 39.5567 39.5816C39.0385 39.5514 38.5542 39.3371 38.2089 38.9851C37.8636 38.6332 37.6851 38.1719 37.7121 37.7013L37.7551 37.0485C37.7915 36.5803 38.0277 36.1435 38.4135 35.8309C38.7994 35.5183 39.3044 35.3546 39.8212 35.3747C40.0795 35.3853 40.3328 35.4427 40.5663 35.5435C40.7997 35.6444 41.0086 35.7866 41.1805 35.9618C41.3524 36.1371 41.484 36.3418 41.5673 36.5639C41.6507 36.786 41.6842 37.0209 41.6659 37.255Z" fill="#FFC727"/>
</svg>
