<svg width="33" height="37" viewBox="0 0 33 37" fill="none" xmlns="http://www.w3.org/2000/svg">
<path fill-rule="evenodd" clip-rule="evenodd" d="M32.375 10.4062V32.375C32.375 33.6016 31.8877 34.778 31.0204 35.6454C30.153 36.5127 28.9766 37 27.75 37V34.6875C28.3633 34.6875 28.9515 34.4439 29.3852 34.0102C29.8189 33.5765 30.0625 32.9883 30.0625 32.375V10.4062H25.4375C24.5175 10.4062 23.6352 10.0408 22.9847 9.39028C22.3342 8.73976 21.9688 7.85747 21.9688 6.9375V2.3125H9.25C8.63669 2.3125 8.04849 2.55614 7.61482 2.98982C7.18114 3.42349 6.9375 4.01169 6.9375 4.625V25.4375H4.625V4.625C4.625 3.39837 5.11228 2.22199 5.97963 1.35463C6.84699 0.487275 8.02337 0 9.25 0L21.9688 0L32.375 10.4062ZM14.2473 31.6026V32.8097C14.2473 33.4017 14.1571 33.8966 13.9768 34.2921C13.8232 34.6579 13.564 34.9695 13.2321 35.187C12.9052 35.3843 12.5293 35.4853 12.1476 35.4784C11.7643 35.4854 11.3869 35.3844 11.0584 35.187C10.7293 34.9687 10.4719 34.6582 10.3184 34.2944C10.1239 33.8243 10.0316 33.3182 10.0478 32.8097V31.6026C10.0478 31.0083 10.1403 30.5134 10.3184 30.1203C10.4715 29.7556 10.7289 29.4443 11.0584 29.2254C11.3854 29.0238 11.7634 28.9202 12.1476 28.9271C12.5546 28.9271 12.9153 29.0265 13.2321 29.2277C13.5636 29.4445 13.8229 29.7553 13.9768 30.1203C14.1571 30.5134 14.2473 31.0083 14.2473 31.6026ZM16.1042 32.8028V31.6165C16.1042 30.7447 15.947 29.9977 15.6302 29.3687C15.3332 28.757 14.8585 28.2493 14.2681 27.9119C13.6807 27.5719 12.9731 27.4031 12.1476 27.4031C11.3266 27.4031 10.6167 27.5719 10.0201 27.9119C9.429 28.2452 8.9538 28.7511 8.658 29.3618C8.3435 29.9885 8.18394 30.7401 8.18394 31.6165V32.8028C8.18394 33.67 8.3435 34.4216 8.658 35.0529C8.97481 35.6796 9.42806 36.1629 10.0224 36.5028C10.6167 36.8358 11.3266 37.0023 12.1499 37.0023C12.9754 37.0023 13.6807 36.8358 14.2681 36.5028C14.8601 36.1629 15.3134 35.6796 15.6325 35.0529C15.947 34.4193 16.1042 33.67 16.1042 32.8028ZM0 27.5789V36.8289H3.37394C4.30356 36.8289 5.07363 36.6439 5.68412 36.2785C6.30192 35.9089 6.78435 35.3502 7.06006 34.6852C7.36069 33.9914 7.51331 33.1543 7.51331 32.1784C7.51331 31.2072 7.363 30.3793 7.06006 29.6925C6.787 29.0348 6.30835 28.4831 5.69569 28.12C5.0875 27.7592 4.31281 27.5789 3.37394 27.5789H0ZM1.82919 29.0704H3.13112C3.70462 29.0704 4.17175 29.1861 4.53944 29.4219C4.92109 29.6715 5.20903 30.0408 5.35806 30.4718C5.54075 30.9366 5.63094 31.5171 5.63094 32.2131C5.63811 32.6743 5.58525 33.1345 5.47369 33.5821C5.39124 33.9351 5.23695 34.2673 5.02044 34.558C4.81923 34.8173 4.55266 35.0185 4.24806 35.1408C3.89116 35.2743 3.5121 35.3386 3.13112 35.3304H1.82688V29.0681L1.82919 29.0704ZM18.9926 30.1874C18.8227 30.6562 18.742 31.1527 18.7544 31.6512V32.7959C18.7544 33.3647 18.833 33.8481 18.9926 34.2458C19.1254 34.6113 19.3656 34.9281 19.6817 35.1546C20.0116 35.3638 20.3966 35.4693 20.7871 35.4576C21.108 35.4649 21.426 35.3951 21.7144 35.2541C21.9724 35.1229 22.1904 34.9248 22.3457 34.6806C22.5026 34.426 22.5954 34.1371 22.6162 33.8388H24.3853V34.0146C24.3633 34.5733 24.1819 35.1141 23.8627 35.5732C23.5459 36.0218 23.1227 36.371 22.5908 36.6231C22.021 36.884 21.3998 37.0136 20.7732 37.0023C19.9407 37.0023 19.2377 36.8358 18.6596 36.5028C18.0824 36.1648 17.6218 35.6591 17.3391 35.0529C17.0385 34.4239 16.8905 33.6723 16.8905 32.7959V31.6443C16.8905 30.7678 17.0431 30.0139 17.3461 29.3826C17.6467 28.749 18.0884 28.2611 18.6665 27.9188C19.2492 27.5742 19.9522 27.4031 20.7732 27.4031C21.2796 27.4031 21.7467 27.4771 22.1769 27.6274C22.6093 27.7708 22.9863 27.9812 23.3077 28.2564C23.6324 28.5327 23.896 28.8736 24.0815 29.2575C24.2671 29.6413 24.3705 30.0596 24.3853 30.4857V30.6545H22.6162C22.5947 30.3437 22.4996 30.0425 22.3387 29.7758C22.1876 29.5205 21.9692 29.3117 21.7074 29.1722C21.4252 29.019 21.1081 28.9417 20.7871 28.9479C20.3967 28.9377 20.0128 29.0493 19.6886 29.267C19.3715 29.499 19.1295 29.8191 18.9926 30.1874Z" fill="#5F97FF"/>
</svg>
