<svg width="17" height="19" viewBox="0 0 17 19" fill="none" xmlns="http://www.w3.org/2000/svg">
<path fill-rule="evenodd" clip-rule="evenodd" d="M16.625 5.34375V16.625C16.625 17.2549 16.3748 17.859 15.9294 18.3044C15.484 18.7498 14.8799 19 14.25 19V17.8125C14.5649 17.8125 14.867 17.6874 15.0897 17.4647C15.3124 17.242 15.4375 16.9399 15.4375 16.625V5.34375H13.0625C12.5901 5.34375 12.137 5.15608 11.803 4.82203C11.4689 4.48799 11.2812 4.03492 11.2812 3.5625V1.1875H4.75C4.43506 1.1875 4.13301 1.31261 3.91031 1.53531C3.68761 1.75801 3.5625 2.06006 3.5625 2.375V13.0625H2.375V2.375C2.375 1.74511 2.62522 1.14102 3.07062 0.695621C3.51602 0.250223 4.12011 0 4.75 0L11.2812 0L16.625 5.34375ZM7.31619 16.2284V16.8482C7.31619 17.1523 7.26988 17.4064 7.17725 17.6094C7.09842 17.7973 6.96527 17.9573 6.79488 18.069C6.62701 18.1703 6.43397 18.2222 6.23794 18.2186C6.04115 18.2222 5.84733 18.1704 5.67863 18.069C5.50963 17.9569 5.37744 17.7975 5.29862 17.6106C5.19874 17.3692 5.15137 17.1094 5.15969 16.8482V16.2284C5.15969 15.9232 5.20719 15.6691 5.29862 15.4672C5.37724 15.2799 5.50945 15.12 5.67863 15.0076C5.84656 14.9041 6.04068 14.8509 6.23794 14.8544C6.44694 14.8544 6.63219 14.9055 6.79488 15.0088C6.96509 15.1202 7.09822 15.2798 7.17725 15.4672C7.26988 15.6691 7.31619 15.9232 7.31619 16.2284ZM8.26975 16.8447V16.2355C8.26975 15.7878 8.189 15.4043 8.02631 15.0813C7.87382 14.7671 7.63004 14.5064 7.32688 14.3331C7.02525 14.1586 6.66187 14.0719 6.23794 14.0719C5.81637 14.0719 5.45181 14.1586 5.14544 14.3331C4.84192 14.5043 4.5979 14.7641 4.446 15.0777C4.2845 15.3995 4.20256 15.7854 4.20256 16.2355V16.8447C4.20256 17.29 4.2845 17.6759 4.446 18.0001C4.60869 18.3219 4.84144 18.5701 5.14663 18.7447C5.45181 18.9157 5.81638 19.0012 6.23913 19.0012C6.66306 19.0012 7.02525 18.9157 7.32688 18.7447C7.63088 18.5701 7.86363 18.3219 8.0275 18.0001C8.189 17.6747 8.26975 17.29 8.26975 16.8447ZM0 14.1621V18.9121H1.73256C2.20994 18.9121 2.60538 18.8171 2.91887 18.6295C3.23612 18.4397 3.48386 18.1528 3.62544 17.8113C3.77981 17.4551 3.85819 17.0252 3.85819 16.5241C3.85819 16.0253 3.781 15.6002 3.62544 15.2475C3.48522 14.9097 3.23942 14.6264 2.92481 14.44C2.6125 14.2548 2.21469 14.1621 1.73256 14.1621H0ZM0.939313 14.9281H1.60787C1.90237 14.9281 2.14225 14.9874 2.33106 15.1086C2.52705 15.2367 2.67491 15.4264 2.75144 15.6477C2.84525 15.8864 2.89156 16.1844 2.89156 16.5419C2.89524 16.7787 2.8681 17.015 2.81081 17.2449C2.76847 17.4261 2.68924 17.5967 2.57806 17.746C2.47474 17.8792 2.33785 17.9825 2.18144 18.0452C1.99816 18.1138 1.80351 18.1469 1.60787 18.1426H0.938125V14.9269L0.939313 14.9281ZM9.75294 15.5016C9.66573 15.7424 9.62425 15.9973 9.63062 16.2533V16.8411C9.63062 17.1332 9.671 17.3814 9.75294 17.5857C9.82115 17.7734 9.9445 17.936 10.1068 18.0524C10.2762 18.1598 10.4739 18.214 10.6744 18.2079C10.8392 18.2117 11.0025 18.1758 11.1506 18.1034C11.2831 18.0361 11.3951 17.9344 11.4748 17.8089C11.5554 17.6782 11.6031 17.5299 11.6137 17.3767H12.5222V17.4669C12.5109 17.7539 12.4178 18.0316 12.2538 18.2673C12.0911 18.4977 11.8738 18.677 11.6007 18.8064C11.3081 18.9404 10.9891 19.007 10.6673 19.0012C10.2398 19.0012 9.87881 18.9157 9.58194 18.7447C9.28555 18.5711 9.04903 18.3114 8.90388 18.0001C8.7495 17.6771 8.6735 17.2912 8.6735 16.8411V16.2498C8.6735 15.7997 8.75187 15.4126 8.90744 15.0884C9.06181 14.763 9.28862 14.5124 9.5855 14.3367C9.88475 14.1597 10.2457 14.0719 10.6673 14.0719C10.9274 14.0719 11.1673 14.1099 11.3881 14.1871C11.6102 14.2607 11.8038 14.3687 11.9688 14.5101C12.1356 14.6519 12.2709 14.827 12.3662 15.0241C12.4615 15.2212 12.5146 15.436 12.5222 15.6548V15.7415H11.6137C11.6027 15.5819 11.5538 15.4272 11.4712 15.2903C11.3936 15.1592 11.2815 15.052 11.1471 14.9803C11.0021 14.9017 10.8393 14.862 10.6744 14.8651C10.474 14.8599 10.2768 14.9172 10.1104 15.029C9.94754 15.1482 9.82325 15.3125 9.75294 15.5016Z" fill="#5F97FF"/>
</svg>
