<svg width="17" height="19" viewBox="0 0 17 19" fill="none" xmlns="http://www.w3.org/2000/svg">
<path fill-rule="evenodd" clip-rule="evenodd" d="M15.625 5.34375V13.0625H14.4375V5.34375H12.0625C11.5901 5.34375 11.137 5.15608 10.803 4.82203C10.4689 4.48799 10.2812 4.03492 10.2812 3.5625V1.1875H3.75C3.43506 1.1875 3.13301 1.31261 2.91031 1.53531C2.68761 1.75801 2.5625 2.06006 2.5625 2.375V13.0625H1.375V2.375C1.375 1.74511 1.62522 1.14102 2.07062 0.695621C2.51602 0.250223 3.12011 0 3.75 0L10.2812 0L15.625 5.34375ZM7.50369 16.8482V16.2284C7.5122 15.9676 7.46482 15.7081 7.36475 15.4672C7.28592 15.2793 7.15277 15.1193 6.98238 15.0076C6.81528 14.9042 6.62194 14.851 6.42544 14.8544C6.22806 14.8513 6.03393 14.9049 5.86613 15.0088C5.69713 15.1209 5.56494 15.2803 5.48612 15.4672C5.38605 15.7081 5.33868 15.9676 5.34719 16.2284V16.8482C5.34719 17.1523 5.39469 17.4064 5.48612 17.6094C5.56474 17.7967 5.69695 17.9566 5.86613 18.069C6.03483 18.1704 6.22865 18.2222 6.42544 18.2186C6.62147 18.2222 6.81451 18.1703 6.98238 18.069C7.15259 17.9576 7.28572 17.798 7.36475 17.6106C7.46464 17.3692 7.512 17.1094 7.50369 16.8482ZM8.45725 16.2355V16.8447C8.45725 17.29 8.3765 17.6759 8.21381 18.0001C8.06013 18.3125 7.81655 18.5718 7.51438 18.7447C7.21275 18.9157 6.84937 19.0012 6.42544 19.0012C6.04526 19.0112 5.66895 18.9228 5.33294 18.7447C5.03044 18.5722 4.78676 18.3128 4.6335 18.0001C4.46322 17.6393 4.37985 17.2436 4.39006 16.8447V16.2355C4.39006 15.7854 4.472 15.3995 4.6335 15.0777C4.79619 14.7523 5.02894 14.5041 5.33413 14.3331C5.63931 14.1586 6.00388 14.0719 6.42663 14.0719C6.85056 14.0719 7.21275 14.1586 7.51438 14.3331C7.81838 14.5065 8.05113 14.7559 8.215 15.0813C8.3765 15.4031 8.45725 15.7878 8.45725 16.2355ZM0.1875 18.9109V14.1621H1.92006C2.40219 14.1621 2.8 14.2548 3.1135 14.4412C3.427 14.6264 3.65975 14.8948 3.81294 15.2487C3.96731 15.6002 4.04569 16.0265 4.04569 16.5241C4.04569 17.0252 3.9685 17.4551 3.81294 17.8113C3.65737 18.1687 3.42106 18.4407 3.10637 18.6295C2.79288 18.8171 2.39744 18.9109 1.92006 18.9109H0.1875ZM1.79538 14.9281H1.12562V18.1426H1.79419C2.01387 18.1426 2.20506 18.1094 2.36775 18.0452C2.52416 17.9825 2.66105 17.8792 2.76438 17.746C2.86888 17.6106 2.94606 17.4444 2.99712 17.2449C3.05441 17.015 3.08156 16.7787 3.07788 16.5419C3.07788 16.1856 3.03038 15.8864 2.93775 15.6477C2.86122 15.4264 2.71336 15.2367 2.51737 15.1086C2.32975 14.9874 2.08869 14.9281 1.793 14.9281H1.79538ZM9.81812 16.2533C9.81812 15.9588 9.8585 15.7071 9.94044 15.5016C10.0108 15.3125 10.135 15.1482 10.2979 15.029C10.4643 14.9172 10.6615 14.8599 10.8619 14.8651C11.0401 14.8651 11.198 14.9031 11.3346 14.9803C11.4688 15.0516 11.581 15.1584 11.6587 15.2891C11.7415 15.4264 11.7904 15.5815 11.8012 15.7415H12.7097V15.6548C12.7018 15.4361 12.6485 15.2214 12.5533 15.0243C12.458 14.8272 12.3228 14.6521 12.1563 14.5101C11.9854 14.3653 11.7877 14.2556 11.5744 14.1871C11.3427 14.1086 11.0995 14.0696 10.8548 14.0719C10.4332 14.0719 10.0711 14.1597 9.773 14.3367C9.47612 14.5124 9.2505 14.763 9.09494 15.0884C8.93938 15.4126 8.861 15.8009 8.861 16.2498V16.8411C8.861 17.2912 8.93819 17.6771 9.09138 18.0001C9.24575 18.3219 9.47256 18.5701 9.76944 18.7447C10.0663 18.9157 10.4285 19.0012 10.8548 19.0012C11.2028 19.0012 11.5139 18.9371 11.787 18.8064C12.0601 18.6758 12.2786 18.4977 12.4413 18.2673C12.6051 18.0315 12.6982 17.7538 12.7097 17.4669V17.3767H11.8012C11.7906 17.5299 11.7429 17.6782 11.6623 17.8089C11.5826 17.9344 11.4706 18.0361 11.3381 18.1034C11.1899 18.1756 11.0267 18.2114 10.8619 18.2079C10.6614 18.214 10.4637 18.1598 10.2943 18.0524C10.132 17.936 10.0086 17.7734 9.94044 17.5857C9.85324 17.3474 9.81174 17.0948 9.81812 16.8411V16.2533ZM15.8649 14.1633H16.9265L15.4124 16.5454L16.9016 18.9109H15.8233L14.8139 17.2306H14.7724L13.7606 18.9109H12.737L14.2095 16.5181L12.7513 14.1621H13.858L14.846 15.8709H14.8876L15.8649 14.1621V14.1633Z" fill="#2762CD"/>
</svg>
