<svg width="33" height="37" viewBox="0 0 33 37" fill="none" xmlns="http://www.w3.org/2000/svg">
<path fill-rule="evenodd" clip-rule="evenodd" d="M30.375 10.4062V25.4375H28.0625V10.4062H23.4375C22.5175 10.4062 21.6352 10.0408 20.9847 9.39028C20.3342 8.73976 19.9688 7.85747 19.9688 6.9375V2.3125H7.25C6.63669 2.3125 6.04849 2.55614 5.61482 2.98982C5.18114 3.42349 4.9375 4.01169 4.9375 4.625V25.4375H2.625V4.625C2.625 3.39837 3.11228 2.22199 3.97963 1.35463C4.84699 0.487275 6.02337 0 7.25 0L19.9688 0L30.375 10.4062ZM14.5598 32.8097V31.6026C14.5764 31.0949 14.4841 30.5895 14.2893 30.1203C14.1357 29.7545 13.8765 29.4428 13.5446 29.2254C13.2192 29.0239 12.8427 28.9203 12.4601 28.9271C12.0757 28.9209 11.6977 29.0253 11.3709 29.2277C11.0418 29.446 10.7844 29.7565 10.6309 30.1203C10.436 30.5895 10.3437 31.0949 10.3603 31.6026V32.8097C10.3603 33.4017 10.4528 33.8966 10.6309 34.2921C10.784 34.6568 11.0414 34.9681 11.3709 35.187C11.6994 35.3844 12.0768 35.4854 12.4601 35.4784C12.8418 35.4853 13.2177 35.3843 13.5446 35.187C13.8761 34.9701 14.1354 34.6594 14.2893 34.2944C14.4838 33.8243 14.576 33.3182 14.5598 32.8097ZM16.4167 31.6165V32.8028C16.4167 33.67 16.2595 34.4216 15.9427 35.0529C15.6434 35.6612 15.1691 36.1661 14.5806 36.5028C13.9932 36.8358 13.2856 37.0023 12.4601 37.0023C11.7197 37.0217 10.9869 36.8497 10.3326 36.5028C9.74349 36.1669 9.26895 35.6618 8.9705 35.0529C8.63891 34.3502 8.47655 33.5796 8.49644 32.8028V31.6165C8.49644 30.7401 8.656 29.9885 8.9705 29.3618C9.28731 28.7282 9.74056 28.2449 10.3349 27.9119C10.9292 27.5719 11.6391 27.4031 12.4624 27.4031C13.2879 27.4031 13.9932 27.5719 14.5806 27.9119C15.1726 28.2495 15.6259 28.7351 15.945 29.3687C16.2595 29.9954 16.4167 30.7447 16.4167 31.6165ZM0.3125 36.8266V27.5789H3.68644C4.62531 27.5789 5.4 27.7593 6.0105 28.1223C6.621 28.4831 7.07425 29.0057 7.37256 29.6948C7.67319 30.3793 7.82581 31.2095 7.82581 32.1784C7.82581 33.1543 7.6755 33.9914 7.37256 34.6852C7.06962 35.3812 6.60944 35.9108 5.99662 36.2785C5.38613 36.6439 4.61606 36.8266 3.68644 36.8266H0.3125ZM3.44363 29.0704H2.13937V35.3304H3.44131C3.86912 35.3304 4.24144 35.2656 4.55825 35.1408C4.86285 35.0185 5.12942 34.8173 5.33063 34.558C5.53413 34.2944 5.68444 33.9706 5.78387 33.5821C5.89543 33.1345 5.94829 32.6743 5.94112 32.2131C5.94112 31.5194 5.84863 30.9366 5.66825 30.4718C5.51922 30.0408 5.23128 29.6715 4.84962 29.4219C4.48425 29.1861 4.01481 29.0704 3.439 29.0704H3.44363ZM19.0669 31.6512C19.0669 31.0777 19.1455 30.5874 19.3051 30.1874C19.442 29.8191 19.684 29.499 20.0011 29.267C20.3253 29.0493 20.7092 28.9377 21.0996 28.9479C21.4464 28.9479 21.754 29.0219 22.0199 29.1722C22.2814 29.3111 22.4998 29.5191 22.6512 29.7734C22.8124 30.0409 22.9076 30.3429 22.9287 30.6545H24.6978V30.4857C24.6825 30.0597 24.5788 29.6416 24.3932 29.2578C24.2077 28.8741 23.9445 28.5331 23.6202 28.2564C23.2873 27.9746 22.9023 27.7609 22.4871 27.6274C22.0358 27.4746 21.5621 27.3987 21.0857 27.4031C20.2647 27.4031 19.5594 27.5742 18.979 27.9188C18.4009 28.2611 17.9615 28.749 17.6586 29.3826C17.3556 30.0139 17.203 30.7701 17.203 31.6443V32.7959C17.203 33.6723 17.3533 34.4239 17.6516 35.0529C17.9522 35.6796 18.3939 36.1629 18.9721 36.5028C19.5502 36.8358 20.2555 37.0023 21.0857 37.0023C21.7633 37.0023 22.3691 36.8774 22.901 36.6231C23.4329 36.3687 23.8584 36.0218 24.1752 35.5732C24.4942 35.114 24.6755 34.5733 24.6978 34.0146V33.8388H22.9287C22.9079 34.1371 22.8151 34.426 22.6582 34.6806C22.5029 34.9248 22.2849 35.1229 22.0269 35.2541C21.7383 35.3946 21.4204 35.4643 21.0996 35.4576C20.7091 35.4693 20.3241 35.3638 19.9942 35.1546C19.6781 34.9281 19.4379 34.6113 19.3051 34.2458C19.1352 33.7818 19.0544 33.2899 19.0669 32.7959V31.6512ZM30.8421 27.5812H32.9095L29.9611 32.2201L32.8609 36.8266H30.7612L28.7956 33.5544H28.7146L26.7444 36.8266H24.751L27.6185 32.1669L24.7787 27.5789H26.934L28.858 30.9066H28.9389L30.8421 27.5789V27.5812Z" fill="#2762CD"/>
</svg>
