<svg width="149" height="136" viewBox="0 0 149 136" fill="none" xmlns="http://www.w3.org/2000/svg">
<path d="M132.031 15.5637C131.396 14.8433 130.354 14.8301 129.705 15.5345L65.2357 85.2508L43.3856 57.5559C42.7921 56.7948 41.7547 56.7112 41.0684 57.3694C40.382 58.0276 40.3067 59.1782 40.9002 59.9394C40.9039 59.9442 40.9076 59.9489 40.9115 59.9537L63.9115 89.1062C64.2077 89.4779 64.6278 89.6997 65.0747 89.7202H65.1404C65.57 89.7211 65.9828 89.5353 66.2904 89.2027L132.005 18.1436C132.655 17.4392 132.666 16.284 132.031 15.5637Z" fill="#5FBD00"/>
<path d="M117.013 45.6146C116.1 46.0068 115.65 47.1378 116.007 48.1406C125.982 76.1968 113.366 107.825 87.8279 118.783C62.29 129.742 33.5011 115.882 23.526 87.8253C13.5511 59.7688 26.1674 28.1409 51.7053 17.1825C64.1779 11.8304 78.0897 12.2407 90.2828 18.3202C91.1836 18.7439 92.2264 18.2851 92.612 17.2955C92.9855 16.3373 92.6065 15.2259 91.7518 14.773C64.9904 1.4147 33.439 14.4197 21.28 43.82C9.121 73.2204 20.9584 107.883 47.72 121.241C54.6317 124.691 62.135 126.477 69.7266 126.478C99.1394 126.458 122.968 100.246 122.95 67.9329C122.945 60.6751 121.712 53.4817 119.313 46.7195C118.955 45.7169 117.926 45.2221 117.013 45.6146Z" fill="#5FBD00"/>
</svg>
