<svg width="20" height="20" viewBox="0 0 20 20" fill="none" xmlns="http://www.w3.org/2000/svg">
<path d="M14.5368 0.557307C14.6739 0.613999 14.7912 0.710109 14.8737 0.83347C14.9562 0.956831 15.0002 1.1019 15.0003 1.25031V5.00031H18.7503C18.8988 5.00004 19.0441 5.04388 19.1676 5.12628C19.2912 5.20867 19.3876 5.3259 19.4444 5.46311C19.5013 5.60032 19.5162 5.75133 19.4871 5.89699C19.4581 6.04266 19.3864 6.17641 19.2813 6.28131L16.2813 9.28131C16.2115 9.35091 16.1287 9.40608 16.0376 9.44365C15.9464 9.48123 15.8488 9.50048 15.7503 9.50031H11.5608L10.4508 10.6118C10.5101 10.8342 10.5175 11.0672 10.4724 11.2929C10.4273 11.5186 10.331 11.7309 10.1908 11.9134C10.0506 12.0959 9.87032 12.2438 9.66389 12.3456C9.45746 12.4473 9.23041 12.5003 9.00026 12.5003C8.60243 12.5003 8.2209 12.3423 7.9396 12.061C7.65829 11.7797 7.50026 11.3981 7.50026 11.0003L7.50176 10.9313C7.51205 10.7072 7.57245 10.4883 7.67853 10.2907C7.78462 10.0931 7.93367 9.92174 8.11472 9.78933C8.29577 9.65693 8.50422 9.56681 8.7247 9.52561C8.94519 9.48442 9.17211 9.4932 9.38876 9.55131L10.5003 8.43981V4.25031C10.5001 4.15175 10.5193 4.05412 10.5569 3.96301C10.5945 3.8719 10.6497 3.78909 10.7193 3.71931L13.7193 0.719307C13.8242 0.614483 13.9579 0.543142 14.1034 0.514306C14.249 0.48547 14.3997 0.500435 14.5368 0.557307ZM15.4398 8.00031L16.9398 6.50031H14.2503C14.0513 6.50031 13.8606 6.42129 13.7199 6.28064C13.5793 6.13998 13.5003 5.94922 13.5003 5.75031V3.06081L12.0003 4.56081V8.00031H15.4398ZM17.9178 9.76431C18.1766 11.632 17.8422 13.5338 16.9619 15.2013C16.0817 16.8688 14.6999 18.2176 13.0117 19.0575C11.3235 19.8974 9.4142 20.1858 7.55326 19.8821C5.69232 19.5784 3.97377 18.6978 2.64022 17.3648C1.30667 16.0318 0.425471 14.3136 0.121027 12.4528C-0.183418 10.5919 0.104268 8.6825 0.943472 6.99399C1.78268 5.30548 3.13101 3.92318 4.79813 3.04225C6.46525 2.16131 8.36694 1.82623 10.2348 2.08431L9.66026 2.65881C9.42249 2.8966 9.24104 3.18466 9.12926 3.50181L9.00026 3.50031C7.51145 3.50053 6.0564 3.94384 4.82039 4.7738C3.58438 5.60376 2.62335 6.7828 2.05968 8.16077C1.49601 9.53875 1.35521 11.0533 1.65521 12.5116C1.95521 13.9698 2.68243 15.3058 3.74427 16.3494C4.80611 17.393 6.15451 18.0969 7.61776 18.3716C9.08102 18.6462 10.5929 18.4792 11.9609 17.8917C13.3289 17.3042 14.4911 16.3229 15.2995 15.0726C16.1079 13.8224 16.5259 12.3599 16.5003 10.8713C16.8162 10.7596 17.1032 10.5787 17.3403 10.3418L17.9163 9.76431H17.9178ZM9.00026 5.75031C7.96191 5.75031 6.94687 6.05821 6.08352 6.63509C5.22016 7.21197 4.54725 8.03191 4.14989 8.99122C3.75253 9.95053 3.64856 11.0061 3.85114 12.0245C4.05371 13.0429 4.55372 13.9784 5.28795 14.7126C6.02217 15.4468 6.95763 15.9469 7.97604 16.1494C8.99444 16.352 10.05 16.248 11.0093 15.8507C11.9687 15.4533 12.7886 14.7804 13.3655 13.9171C13.9424 13.0537 14.2503 12.0387 14.2503 11.0003H12.7503C12.7503 11.742 12.5303 12.467 12.1183 13.0837C11.7062 13.7004 11.1205 14.181 10.4353 14.4649C9.7501 14.7487 8.9961 14.8229 8.26867 14.6783C7.54124 14.5336 6.87306 14.1764 6.34861 13.652C5.82416 13.1275 5.46701 12.4593 5.32231 11.7319C5.17762 11.0045 5.25188 10.2505 5.53571 9.56524C5.81954 8.88002 6.30019 8.29435 6.91687 7.8823C7.53356 7.47024 8.25858 7.25031 9.00026 7.25031V5.75031Z" fill="#1F2944"/>
</svg>
