<svg width="14" height="14" viewBox="0 0 14 14" fill="none" xmlns="http://www.w3.org/2000/svg">
<path d="M0.875 0C0.642936 0 0.420376 0.0921872 0.256282 0.256282C0.0921872 0.420376 0 0.642936 0 0.875V2.625C0 2.85706 0.0921872 3.07962 0.256282 3.24372C0.420376 3.40781 0.642936 3.5 0.875 3.5H5.25C5.48206 3.5 5.70462 3.40781 5.86872 3.24372C6.03281 3.07962 6.125 2.85706 6.125 2.625V0.875C6.125 0.642936 6.03281 0.420376 5.86872 0.256282C5.70462 0.0921872 5.48206 0 5.25 0H0.875ZM0.875 5.25C0.642936 5.25 0.420376 5.34219 0.256282 5.50628C0.0921872 5.67038 0 5.89294 0 6.125V7.875C0 8.10706 0.0921872 8.32962 0.256282 8.49372C0.420376 8.65781 0.642936 8.75 0.875 8.75H5.25C5.48206 8.75 5.70462 8.65781 5.86872 8.49372C6.03281 8.32962 6.125 8.10706 6.125 7.875V6.125C6.125 5.89294 6.03281 5.67038 5.86872 5.50628C5.70462 5.34219 5.48206 5.25 5.25 5.25H0.875ZM0.875 10.5C0.642936 10.5 0.420376 10.5922 0.256282 10.7563C0.0921872 10.9204 0 11.1429 0 11.375V13.125C0 13.3571 0.0921872 13.5796 0.256282 13.7437C0.420376 13.9078 0.642936 14 0.875 14H5.25C5.48206 14 5.70462 13.9078 5.86872 13.7437C6.03281 13.5796 6.125 13.3571 6.125 13.125V11.375C6.125 11.1429 6.03281 10.9204 5.86872 10.7563C5.70462 10.5922 5.48206 10.5 5.25 10.5H0.875ZM8.75 0C8.51794 0 8.29538 0.0921872 8.13128 0.256282C7.96719 0.420376 7.875 0.642936 7.875 0.875V2.625C7.875 2.85706 7.96719 3.07962 8.13128 3.24372C8.29538 3.40781 8.51794 3.5 8.75 3.5H13.125C13.3571 3.5 13.5796 3.40781 13.7437 3.24372C13.9078 3.07962 14 2.85706 14 2.625V0.875C14 0.642936 13.9078 0.420376 13.7437 0.256282C13.5796 0.0921872 13.3571 0 13.125 0H8.75ZM8.75 5.25C8.51794 5.25 8.29538 5.34219 8.13128 5.50628C7.96719 5.67038 7.875 5.89294 7.875 6.125V7.875C7.875 8.10706 7.96719 8.32962 8.13128 8.49372C8.29538 8.65781 8.51794 8.75 8.75 8.75H13.125C13.3571 8.75 13.5796 8.65781 13.7437 8.49372C13.9078 8.32962 14 8.10706 14 7.875V6.125C14 5.89294 13.9078 5.67038 13.7437 5.50628C13.5796 5.34219 13.3571 5.25 13.125 5.25H8.75Z" fill="#701D9F"/>
</svg>
