<svg width="17" height="17" viewBox="0 0 17 17" fill="none" xmlns="http://www.w3.org/2000/svg">
<path d="M14.4065 0.619751C14.5805 0.619751 14.7474 0.688891 14.8705 0.811962C14.9936 0.935033 15.0627 1.10195 15.0627 1.276V4.56513H15.719C15.893 4.56513 16.0599 4.63427 16.183 4.75734C16.3061 4.88041 16.3752 5.04733 16.3752 5.22138C16.3752 5.39542 16.3061 5.56234 16.183 5.68542C16.0599 5.80849 15.893 5.87763 15.719 5.87763H15.0627V11.7813C15.0627 11.9553 14.9936 12.1222 14.8705 12.2453C14.7474 12.3684 14.5805 12.4375 14.4065 12.4375C14.2324 12.4375 14.0655 12.3684 13.9424 12.2453C13.8194 12.1222 13.7502 11.9553 13.7502 11.7813V1.276C13.7502 1.10195 13.8194 0.935033 13.9424 0.811962C14.0655 0.688891 14.2324 0.619751 14.4065 0.619751ZM7.84397 1.93225H11.1252V3.57813C11.1252 4.12019 10.9178 4.50738 10.6002 4.76988C10.2708 5.04419 9.77334 5.21875 9.16041 5.21875C8.98636 5.21875 8.81944 5.28789 8.69637 5.41096C8.5733 5.53403 8.50416 5.70095 8.50416 5.875C8.50416 6.04905 8.5733 6.21597 8.69637 6.33904C8.81944 6.46211 8.98636 6.53125 9.16041 6.53125C10.0109 6.53125 10.8247 6.28975 11.4376 5.7805C12.0663 5.26075 12.4377 4.4995 12.4377 3.57813V1.276C12.4377 1.10195 12.3686 0.935033 12.2455 0.811962C12.1224 0.688891 11.9555 0.619751 11.7815 0.619751H7.84397C7.66992 0.619751 7.503 0.688891 7.37993 0.811962C7.25686 0.935033 7.18772 1.10195 7.18772 1.276C7.18772 1.45005 7.25686 1.61697 7.37993 1.74004C7.503 1.86311 7.66992 1.93225 7.84397 1.93225ZM6.47109 4.95625C6.41992 4.83942 6.33582 4.74003 6.22906 4.67024C6.1223 4.60044 5.99751 4.56327 5.86997 4.56327C5.74242 4.56327 5.61764 4.60044 5.51088 4.67024C5.40412 4.74003 5.32001 4.83942 5.26884 4.95625L0.680343 15.4563C0.644568 15.5354 0.624855 15.6208 0.622345 15.7076C0.619834 15.7944 0.634577 15.8809 0.665719 15.9619C0.696861 16.043 0.743783 16.1171 0.803764 16.1799C0.863745 16.2427 0.935594 16.2929 1.01515 16.3278C1.0947 16.3626 1.18037 16.3813 1.2672 16.3828C1.35402 16.3842 1.44028 16.3684 1.52097 16.3363C1.60165 16.3042 1.67516 16.2564 1.73724 16.1957C1.79932 16.135 1.84872 16.0625 1.88259 15.9826L3.43134 12.4388H8.31647L9.86916 15.9826C9.94218 16.1367 10.0723 16.2563 10.2321 16.3162C10.3918 16.376 10.5685 16.3712 10.7248 16.303C10.8811 16.2347 11.0047 16.1083 11.0694 15.9505C11.1341 15.7927 11.1348 15.6159 11.0714 15.4576L6.4724 4.95756L6.47109 4.95625ZM7.74028 11.125H4.0049L5.87128 6.85675L7.73897 11.125H7.74028Z" fill="#1F2944"/>
</svg>
