<svg width="14" height="14" viewBox="0 0 14 14" fill="none" xmlns="http://www.w3.org/2000/svg">
<path fill-rule="evenodd" clip-rule="evenodd" d="M0 13.2222C0 13.0159 0.0670454 12.8181 0.186387 12.6722C0.305728 12.5264 0.467589 12.4444 0.636364 12.4444H13.3636C13.5324 12.4444 13.6943 12.5264 13.8136 12.6722C13.933 12.8181 14 13.0159 14 13.2222C14 13.4285 13.933 13.6263 13.8136 13.7722C13.6943 13.9181 13.5324 14 13.3636 14H0.636364C0.467589 14 0.305728 13.9181 0.186387 13.7722C0.0670454 13.6263 0 13.4285 0 13.2222ZM0 7C0 6.79372 0.0670454 6.59589 0.186387 6.45003C0.305728 6.30417 0.467589 6.22222 0.636364 6.22222H13.3636C13.5324 6.22222 13.6943 6.30417 13.8136 6.45003C13.933 6.59589 14 6.79372 14 7C14 7.20628 13.933 7.40411 13.8136 7.54997C13.6943 7.69583 13.5324 7.77778 13.3636 7.77778H0.636364C0.467589 7.77778 0.305728 7.69583 0.186387 7.54997C0.0670454 7.40411 0 7.20628 0 7ZM0 0.777778C0 0.571498 0.0670454 0.373668 0.186387 0.227806C0.305728 0.0819444 0.467589 0 0.636364 0H13.3636C13.5324 0 13.6943 0.0819444 13.8136 0.227806C13.933 0.373668 14 0.571498 14 0.777778C14 0.984057 13.933 1.18189 13.8136 1.32775C13.6943 1.47361 13.5324 1.55556 13.3636 1.55556H0.636364C0.467589 1.55556 0.305728 1.47361 0.186387 1.32775C0.0670454 1.18189 0 0.984057 0 0.777778Z" fill="#701D9F"/>
</svg>
