<svg width="14" height="18" viewBox="0 0 14 18" fill="none" xmlns="http://www.w3.org/2000/svg">
<path d="M7.00004 0.666504C3.50004 0.666504 0.333374 3.34984 0.333374 7.49984C0.333374 10.1498 2.37504 13.2665 6.45004 16.8582C6.76671 17.1332 7.24171 17.1332 7.55837 16.8582C11.625 13.2665 13.6667 10.1498 13.6667 7.49984C13.6667 3.34984 10.5 0.666504 7.00004 0.666504ZM7.00004 8.99984C6.08337 8.99984 5.33337 8.24984 5.33337 7.33317C5.33337 6.4165 6.08337 5.6665 7.00004 5.6665C7.91671 5.6665 8.66671 6.4165 8.66671 7.33317C8.66671 8.24984 7.91671 8.99984 7.00004 8.99984Z" fill="#000B2A" fill-opacity="0.6"/>
</svg>
