<svg width="298" height="247" viewBox="0 0 298 247" fill="none" xmlns="http://www.w3.org/2000/svg">
<path d="M77.4089 58.6711H23.0742V12.4756H77.4089V58.6711ZM23.5033 58.1377H76.9798V13.009H23.5033V58.1377Z" fill="#EBEBEB"/>
<path d="M27.3216 15.4681C27.3216 15.734 27.2582 15.9938 27.1394 16.2149C27.0206 16.4359 26.8517 16.6082 26.6541 16.7099C26.4566 16.8116 26.2392 16.8383 26.0294 16.7864C25.8197 16.7345 25.6271 16.6065 25.4759 16.4185C25.3246 16.2306 25.2217 15.9911 25.18 15.7303C25.1382 15.4696 25.1596 15.1994 25.2415 14.9538C25.3233 14.7082 25.4619 14.4982 25.6397 14.3505C25.8175 14.2029 26.0265 14.124 26.2404 14.124C26.5271 14.124 26.8021 14.2656 27.0049 14.5177C27.2077 14.7698 27.3216 15.1116 27.3216 15.4681Z" fill="#A6A6A6"/>
<path d="M31.7413 15.4681C31.7421 15.7355 31.6791 15.9971 31.5601 16.2198C31.4412 16.4426 31.2717 16.6164 31.0732 16.7192C30.8747 16.822 30.656 16.8491 30.4451 16.7972C30.2341 16.7453 30.0403 16.6167 29.8882 16.4277C29.7362 16.2386 29.6327 15.9977 29.591 15.7354C29.5492 15.4732 29.5711 15.2014 29.6538 14.9546C29.7365 14.7078 29.8762 14.4971 30.0554 14.3492C30.2346 14.2014 30.445 14.123 30.6601 14.124C30.9468 14.124 31.2218 14.2656 31.4246 14.5177C31.6274 14.7698 31.7413 15.1117 31.7413 15.4681Z" fill="#EBEBEB"/>
<path d="M36.1604 15.4681C36.1604 15.734 36.097 15.9938 35.9782 16.2149C35.8594 16.4359 35.6906 16.6082 35.493 16.7099C35.2954 16.8116 35.078 16.8383 34.8683 16.7864C34.6586 16.7345 34.4659 16.6065 34.3147 16.4185C34.1635 16.2306 34.0605 15.9911 34.0188 15.7303C33.9771 15.4696 33.9985 15.1994 34.0803 14.9538C34.1622 14.7082 34.3008 14.4982 34.4786 14.3505C34.6564 14.2029 34.8654 14.124 35.0792 14.124C35.366 14.124 35.641 14.2656 35.8438 14.5177C36.0465 14.7698 36.1604 15.1116 36.1604 15.4681Z" fill="#FFC727"/>
<path d="M77.1947 17.8198H23.2891V18.3532H77.1947V17.8198Z" fill="#EBEBEB"/>
<path d="M19.788 61.1626C19.9769 61.0177 20.1945 60.9409 20.4165 60.9409C20.6385 60.9409 20.8562 61.0177 21.0451 61.1626C21.1481 61.2443 21.2553 61.319 21.3669 61.3866C21.4741 61.4613 21.5857 61.5306 21.6972 61.5999C21.898 61.713 22.0695 61.8929 22.193 62.1198C22.3164 62.3467 22.3869 62.6117 22.3966 62.8854L22.4438 64.8055L27.4679 64.6082L27.4208 62.6933C27.4143 62.417 27.4698 62.1438 27.5812 61.9045C27.6926 61.6653 27.8555 61.4693 28.0515 61.3386C28.2718 61.1921 28.4853 61.0301 28.6907 60.8532C28.87 60.6941 29.0815 60.6004 29.3013 60.5825C29.5211 60.5646 29.7405 60.6232 29.935 60.7519L31.2908 61.6586L33.6677 56.1489L32.299 55.2581C32.105 55.1282 31.944 54.9336 31.8341 54.6962C31.7242 54.4587 31.6697 54.1878 31.6769 53.914C31.6812 53.6025 31.6726 53.291 31.6512 52.9806C31.6301 52.7068 31.6707 52.4311 31.7684 52.1843C31.8662 51.9375 32.0172 51.7294 32.2046 51.5832L33.4918 50.5751L30.8446 45.2414L29.5274 46.2548C29.3398 46.3987 29.1236 46.475 28.9031 46.475C28.6826 46.475 28.4665 46.3987 28.2788 46.2548C28.1759 46.1765 28.0686 46.1019 27.9571 46.0307C27.8498 45.9561 27.7382 45.8867 27.6267 45.8227C27.425 45.7084 27.2529 45.5266 27.1294 45.2978C27.0059 45.069 26.936 44.802 26.9273 44.5266L26.8802 42.6118L21.856 42.8038L21.9032 44.7133C21.9098 44.9883 21.8547 45.2602 21.744 45.4985C21.6334 45.7369 21.4716 45.9322 21.2768 46.0627C21.058 46.2121 20.8477 46.3774 20.6375 46.5535C20.4574 46.7124 20.2452 46.8061 20.0248 46.824C19.8043 46.8419 19.5842 46.7833 19.389 46.6548L18.0332 45.7534L15.6562 51.2578L17.012 52.1645C17.2071 52.2944 17.3688 52.4897 17.4788 52.7283C17.5888 52.9669 17.6427 53.2392 17.6342 53.514C17.6467 53.8301 17.6725 54.1453 17.7114 54.4581C17.7315 54.7317 17.6905 55.007 17.5928 55.2536C17.4952 55.5001 17.3447 55.7084 17.1579 55.8555L15.8708 56.8636L18.518 62.1706L19.788 61.1626ZM21.0494 51.3005C21.4344 50.4099 22.0232 49.6812 22.7412 49.2064C23.4592 48.7315 24.2744 48.5319 25.0836 48.6326C25.8929 48.7334 26.6599 49.13 27.288 49.7724C27.916 50.4149 28.3768 51.2743 28.6121 52.2421C28.8475 53.2099 28.8468 54.2427 28.6103 55.21C28.3737 56.1774 27.9118 57.0359 27.283 57.6771C26.6542 58.3183 25.8866 58.7134 25.0772 58.8126C24.2678 58.9118 23.453 58.7106 22.7355 58.2343C21.7729 57.5921 21.0546 56.5012 20.7384 55.2011C20.4223 53.901 20.5341 52.4981 21.0494 51.3005Z" fill="#EBEBEB"/>
<path d="M268.429 118.686C268.618 118.541 268.835 118.465 269.056 118.465C269.277 118.465 269.494 118.541 269.682 118.686L270.004 118.916L270.339 119.124C270.539 119.237 270.711 119.417 270.834 119.644C270.958 119.871 271.028 120.136 271.038 120.409L271.085 122.329L276.109 122.132L276.062 120.217C276.056 119.942 276.112 119.671 276.224 119.434C276.335 119.196 276.498 119.002 276.693 118.873C276.911 118.723 277.123 118.559 277.328 118.382C277.508 118.225 277.72 118.132 277.941 118.114C278.161 118.096 278.381 118.154 278.576 118.281L279.932 119.188L282.309 113.678L280.953 112.777C280.759 112.646 280.598 112.45 280.488 112.212C280.378 111.974 280.324 111.702 280.331 111.427C280.336 111.118 280.327 110.808 280.305 110.499C280.285 110.225 280.325 109.948 280.423 109.701C280.521 109.453 280.672 109.244 280.859 109.096L282.146 108.088L279.499 102.755L278.182 103.773C277.994 103.917 277.778 103.994 277.557 103.994C277.337 103.994 277.121 103.917 276.933 103.773L276.611 103.549C276.504 103.475 276.393 103.405 276.281 103.341C276.079 103.228 275.907 103.048 275.784 102.82C275.66 102.592 275.59 102.325 275.582 102.051L275.534 100.13L270.51 100.322L270.558 102.237C270.564 102.512 270.509 102.783 270.399 103.02C270.288 103.258 270.126 103.452 269.931 103.581C269.71 103.73 269.497 103.896 269.292 104.077C269.111 104.235 268.899 104.328 268.679 104.345C268.458 104.362 268.238 104.303 268.043 104.173L266.688 103.272L264.332 108.808L265.688 109.71C265.882 109.841 266.042 110.037 266.152 110.275C266.262 110.514 266.316 110.785 266.31 111.059C266.306 111.371 266.314 111.682 266.336 111.993C266.356 112.267 266.314 112.543 266.216 112.789C266.117 113.036 265.966 113.244 265.778 113.39L264.491 114.398L267.138 119.732L268.429 118.686ZM269.691 108.808C270.076 107.918 270.665 107.19 271.384 106.715C272.102 106.241 272.917 106.042 273.727 106.143C274.536 106.244 275.303 106.642 275.931 107.285C276.558 107.928 277.019 108.788 277.253 109.756C277.488 110.724 277.487 111.757 277.25 112.724C277.013 113.691 276.55 114.549 275.921 115.19C275.292 115.83 274.524 116.225 273.714 116.323C272.905 116.421 272.09 116.219 271.373 115.742C270.896 115.425 270.474 114.994 270.131 114.473C269.788 113.953 269.531 113.353 269.375 112.709C269.218 112.065 269.166 111.389 269.22 110.72C269.274 110.05 269.434 109.401 269.691 108.808Z" fill="#EBEBEB"/>
<path d="M29.922 77.5049C30.0582 77.6023 30.1702 77.7444 30.2459 77.9156C30.3215 78.0868 30.3579 78.2805 30.3511 78.4756C30.3511 78.5823 30.3511 78.689 30.3511 78.7956C30.3511 78.9023 30.3511 79.0143 30.3511 79.121C30.3598 79.315 30.3241 79.5082 30.2482 79.6781C30.1722 79.848 30.0592 79.9877 29.922 80.0811L28.9824 80.7531L30.7458 84.5454L31.6811 83.8734C31.8136 83.7823 31.9637 83.7381 32.115 83.7456C32.2663 83.7531 32.413 83.8121 32.5392 83.916C32.6851 84.0334 32.8396 84.14 32.994 84.2414C33.1326 84.3265 33.2493 84.458 33.3311 84.6209C33.413 84.7839 33.4567 84.972 33.4574 85.1641V86.5029H37.0185V85.1641C37.0192 84.972 37.0629 84.7839 37.1448 84.6209C37.2266 84.458 37.3433 84.3265 37.4819 84.2414C37.6363 84.14 37.7865 84.0334 37.9109 83.916C38.0373 83.8126 38.184 83.754 38.3352 83.7465C38.4864 83.739 38.6364 83.7828 38.769 83.8734L39.7043 84.5454L41.4634 80.7531L40.5238 80.0811C40.3863 79.9868 40.2731 79.8462 40.1972 79.6754C40.1213 79.5045 40.0858 79.3105 40.0948 79.1157C40.0948 79.009 40.0948 78.9023 40.0948 78.7956C40.0948 78.689 40.0948 78.5823 40.0948 78.4756C40.0858 78.2808 40.1213 78.0867 40.1972 77.9159C40.2731 77.7451 40.3863 77.6044 40.5238 77.5102L41.4591 76.8381L39.7 73.0459L38.769 73.7179C38.6334 73.811 38.48 73.8567 38.3251 73.8501C38.1702 73.8435 38.0197 73.7849 37.8895 73.6806C37.7428 73.5602 37.591 73.4498 37.4347 73.3499C37.2958 73.2652 37.1788 73.1339 37.0969 72.9708C37.015 72.8077 36.9715 72.6194 36.9713 72.4271V71.0884H33.4488V72.4271C33.4486 72.6194 33.4051 72.8077 33.3232 72.9708C33.2413 73.1339 33.1243 73.2652 32.9854 73.3499C32.8286 73.4486 32.6767 73.559 32.5307 73.6806C32.4029 73.7799 32.2563 73.8357 32.1056 73.8423C31.955 73.8488 31.8056 73.8059 31.6726 73.7179L30.7501 73.0725L28.9867 76.8648L29.922 77.5049ZM35.2379 75.206C35.8092 75.205 36.3679 75.4146 36.8433 75.8084C37.3187 76.2022 37.6895 76.7624 37.9087 77.4182C38.1279 78.0741 38.1857 78.796 38.0748 79.4927C37.9638 80.1893 37.6892 80.8294 37.2855 81.332C36.8819 81.8345 36.3674 82.1769 35.8071 82.3159C35.2469 82.4548 34.6661 82.384 34.1382 82.1125C33.6104 81.841 33.1591 81.3809 32.8417 80.7905C32.5242 80.2 32.3547 79.5058 32.3547 78.7956C32.3559 77.845 32.6599 76.9336 33.2002 76.2608C33.7405 75.5881 34.4732 75.2088 35.2379 75.206Z" fill="#EBEBEB"/>
<path d="M27.4336 132.277C27.4336 131.674 27.4979 130.069 27.4979 129.386C27.4979 126.458 26.6398 125.119 24.4645 125.055C23.4348 124.975 22.8213 124.212 22.8213 123.129C22.8213 122.047 23.4348 121.284 24.4645 121.204C26.6613 121.081 27.4979 119.796 27.4979 116.83C27.4979 116.147 27.4336 114.542 27.4336 113.939C27.4336 110.051 28.7593 107.539 33.762 106.2C34.1022 106.101 34.4598 106.165 34.764 106.379C35.0682 106.592 35.2969 106.94 35.4047 107.353C35.5126 107.766 35.4919 108.214 35.3466 108.609C35.2013 109.004 34.942 109.317 34.6201 109.486C31.4881 110.691 31.0376 111.934 31.0376 114.665C31.0376 115.465 31.1019 116.798 31.1019 117.63C31.1019 120.761 29.8748 122.287 27.7425 123.129C29.8877 124.009 31.1019 125.497 31.1019 128.623C31.1019 129.466 31.0376 130.789 31.0376 131.594C31.0376 134.32 31.4666 135.568 34.6201 136.768C34.949 136.931 35.2158 137.243 35.3663 137.641C35.5168 138.039 35.5398 138.494 35.4307 138.913C35.3215 139.331 35.0884 139.683 34.7785 139.895C34.4686 140.108 34.1052 140.167 33.762 140.059C28.7593 138.677 27.4336 136.192 27.4336 132.277Z" fill="#EBEBEB"/>
<path d="M46.3458 113.924C46.3458 114.526 46.2814 116.132 46.2814 116.814C46.2814 119.78 47.1395 121.081 49.3491 121.188C50.3488 121.268 50.9624 122.031 50.9624 123.114C50.9624 124.196 50.3488 124.959 49.3491 125.039C47.1524 125.119 46.2814 126.442 46.2814 129.37C46.2814 130.053 46.3458 131.658 46.3458 132.261C46.3458 136.192 45.0243 138.661 40.0216 140.043C39.6706 140.184 39.2887 140.147 38.96 139.938C38.6313 139.73 38.3828 139.367 38.269 138.931C38.1552 138.494 38.1855 138.02 38.3533 137.611C38.521 137.202 38.8125 136.893 39.1635 136.752C42.2613 135.552 42.7161 134.304 42.7161 131.578C42.7161 130.773 42.6517 129.445 42.6517 128.607C42.6517 125.482 43.8745 123.956 46.0069 123.114C43.8616 122.228 42.6517 120.745 42.6517 117.615C42.6517 116.772 42.7161 115.449 42.7161 114.649C42.7161 111.918 42.2613 110.675 39.1635 109.47C38.8843 109.361 38.6416 109.142 38.4726 108.845C38.3036 108.548 38.2177 108.191 38.2282 107.827C38.223 107.558 38.2699 107.29 38.3649 107.048C38.4599 106.806 38.6003 106.595 38.7743 106.434C38.9484 106.273 39.1509 106.167 39.3649 106.123C39.579 106.08 39.7983 106.101 40.0045 106.184C45.0243 107.544 46.3458 110.035 46.3458 113.924Z" fill="#EBEBEB"/>
<path d="M254.629 50.2756C254.881 50.5708 255.055 50.9538 255.128 51.3743C255.202 51.7948 255.172 52.2331 255.041 52.6317C254.911 53.0304 254.687 53.3707 254.398 53.6079C254.109 53.8452 253.769 53.9684 253.423 53.9612C252.946 53.9729 252.484 53.7528 252.136 53.3479L244.413 43.6085C244.327 43.5765 244.302 43.5071 244.276 43.4058C244.25 43.3777 244.221 43.3544 244.19 43.3364C244.153 43.2505 244.126 43.1591 244.108 43.0644C244.087 43.0515 244.068 43.032 244.054 43.0078C244.039 42.9836 244.03 42.9554 244.027 42.9257C244.001 42.8564 244.001 42.7551 243.971 42.7231C243.941 42.6911 243.915 42.5844 243.915 42.5524V42.3124C243.915 42.243 243.89 42.211 243.89 42.1043C243.89 41.9977 243.915 41.971 243.915 41.9337V41.699C243.915 41.6296 243.971 41.5923 243.971 41.5603C243.971 41.5283 244.001 41.3896 244.027 41.2883C244.053 41.1869 244.053 41.2509 244.053 41.2189C244.053 41.1869 244.139 40.9789 244.19 40.9096C244.19 40.8912 244.196 40.8736 244.206 40.8606C244.217 40.8476 244.231 40.8403 244.246 40.8403C244.285 40.7459 244.342 40.6652 244.413 40.6056L252.136 30.8662C252.469 30.471 252.911 30.2505 253.372 30.2505C253.832 30.2505 254.274 30.471 254.607 30.8662C254.773 31.0652 254.906 31.3038 254.996 31.5677C255.086 31.8317 255.132 32.1155 255.132 32.4023C255.132 32.6891 255.086 32.9729 254.996 33.2368C254.906 33.5008 254.773 33.7394 254.607 33.9384L248.111 42.1043L254.629 50.2756Z" fill="#EBEBEB"/>
<path d="M261.639 51.3692L268.37 31.469C268.449 31.2394 268.564 31.0316 268.708 30.8573C268.852 30.6831 269.022 30.5459 269.208 30.4537C269.395 30.3615 269.594 30.3161 269.795 30.3201C269.996 30.3241 270.194 30.3774 270.378 30.4769C270.557 30.5732 270.719 30.7124 270.855 30.8866C270.99 31.0608 271.096 31.2665 271.168 31.492C271.239 31.7175 271.274 31.9583 271.27 32.2006C271.267 32.4428 271.224 32.6818 271.146 32.9038L264.415 52.836C264.295 53.1734 264.098 53.4598 263.849 53.6598C263.599 53.8598 263.308 53.9647 263.012 53.9614C262.823 53.9658 262.636 53.9204 262.462 53.828C262.276 53.7381 262.106 53.6021 261.962 53.4284C261.819 53.2546 261.706 53.0466 261.629 52.817C261.552 52.5873 261.513 52.3406 261.515 52.0918C261.516 51.843 261.559 51.5972 261.639 51.3692Z" fill="#EBEBEB"/>
<path d="M284.45 43.3365C284.45 43.3449 284.447 43.3531 284.442 43.3591C284.438 43.3651 284.431 43.3685 284.424 43.3685C284.367 43.4563 284.302 43.5367 284.231 43.6085L276.508 53.3479C276.174 53.7422 275.731 53.962 275.27 53.962C274.81 53.962 274.367 53.7422 274.033 53.3479C273.87 53.1466 273.74 52.9073 273.652 52.6437C273.564 52.38 273.519 52.0973 273.519 51.8118C273.519 51.5262 273.564 51.2435 273.652 50.9799C273.74 50.7162 273.87 50.4769 274.033 50.2757L280.546 42.1044L274.033 33.9384C273.87 33.7371 273.74 33.4978 273.652 33.2342C273.564 32.9706 273.519 32.6878 273.519 32.4023C273.519 32.1168 273.564 31.834 273.652 31.5704C273.74 31.3068 273.87 31.0674 274.033 30.8662C274.366 30.4707 274.81 30.25 275.27 30.25C275.731 30.25 276.175 30.4707 276.508 30.8662L284.231 40.6056C284.302 40.6756 284.366 40.7542 284.424 40.8403C284.45 40.8403 284.45 40.9096 284.45 40.9096C284.501 41.009 284.547 41.1124 284.587 41.219C284.587 41.251 284.617 41.251 284.617 41.2883C284.635 41.3933 284.662 41.4954 284.699 41.5923C284.699 41.6297 284.725 41.6297 284.725 41.699V41.9337C284.725 41.971 284.755 42.0724 284.755 42.1044C284.755 42.1364 284.725 42.243 284.725 42.275V42.5524C284.725 42.5844 284.699 42.5844 284.699 42.6217C284.666 42.7205 284.638 42.8221 284.617 42.9258C284.617 42.9631 284.587 42.9631 284.587 43.0271C284.587 43.0911 284.506 43.2031 284.45 43.3365Z" fill="#EBEBEB"/>
<path d="M13.6436 165.986C100.363 165.656 197.637 165.656 284.373 165.986C197.654 166.312 100.38 166.312 13.6436 165.986Z" fill="#263238"/>
<path d="M284.579 86.8179C274.556 103.694 264.104 123.274 261.56 144.422C261.53 144.742 261.942 144.849 261.989 144.529C263.142 138.759 264.623 133.098 266.421 127.589C273.011 125.333 279.477 123.482 282.94 115.353C286.466 106.995 286.02 96.0986 285.347 86.9939C285.325 86.5192 284.793 86.4926 284.579 86.8179Z" fill="#66172A"/>
<path d="M266.558 127.44C271.063 114.879 276.855 102.27 284.188 91.9439C284.235 91.8746 284.312 91.9706 284.269 92.0399C279.46 99.3952 275.804 107.406 272.256 115.556C275.572 111.369 279.211 107.62 282.356 103.177C282.416 103.091 282.514 103.219 282.454 103.305C279.335 107.961 275.924 113.018 271.861 116.463C270.768 118.952 269.666 121.459 268.553 123.984C268.828 123.792 269.107 123.626 269.39 123.45C269.437 123.424 269.48 123.514 269.433 123.546C269.124 123.738 268.815 123.946 268.493 124.112C267.965 125.301 267.446 126.491 266.901 127.675C266.747 127.936 266.451 127.707 266.558 127.44Z" fill="#263238"/>
<path d="M269.897 123.055C272.592 121.176 275.164 119.036 277.589 116.655C277.654 116.591 277.748 116.703 277.684 116.772C275.33 119.306 272.749 121.493 269.991 123.29C269.884 123.37 269.772 123.146 269.897 123.055Z" fill="#263238"/>
<path d="M260.414 141.286C260.435 141.542 260.783 141.542 260.779 141.286C260.834 134.32 260.779 127.322 260.869 120.319C262.306 116.719 265.387 114.724 267.532 111.838C269.073 109.724 270.415 107.398 271.53 104.905C274.178 99.0375 275.615 92.381 276.164 85.7031C276.756 78.2359 274.482 53.658 271.955 54.5114C270.647 54.9541 266.403 67.1364 265.279 71.1634C263.454 77.8047 262.118 84.6388 261.289 91.5809C259.238 107.95 259.41 124.81 260.414 141.286Z" fill="#E8543D"/>
<path d="M260.377 111.231L260.403 111.199C260.707 102.382 262.308 93.4799 263.801 84.9299C265.414 75.7185 267.298 67.0405 271.095 58.8266C271.11 58.796 271.134 58.7741 271.162 58.7654C271.19 58.7566 271.22 58.7618 271.245 58.7798C271.27 58.7978 271.289 58.8272 271.297 58.8618C271.305 58.8964 271.301 58.9335 271.288 58.9653C268.742 65.3538 266.773 72.0724 265.414 78.9988C265.672 78.5027 265.98 78.0334 266.246 77.564C266.349 77.3773 266.598 77.564 266.495 77.74C266.153 78.4834 265.754 79.1836 265.303 79.8308C265.288 79.8476 265.27 79.8588 265.251 79.8628C263.938 86.4447 262.999 93.1972 262.192 99.9017C262.252 99.8164 262.308 99.7203 262.368 99.6403C262.377 99.6312 262.389 99.6263 262.401 99.6262C262.414 99.6262 262.425 99.6311 262.435 99.6401C262.445 99.6492 262.452 99.6619 262.455 99.6764C262.459 99.6908 262.458 99.7063 262.454 99.7204C262.351 99.9444 262.239 100.163 262.132 100.387C261.703 103.795 261.347 107.198 260.969 110.575C265.852 105.385 270.026 99.267 272.378 91.7304C272.38 91.7247 272.383 91.7198 272.387 91.7164C272.391 91.713 272.396 91.7112 272.401 91.7112C272.406 91.7112 272.411 91.713 272.415 91.7164C272.419 91.7198 272.423 91.7247 272.425 91.7304C270.121 99.5443 266.487 106.494 260.892 111.241L260.583 113.961C260.562 114.148 260.321 114.1 260.321 113.919C260.321 113.113 260.356 112.319 260.381 111.503C260.366 111.486 260.353 111.465 260.344 111.442C260.335 111.419 260.33 111.394 260.33 111.368C260.329 111.342 260.333 111.317 260.342 111.293C260.35 111.269 260.362 111.248 260.377 111.231Z" fill="#263238"/>
<path d="M262.697 98.4507C266.43 91.5168 269.913 84.8016 272.646 77.1477C272.677 77.0624 272.797 77.1477 272.767 77.2117C270.467 84.8176 267.245 92.5249 262.898 98.632C262.774 98.7547 262.598 98.5947 262.697 98.4507Z" fill="#263238"/>
<path d="M267.636 75.4362C269.18 72.0386 270.811 68.7264 272.27 65.2594C272.308 65.1634 272.416 65.2594 272.381 65.3394C271.19 68.9606 269.679 72.406 267.876 75.6122C267.773 75.7882 267.546 75.6335 267.636 75.4362Z" fill="#263238"/>
<path d="M267.031 76.9185C267.036 76.921 267.04 76.9251 267.042 76.9304C267.045 76.9356 267.046 76.9417 267.046 76.948C267.046 76.9543 267.045 76.9604 267.042 76.9657C267.04 76.971 267.036 76.9751 267.031 76.9776C267.026 76.9751 267.023 76.971 267.02 76.9657C267.017 76.9604 267.016 76.9543 267.016 76.948C267.016 76.9417 267.017 76.9356 267.02 76.9304C267.023 76.9251 267.026 76.921 267.031 76.9185Z" fill="#263238"/>
<path d="M256.621 121.135C256.545 125.754 256.107 130.352 255.313 134.864C255.368 135.36 255.424 135.856 255.484 136.368C256.627 131.383 257.29 126.246 257.458 121.066C257.492 120.994 257.51 120.912 257.51 120.829C257.51 120.745 257.492 120.663 257.458 120.591C257.63 113.642 257.229 106.69 256.261 99.8429C254.523 87.042 250.73 74.7477 243.548 65.147C243.489 65.0842 243.418 65.0391 243.343 65.0151C243.267 64.991 243.188 64.9887 243.112 65.0082C243.035 65.0277 242.963 65.0686 242.901 65.1278C242.839 65.1869 242.789 65.2628 242.754 65.3496C239.854 74.513 240.867 85.4525 243.338 94.5945C244.682 99.5372 246.6 104.209 249.031 108.462C251.477 112.788 254.618 116.431 256.621 121.135Z" fill="#F0B949"/>
<path d="M244.377 69.4352C251.186 83.1749 255.922 99.4588 256.501 115.689C256.501 115.977 256.124 116.052 256.072 115.759C255.914 114.297 255.734 112.852 255.545 111.417C252.73 108.062 249.838 104.52 247.822 100.334C247.783 100.259 247.869 100.173 247.916 100.237C250.366 103.72 252.636 107.289 255.42 110.372C254.937 106.78 254.355 103.248 253.674 99.7735C253.49 99.5121 253.314 99.2401 253.133 98.9841C253.018 98.8134 253.211 98.5627 253.335 98.7334L253.498 98.9574C252.539 94.1904 251.351 89.4991 249.941 84.9083C248.225 82.3375 246.269 80.108 245.007 77.0197C245 77.0049 244.999 76.9873 245.002 76.9708C245.006 76.9543 245.015 76.9402 245.027 76.9317C245.039 76.9232 245.053 76.921 245.066 76.9255C245.079 76.93 245.091 76.9409 245.097 76.9557C246.077 78.7518 247.128 80.4857 248.247 82.1508C248.706 82.8068 249.208 83.4202 249.684 84.0549C248.112 79.0768 246.248 74.2492 244.106 69.6112C244.088 69.5666 244.084 69.5146 244.096 69.4666C244.108 69.4186 244.135 69.3785 244.171 69.3552C244.206 69.3318 244.248 69.3271 244.287 69.3421C244.326 69.3571 244.358 69.3906 244.377 69.4352Z" fill="#263238"/>
<path d="M245.754 86.4072C247.955 90.0928 250.474 93.6024 252.508 97.4107C252.568 97.5173 252.439 97.6294 252.366 97.544C249.736 94.4824 247.513 90.2955 245.604 86.5192C245.535 86.3698 245.69 86.2738 245.754 86.4072Z" fill="#263238"/>
<path d="M252.83 98.2372L252.924 98.3546C252.988 98.4346 252.885 98.5572 252.821 98.4772L252.727 98.3599C252.649 98.2799 252.752 98.1412 252.83 98.2372Z" fill="#263238"/>
<path d="M233.711 95.8428C234.256 102.91 237.246 111.353 240.893 116.799C242.498 119.167 244.482 121.092 246.719 122.453C249.242 124.005 251.868 125.792 254.498 127.067C255.737 130.991 256.658 135.06 257.248 139.211C257.334 138.859 257.416 138.491 257.501 138.145C255.824 120.255 246.513 104.958 234.599 95.1388C234.506 95.0639 234.397 95.0239 234.286 95.0234C234.175 95.023 234.066 95.0622 233.973 95.1364C233.879 95.2105 233.805 95.3165 233.758 95.4418C233.712 95.567 233.695 95.7062 233.711 95.8428Z" fill="#E8543D"/>
<path d="M237.813 101.134C237.727 101.038 237.843 100.851 237.933 100.936C244.249 106.75 249.947 115.231 253.117 124.197C253.203 124.442 252.933 124.655 252.821 124.41C252.268 123.205 251.702 122.031 251.105 120.879C248.385 120.244 245.811 117.866 243.811 115.604C243.756 115.545 243.837 115.444 243.889 115.503C244.927 116.68 246.08 117.691 247.321 118.511C248.432 119.21 249.625 119.652 250.779 120.212C249.771 118.223 248.72 116.313 247.626 114.463C244.695 113.225 241.911 110.99 239.474 108.756C239.396 108.686 239.474 108.526 239.551 108.59C242.008 110.439 244.543 112.123 247.145 113.636C245.486 110.912 243.695 108.317 241.782 105.865C240.86 105.257 239.92 104.649 239.023 103.998C238.95 103.945 239.023 103.79 239.083 103.827C239.828 104.15 240.538 104.583 241.199 105.118C240.122 103.769 239.01 102.435 237.813 101.134Z" fill="#263238"/>
<path d="M238.079 107.31C238.24 107.429 238.394 107.565 238.538 107.715C238.581 107.763 238.538 107.832 238.478 107.811C238.313 107.713 238.154 107.6 238.001 107.475C237.92 107.406 237.997 107.246 238.079 107.31Z" fill="#263238"/>
<path d="M246.848 132.864H272.694L270.149 165.981H249.392L246.848 132.864Z" fill="#455A64"/>
<path d="M247.337 139.222L246.848 132.864H272.694L272.38 136.966L247.337 139.222Z" fill="#37474F"/>
<path d="M274.444 127.162H245.102V135.227H274.444V127.162Z" fill="#455A64"/>
<path d="M248.436 2.62939H49.5684V168.002H248.436V2.62939Z" fill="#DBDBDB"/>
<path d="M246.99 4.64551H51.0137V165.986H246.99V4.64551Z" fill="#263238"/>
<path d="M274.333 206.416H23.666V217.872H274.333V206.416Z" fill="#C7C7C7"/>
<path d="M23.666 206.416L49.5677 168.002H248.432L274.333 206.416H23.666Z" fill="#DBDBDB"/>
<path d="M248.423 185.417H50.3271L60.4827 168.002H238.267L248.423 185.417Z" fill="#263238"/>
<path d="M244.874 179.331H53.875L54.2869 178.622H244.463L244.874 179.331Z" fill="#37474F"/>
<path d="M241.164 172.973H57.5869L57.9988 172.258H240.752L241.164 172.973Z" fill="#37474F"/>
<path d="M118.335 202.096L124.754 189.839H173.549L180.418 202.096H118.335Z" fill="#263238"/>
<path d="M167.384 211.019H131.365L130.473 206.416H168.28L167.384 211.019Z" fill="#DBDBDB"/>
<path d="M236.062 16.9023H61.9414V153.958H236.062V16.9023Z" fill="#37474F"/>
<path d="M236.062 16.9023H61.9414V22.1774H236.062V16.9023Z" fill="#FFC727"/>
<path d="M65.9318 19.5379C65.9318 19.7352 65.8847 19.9281 65.7966 20.0921C65.7084 20.2561 65.5831 20.3839 65.4365 20.4594C65.2899 20.5349 65.1286 20.5547 64.9729 20.5162C64.8173 20.4777 64.6743 20.3827 64.5621 20.2432C64.4499 20.1037 64.3735 19.926 64.3426 19.7325C64.3116 19.5391 64.3275 19.3385 64.3882 19.1563C64.4489 18.974 64.5518 18.8182 64.6837 18.7086C64.8157 18.599 64.9708 18.5405 65.1295 18.5405C65.235 18.5398 65.3396 18.5651 65.4372 18.615C65.5348 18.6649 65.6234 18.7383 65.6981 18.8311C65.7727 18.9239 65.8318 19.0341 65.8719 19.1554C65.912 19.2768 65.9324 19.4068 65.9318 19.5379Z" fill="#C7C7C7"/>
<path d="M69.1955 19.5379C69.1955 19.7352 69.1484 19.9281 69.0602 20.0921C68.9721 20.2561 68.8468 20.3839 68.7002 20.4594C68.5536 20.5349 68.3923 20.5547 68.2366 20.5162C68.081 20.4777 67.938 20.3827 67.8258 20.2432C67.7136 20.1037 67.6372 19.926 67.6062 19.7325C67.5753 19.5391 67.5912 19.3385 67.6519 19.1563C67.7126 18.974 67.8155 18.8182 67.9474 18.7086C68.0793 18.599 68.2345 18.5405 68.3931 18.5405C68.4987 18.5398 68.6032 18.5651 68.7008 18.615C68.7984 18.6649 68.8871 18.7383 68.9617 18.8311C69.0364 18.9239 69.0954 19.0341 69.1355 19.1554C69.1757 19.2768 69.196 19.4068 69.1955 19.5379Z" fill="white"/>
<path d="M72.4875 19.5379C72.4875 19.7352 72.4404 19.9281 72.3522 20.0921C72.2641 20.2561 72.1388 20.3839 71.9922 20.4594C71.8456 20.5349 71.6842 20.5547 71.5286 20.5162C71.373 20.4777 71.23 20.3827 71.1178 20.2432C71.0056 20.1037 70.9292 19.926 70.8982 19.7325C70.8673 19.5391 70.8832 19.3385 70.9439 19.1563C71.0046 18.974 71.1074 18.8182 71.2394 18.7086C71.3713 18.599 71.5265 18.5405 71.6851 18.5405C71.7907 18.5398 71.8952 18.5651 71.9928 18.615C72.0904 18.6649 72.1791 18.7383 72.2537 18.8311C72.3283 18.9239 72.3874 19.0341 72.4275 19.1554C72.4677 19.2768 72.488 19.4068 72.4875 19.5379Z" fill="#455A64"/>
<path d="M77.9661 45.6089H73.0664V47.4597H77.9661V45.6089Z" fill="#EBEBEB"/>
<path d="M192.338 45.6089H83.7461V47.4597H192.338V45.6089Z" fill="#EBEBEB"/>
<path d="M204.656 45.6089H195.35V47.4597H204.656V45.6089Z" fill="#FFC727"/>
<path d="M77.9661 54.3613H73.0664V56.2121H77.9661V54.3613Z" fill="#EBEBEB"/>
<path d="M125.397 54.3613H88.5205V56.2121H125.397V54.3613Z" fill="#A6A6A6"/>
<path d="M208.028 89.3828H194.08V91.2336H208.028V89.3828Z" fill="#A6A6A6"/>
<path d="M118.971 80.625H83.7461V82.4758H118.971V80.625Z" fill="#A6A6A6"/>
<path d="M113.234 63.1191H88.5205V64.9699H113.234V63.1191Z" fill="#FFC727"/>
<path d="M207.837 63.1191H115.978V64.9699H207.837V63.1191Z" fill="#A6A6A6"/>
<path d="M190.892 89.3828H83.7461V91.2336H190.892V89.3828Z" fill="#FFC727"/>
<path d="M203.617 54.3613H127.714V56.2121H203.617V54.3613Z" fill="#EBEBEB"/>
<path d="M77.9661 63.1191H73.0664V64.9699H77.9661V63.1191Z" fill="#EBEBEB"/>
<path d="M77.9661 71.8721H73.0664V73.7229H77.9661V71.8721Z" fill="#A6A6A6"/>
<path d="M112.698 71.8721H83.7461V73.7229H112.698V71.8721Z" fill="#EBEBEB"/>
<path d="M117.473 98.1357H88.5205V99.9866H117.473V98.1357Z" fill="#EBEBEB"/>
<path d="M192.371 106.893H114.7V108.744H192.371V106.893Z" fill="#EBEBEB"/>
<path d="M110.282 106.893H88.5205V108.744H110.282V106.893Z" fill="#A6A6A6"/>
<path d="M204.651 80.625H120.961V82.4758H204.651V80.625Z" fill="#EBEBEB"/>
<path d="M199.296 71.8721H115.641V73.7229H199.296V71.8721Z" fill="#FFC727"/>
<path d="M77.9661 80.625H73.0664V82.4758H77.9661V80.625Z" fill="#EBEBEB"/>
<path d="M77.9661 89.3828H73.0664V91.2336H77.9661V89.3828Z" fill="#EBEBEB"/>
<path d="M77.9661 98.1357H73.0664V99.9866H77.9661V98.1357Z" fill="#A6A6A6"/>
<path d="M77.9661 106.893H73.0664V108.744H77.9661V106.893Z" fill="#EBEBEB"/>
<path d="M77.9661 114.841H73.0664V116.692H77.9661V114.841Z" fill="#EBEBEB"/>
<path d="M141.187 114.841H83.7461V116.692H141.187V114.841Z" fill="#EBEBEB"/>
<path d="M76.1045 37.032L77.16 33.9064C77.1721 33.8704 77.1899 33.8378 77.2123 33.8105C77.2347 33.7832 77.2613 33.7617 77.2905 33.7473C77.3196 33.7329 77.3508 33.7259 77.3822 33.7266C77.4136 33.7274 77.4445 33.7359 77.4732 33.7517C77.5014 33.7663 77.5271 33.7877 77.5487 33.8147C77.5702 33.8416 77.5873 33.8736 77.5989 33.9088C77.6104 33.9441 77.6163 33.9818 77.6161 34.0198C77.6159 34.0578 77.6096 34.0954 77.5976 34.1304L76.5379 37.2613C76.5193 37.3141 76.4887 37.359 76.4498 37.3903C76.4109 37.4216 76.3654 37.438 76.3191 37.4373C76.2908 37.4448 76.2615 37.4448 76.2332 37.4373C76.2018 37.4237 76.1732 37.4018 76.1492 37.3731C76.1252 37.3444 76.1065 37.3097 76.0943 37.2713C76.0821 37.2328 76.0767 37.1915 76.0785 37.1502C76.0802 37.1089 76.0891 37.0686 76.1045 37.032Z" fill="#FFC727"/>
<path d="M79.682 35.7679L79.652 35.8106L78.4335 37.336C78.3815 37.398 78.3124 37.4325 78.2404 37.4325C78.1684 37.4325 78.0993 37.398 78.0473 37.336C78.0216 37.3047 78.0012 37.2674 77.9873 37.2262C77.9734 37.185 77.9662 37.1407 77.9662 37.096C77.9662 37.0513 77.9734 37.007 77.9873 36.9658C78.0012 36.9246 78.0216 36.8873 78.0473 36.856L79.0642 35.5759L78.043 34.2958C78.0174 34.2645 77.997 34.2272 77.983 34.1859C77.9691 34.1447 77.9619 34.1005 77.9619 34.0558C77.9619 34.0111 77.9691 33.9668 77.983 33.9256C77.997 33.8844 78.0174 33.847 78.043 33.8158C78.095 33.7538 78.1642 33.7192 78.2361 33.7192C78.3081 33.7192 78.3773 33.7538 78.4292 33.8158L79.6434 35.3412L79.6734 35.3785C79.6813 35.394 79.6885 35.41 79.6949 35.4265C79.6936 35.4425 79.6936 35.4586 79.6949 35.4746V35.5119V35.5546C79.6942 35.5706 79.6942 35.5866 79.6949 35.6026L79.682 35.7679Z" fill="#FFC727"/>
<path d="M145.047 110.771H144.378V120.761H145.047V110.771Z" fill="#EBEBEB"/>
<path d="M87.9853 226.07C87.9853 226.07 104.877 216.736 107.657 215.157C113.235 211.994 123.223 202.25 127.496 198.82C129.993 196.815 127.998 190.035 120.404 191.188C112.81 192.34 98.6514 201.535 97.4329 199.556C96.2144 197.577 115.882 182.888 118.641 181.704C121.4 180.52 130.508 185.128 136.013 182.771C141.518 180.413 138.647 174.333 134.262 172.045C128.453 169.01 117.388 167.074 113.316 167.074C109.245 167.074 96.7164 178.403 96.7164 178.403C96.7164 178.403 113.612 170.141 115.702 168.61C117.791 167.079 127.848 166.839 134.207 164.007C140.565 161.175 136.412 153.078 125.78 153.195C119.529 153.188 113.29 153.863 107.134 155.211C104.13 155.777 85.9902 170.711 85.9902 170.711C85.9902 170.711 89.5041 169.767 90.9286 169.175C92.353 168.583 106.503 157.5 108.468 156.209C115.886 151.328 121.134 144.8 118.765 140.682C117.049 137.69 107.147 141.514 102.324 144.949C95.9141 149.51 77.7439 166.231 77.7439 166.231L100.518 147.12C100.518 147.12 98.6772 145.221 92.5589 146.896C88.9421 147.888 74.1099 158.908 71.7544 161.143C64.6322 167.89 45.4795 196.927 45.4795 196.927L61.144 221.915L87.9853 226.07Z" fill="#D3766A"/>
<path d="M78.808 165.565C84.1797 159.986 88.5603 153.697 99.9944 146.897C100.033 146.897 99.9944 146.753 99.9515 146.763C91.7996 149.355 84.1068 157.596 78.6321 165.266C78.4519 165.549 78.5935 165.783 78.808 165.565Z" fill="#263238"/>
<path d="M86.8168 170.578C91.575 167.047 97.0796 162.305 102.765 158.844C105.553 157.142 106.755 156.796 110.749 154.625C110.788 154.625 110.749 154.497 110.715 154.507C107.098 155.649 106.502 155.516 102.619 157.34C97.5645 159.713 89.271 167.351 86.6538 170.349C86.4478 170.583 86.5637 170.759 86.8168 170.578Z" fill="#263238"/>
<path d="M95.609 177.907C100.758 175.326 107.009 170.69 112.32 168.557C113.651 168.024 115.684 167.682 118.726 167.682C118.889 167.682 119.091 167.458 118.705 167.373C116.13 166.786 113.578 166.84 111.99 167.373C106.781 169.181 98.4322 175.182 95.4803 177.646C95.2486 177.848 95.3387 178.046 95.609 177.907Z" fill="#263238"/>
<path d="M87.9849 226.075L77.4861 246.909H0L45.4619 196.927L84.2908 191.598L87.9849 226.075Z" fill="#D3766A"/>
<path d="M77.4861 246.909L80.262 241.394L22.2848 222.406L0 246.909H77.4861Z" fill="#FFC727"/>
<path opacity="0.1" d="M77.4861 246.909L80.262 241.394L22.2848 222.406L0 246.909H77.4861Z" fill="black"/>
<path opacity="0.1" d="M0.50293 246.355L2.6825 243.955V246.904H0.50293V246.355Z" fill="black"/>
<path opacity="0.1" d="M76.9247 240.301V246.904H74.7451V239.586L76.9247 240.301Z" fill="black"/>
<path opacity="0.1" d="M62.0742 235.437L69.1706 237.762H62.0742V246.904H59.8946V237.762H47.2248V246.904H45.0453V237.762H32.3755V246.904H30.1959V237.762H17.5304V246.904H15.3508V237.762H8.31445L10.7815 235.053H15.3508V230.028L17.5304 227.633V235.053H30.1959V224.999L32.3755 225.713V235.053H45.0453V229.863L47.2248 230.572V235.053H59.8946V234.722L60.8986 235.053H62.0742V235.437Z" fill="black"/>
<path d="M12.0947 230.988L80.2619 244.466L86.5517 232.407L25.7814 215.659L12.0947 230.988Z" fill="#DDBC5A"/>
<path d="M203.248 215.072C203.248 215.072 187.854 205.578 184.966 204.341C179.183 201.855 170.31 191.465 165.788 188.563C163.149 186.867 164.612 179.88 172.262 180.12C179.912 180.36 188.399 188.227 188.776 187.438C189.81 185.305 172.134 175.421 169.302 174.573C166.47 173.725 157.623 176.611 151.96 174.92C146.296 173.229 148.686 166.839 152.874 164.034C158.421 160.3 169.418 159.863 173.468 159.372C177.518 158.881 190.866 168.669 190.866 168.669C190.866 168.669 173.412 162.465 171.211 161.201C169.01 159.937 158.983 160.892 152.436 158.833C145.889 156.774 149.398 148.219 159.987 147.067C166.21 146.32 172.474 146.252 178.707 146.864C181.757 147.067 200.948 159.767 200.948 159.767C200.948 159.767 197.379 159.233 195.916 158.828C194.453 158.422 179.509 149.067 177.467 148.016C169.697 144.011 163.973 138.144 166.024 133.775C167.517 130.575 177.651 133.215 182.714 136.053C189.45 139.829 208.826 154.3 208.826 154.3L183.018 137.285C183.018 137.285 184.207 134.239 187.892 134.682C201.06 136.282 211.881 146.555 214.399 148.502C222.01 154.369 243.321 180.984 243.321 180.984L229.995 206.415L203.248 215.072Z" fill="#D3766A"/>
<path d="M209.066 152.219C203.107 147.824 195.465 141.983 183.572 136.474C183.534 136.474 183.546 136.367 183.572 136.378C191.694 138.623 202.785 145.114 209.169 152.022C209.397 152.23 209.311 152.39 209.066 152.219Z" fill="#263238"/>
<path d="M200.116 159.692C195.109 156.753 189.261 152.689 183.336 149.921C180.427 148.561 179.209 148.358 175.064 146.673C175.021 146.673 175.043 146.545 175.09 146.555C178.78 147.259 179.359 147.051 183.366 148.406C188.579 150.166 197.426 156.775 200.262 159.447C200.485 159.655 200.382 159.847 200.116 159.692Z" fill="#263238"/>
<path d="M191.93 168.045C186.618 166.082 180.028 162.215 174.575 160.732C173.211 160.359 167.817 160.097 164.788 160.46C164.625 160.46 164.411 160.284 164.788 160.151C167.32 159.255 173.198 159.159 174.819 159.516C180.14 160.695 188.918 165.671 192.046 167.773C192.29 167.938 192.213 168.146 191.93 168.045Z" fill="#263238"/>
<path d="M298 246.995L243.322 180.984L208.934 182.851L203.249 215.072L218.793 246.995H298Z" fill="#D3766A"/>
<path d="M218.793 246.994L209.517 227.948L257.261 197.812L297.999 246.994H218.793Z" fill="#FFC727"/>
<path opacity="0.1" d="M218.793 246.994L209.517 227.948L257.261 197.812L297.999 246.994H218.793Z" fill="black"/>
<path opacity="0.1" d="M259.771 200.842H252.477L256.767 198.132H257.548L259.333 200.266L259.771 200.842ZM272.814 216.592H227.433V216.64L223.216 219.307H275.058L274.157 218.24L272.814 216.592ZM288.105 235.052H212.974L214.296 237.762H290.349L289.006 236.162L288.105 235.052ZM288.105 235.052L286.818 233.511V247H288.997V236.14L288.105 235.052ZM272.814 216.592L271.956 215.579V247H274.135V218.198L272.814 216.592ZM257.548 198.132L257.282 197.812L257.119 197.881V246.984H259.303V200.287L257.548 198.132ZM242.304 207.263V247H244.484V205.882L242.304 207.263ZM227.515 216.592H227.442V246.994H229.621V215.259L227.515 216.592ZM212.584 226.011V234.247L212.974 235.052L214.296 237.762L214.764 238.727V224.635L212.584 226.011Z" fill="black"/>
<path d="M205.849 226.257L214.125 241.395L272.051 212.144L256.356 194.687L205.849 226.257Z" fill="#DDBC5A"/>
</svg>
