<svg width="22" height="18" viewBox="0 0 22 18" fill="none" xmlns="http://www.w3.org/2000/svg">
<path d="M6.325 2.25C6.325 3.49152 5.46219 4.5 4.4 4.5C3.33678 4.5 2.475 3.49152 2.475 2.25C2.475 1.00728 3.33678 0 4.4 0C5.46219 0 6.325 1.00728 6.325 2.25ZM7.16375 6.60134C6.14281 7.66205 5.5 9.20893 5.5 10.9286C5.5 12.3067 5.88156 13.5723 6.6 14.5647V15.4286C6.6 16.1397 6.10844 16.7143 5.5 16.7143H3.3C2.69259 16.7143 2.2 16.1397 2.2 15.4286V14.3518C0.89925 13.6286 0 12.0817 0 10.2857C0 7.79866 1.72356 5.78571 3.85 5.78571H4.95C5.74406 5.78571 6.53813 6.08705 7.16375 6.60134ZM2.2 8.58616C1.85763 9.03616 1.65 9.63482 1.65 10.2857C1.65 10.9366 1.85763 11.5353 2.2 11.9853V8.58616ZM15.4 15.4286V14.5647C16.0875 13.5723 16.5 12.3067 16.5 10.9286C16.5 9.20893 15.8572 7.66205 14.8363 6.60134C15.4619 6.08705 16.225 5.78571 17.05 5.78571H18.15C20.2778 5.78571 22 7.79866 22 10.2857C22 12.0817 21.0994 13.6286 19.8 14.3518V15.4286C19.8 16.1397 19.3084 16.7143 18.7 16.7143H16.5C15.8916 16.7143 15.4 16.1397 15.4 15.4286ZM19.8 11.9853C20.1128 11.5353 20.35 10.9366 20.35 10.2857C20.35 9.63482 20.1128 9.03616 19.8 8.58616V11.9853ZM19.525 2.25C19.525 3.49152 18.6622 4.5 17.6 4.5C16.5378 4.5 15.675 3.49152 15.675 2.25C15.675 1.00728 16.5378 0 17.6 0C18.6622 0 19.525 1.00728 19.525 2.25ZM8.8 2.57143C8.8 1.15112 9.78656 0 11 0C12.2134 0 13.2 1.15112 13.2 2.57143C13.2 3.98973 12.2134 5.14286 11 5.14286C9.78656 5.14286 8.8 3.98973 8.8 2.57143ZM15.4 10.9286C15.4 12.7246 14.4994 14.2714 13.2 14.9946V16.7143C13.2 17.4254 12.7084 18 12.1 18H9.9C9.29156 18 8.8 17.4254 8.8 16.7143V14.9946C7.50063 14.2714 6.6 12.7246 6.6 10.9286C6.6 8.44152 8.32219 6.42857 10.45 6.42857H11.55C13.6778 6.42857 15.4 8.44152 15.4 10.9286ZM8.8 12.6281V9.22902C8.45625 9.67902 8.25 10.2777 8.25 10.9286C8.25 11.5795 8.45625 12.1781 8.8 12.6281ZM13.2 9.22902V12.6281C13.5128 12.1741 13.75 11.5795 13.75 10.9286C13.75 10.2777 13.5128 9.67902 13.2 9.22902Z" fill="#000B2A" fill-opacity="0.88"/>
</svg>
