<svg width="31" height="39" viewBox="0 0 31 39" fill="none" xmlns="http://www.w3.org/2000/svg">
<path fill-rule="evenodd" clip-rule="evenodd" d="M6.62981 28.9002H4.7498V31.2502H6.62981C7.33481 31.2502 7.8048 30.7802 7.8048 30.0752C7.8048 29.3702 7.33481 28.9002 6.62981 28.9002ZM18.8498 0.700195H0.0498047V38.3002H30.5998V12.4502L18.8498 0.700195ZM9.9198 30.3102C9.9198 32.1902 8.5098 33.6002 6.62981 33.6002H4.7498V35.9502H2.3998V26.5502H6.62981C8.5098 26.5502 9.9198 27.9602 9.9198 29.8402V30.3102ZM19.5548 31.4852C19.5548 33.8352 17.6748 35.9502 15.0898 35.9502H11.7998V26.5502H15.0898C17.4398 26.5502 19.5548 28.4302 19.5548 31.0152V31.4852ZM28.2498 28.9002H23.5498V31.2502H27.0748V33.6002H23.5498V35.9502H21.1998V26.5502H28.2498V28.9002ZM28.2498 24.2002H2.3998V3.0502H18.8498V12.4502H28.2498V24.2002ZM15.0898 28.9002H14.1498V33.6002H15.0898C16.4998 33.6002 17.4398 32.6602 17.4398 31.2502C17.4398 29.8402 16.2648 28.9002 15.0898 28.9002Z" fill="#F24E1E"/>
</svg>
