<svg width="17" height="20" viewBox="0 0 17 20" fill="none" xmlns="http://www.w3.org/2000/svg">
<path fill-rule="evenodd" clip-rule="evenodd" d="M3.9601 14.7999H3.0001V15.9999H3.9601C4.3201 15.9999 4.5601 15.7599 4.5601 15.3999C4.5601 15.0399 4.3201 14.7999 3.9601 14.7999ZM10.2001 0.399902H0.600098V19.5999H16.2001V6.3999L10.2001 0.399902ZM5.6401 15.5199C5.6401 16.4799 4.9201 17.1999 3.9601 17.1999H3.0001V18.3999H1.8001V13.5999H3.9601C4.9201 13.5999 5.6401 14.3199 5.6401 15.2799V15.5199ZM10.5601 16.1199C10.5601 17.3199 9.6001 18.3999 8.2801 18.3999H6.6001V13.5999H8.2801C9.4801 13.5999 10.5601 14.5599 10.5601 15.8799V16.1199ZM15.0001 14.7999H12.6001V15.9999H14.4001V17.1999H12.6001V18.3999H11.4001V13.5999H15.0001V14.7999ZM15.0001 12.3999H1.8001V1.5999H10.2001V6.3999H15.0001V12.3999ZM8.2801 14.7999H7.8001V17.1999H8.2801C9.0001 17.1999 9.4801 16.7199 9.4801 15.9999C9.4801 15.2799 8.8801 14.7999 8.2801 14.7999Z" fill="#F24E1E"/>
</svg>
