<svg width="24" height="14" viewBox="0 0 24 14" fill="none" xmlns="http://www.w3.org/2000/svg">
<path d="M22.8 0.25H1.2C0.537375 0.25 0 0.753789 0 1.375V12.625C0 13.2462 0.537375 13.75 1.2 13.75H22.8C23.4626 13.75 24 13.2462 24 12.625V1.375C24 0.753789 23.4626 0.25 22.8 0.25ZM1.8 12.0625V9.8125C3.12563 9.8125 4.2 10.8197 4.2 12.0625H1.8ZM1.8 4.1875V1.9375H4.2C4.2 3.18027 3.12563 4.1875 1.8 4.1875ZM12 10.375C10.3429 10.375 9 8.86363 9 7C9 5.13602 10.3433 3.625 12 3.625C13.6568 3.625 15 5.13602 15 7C15 8.86434 13.6564 10.375 12 10.375ZM22.2 12.0625H19.8C19.8 10.8197 20.8744 9.8125 22.2 9.8125V12.0625ZM22.2 4.1875C20.8744 4.1875 19.8 3.18027 19.8 1.9375H22.2V4.1875Z" fill="#1F2944"/>
</svg>
