<svg width="320" height="396" viewBox="0 0 320 396" fill="none" xmlns="http://www.w3.org/2000/svg">
<path d="M20 309.12L38.1866 0H1.81348L20 309.12Z" fill="url(#paint0_linear_501_43878)" fill-opacity="0.06"/>
<path d="M20 362.88L38.1866 672H1.81348L20 362.88Z" fill="url(#paint1_linear_501_43878)" fill-opacity="0.06"/>
<path d="M20 362.88L1.81348 672H38.1866L20 362.88Z" fill="url(#paint2_linear_501_43878)" fill-opacity="0.06"/>
<path d="M20 309.12L1.81348 0H38.1866L20 309.12Z" fill="url(#paint3_linear_501_43878)" fill-opacity="0.06"/>
<path d="M44 336L320 356.369V315.631L44 336Z" fill="url(#paint4_linear_501_43878)" fill-opacity="0.06"/>
<path d="M-4 336L-280 356.369L-280 315.631L-4 336Z" fill="url(#paint5_linear_501_43878)" fill-opacity="0.06"/>
<path d="M-4 336L-280 315.631L-280 356.369L-4 336Z" fill="url(#paint6_linear_501_43878)" fill-opacity="0.06"/>
<path d="M44 336L320 315.631V356.369L44 336Z" fill="url(#paint7_linear_501_43878)" fill-opacity="0.06"/>
<path d="M3.02948 316.993L-179.272 84.0092L-204.992 112.815L3.02948 316.993Z" fill="url(#paint8_linear_501_43878)" fill-opacity="0.06"/>
<path d="M36.9706 355.007L244.992 559.185L219.272 587.991L36.9706 355.007Z" fill="url(#paint9_linear_501_43878)" fill-opacity="0.06"/>
<path d="M36.9706 355.007L219.272 587.991L244.992 559.185L36.9706 355.007Z" fill="url(#paint10_linear_501_43878)" fill-opacity="0.06"/>
<path d="M3.02948 316.993L-204.992 112.815L-179.272 84.0092L3.02948 316.993Z" fill="url(#paint11_linear_501_43878)" fill-opacity="0.06"/>
<path d="M36.9706 316.993L244.992 112.815L219.272 84.0092L36.9706 316.993Z" fill="url(#paint12_linear_501_43878)" fill-opacity="0.06"/>
<path d="M3.02948 355.007L-179.272 587.991L-204.992 559.185L3.02948 355.007Z" fill="url(#paint13_linear_501_43878)" fill-opacity="0.06"/>
<path d="M3.02948 355.007L-204.992 559.185L-179.272 587.991L3.02948 355.007Z" fill="url(#paint14_linear_501_43878)" fill-opacity="0.06"/>
<path d="M36.9706 316.993L219.272 84.0092L244.992 112.815L36.9706 316.993Z" fill="url(#paint15_linear_501_43878)" fill-opacity="0.06"/>
<path d="M26.2117 310.036L115.213 16.7207L80.0789 6.17702L26.2117 310.036Z" fill="url(#paint16_linear_501_43878)" fill-opacity="0.06"/>
<path d="M13.7883 361.964L-40.0789 665.823L-75.2125 655.279L13.7883 361.964Z" fill="url(#paint17_linear_501_43878)" fill-opacity="0.06"/>
<path d="M13.7883 361.964L-75.2125 655.279L-40.0789 665.823L13.7883 361.964Z" fill="url(#paint18_linear_501_43878)" fill-opacity="0.06"/>
<path d="M26.2117 310.036L80.0789 6.17702L115.213 16.7207L26.2117 310.036Z" fill="url(#paint19_linear_501_43878)" fill-opacity="0.06"/>
<path d="M43.1822 342.957L305.071 442.638L314.485 403.288L43.1822 342.957Z" fill="url(#paint20_linear_501_43878)" fill-opacity="0.06"/>
<path d="M-3.18222 329.043L-274.485 268.712L-265.071 229.362L-3.18222 329.043Z" fill="url(#paint21_linear_501_43878)" fill-opacity="0.06"/>
<path d="M-3.18222 329.043L-265.071 229.362L-274.485 268.712L-3.18222 329.043Z" fill="url(#paint22_linear_501_43878)" fill-opacity="0.06"/>
<path d="M43.1822 342.957L314.485 403.288L305.071 442.638L43.1822 342.957Z" fill="url(#paint23_linear_501_43878)" fill-opacity="0.06"/>
<path d="M8.00003 312.721L-114.25 34.8311L-145.75 55.2L8.00003 312.721Z" fill="url(#paint24_linear_501_43878)" fill-opacity="0.06"/>
<path d="M32 359.279L185.75 616.8L154.25 637.169L32 359.279Z" fill="url(#paint25_linear_501_43878)" fill-opacity="0.06"/>
<path d="M32 359.279L154.25 637.169L185.75 616.8L32 359.279Z" fill="url(#paint26_linear_501_43878)" fill-opacity="0.06"/>
<path d="M8.00003 312.721L-145.75 55.2L-114.25 34.8311L8.00003 312.721Z" fill="url(#paint27_linear_501_43878)" fill-opacity="0.06"/>
<path d="M40.7846 322.56L288.901 185.64L270.714 150.36L40.7846 322.56Z" fill="url(#paint28_linear_501_43878)" fill-opacity="0.06"/>
<path d="M-0.784576 349.44L-230.714 521.64L-248.901 486.36L-0.784576 349.44Z" fill="url(#paint29_linear_501_43878)" fill-opacity="0.06"/>
<path d="M-0.784576 349.44L-248.901 486.36L-230.714 521.64L-0.784576 349.44Z" fill="url(#paint30_linear_501_43878)" fill-opacity="0.06"/>
<path d="M40.7846 322.56L270.714 150.36L288.901 185.64L40.7846 322.56Z" fill="url(#paint31_linear_501_43878)" fill-opacity="0.06"/>
<path d="M32 312.721L185.75 55.1999L154.25 34.831L32 312.721Z" fill="url(#paint32_linear_501_43878)" fill-opacity="0.06"/>
<path d="M8.00003 359.279L-114.25 637.169L-145.75 616.8L8.00003 359.279Z" fill="url(#paint33_linear_501_43878)" fill-opacity="0.06"/>
<path d="M8.00003 359.279L-145.75 616.8L-114.25 637.169L8.00003 359.279Z" fill="url(#paint34_linear_501_43878)" fill-opacity="0.06"/>
<path d="M32 312.721L154.25 34.831L185.75 55.1999L32 312.721Z" fill="url(#paint35_linear_501_43878)" fill-opacity="0.06"/>
<path d="M40.7846 349.44L270.714 521.64L288.901 486.36L40.7846 349.44Z" fill="url(#paint36_linear_501_43878)" fill-opacity="0.06"/>
<path d="M-0.784576 322.56L-248.901 185.64L-230.714 150.36L-0.784576 322.56Z" fill="url(#paint37_linear_501_43878)" fill-opacity="0.06"/>
<path d="M-0.784576 322.56L-230.714 150.36L-248.901 185.64L-0.784576 322.56Z" fill="url(#paint38_linear_501_43878)" fill-opacity="0.06"/>
<path d="M40.7846 349.44L288.901 486.36L270.714 521.64L40.7846 349.44Z" fill="url(#paint39_linear_501_43878)" fill-opacity="0.06"/>
<path d="M13.7883 310.036L-40.0789 6.17718L-75.2125 16.7209L13.7883 310.036Z" fill="url(#paint40_linear_501_43878)" fill-opacity="0.06"/>
<path d="M26.2117 361.964L115.213 655.279L80.0789 665.823L26.2117 361.964Z" fill="url(#paint41_linear_501_43878)" fill-opacity="0.06"/>
<path d="M26.2117 361.964L80.0789 665.823L115.213 655.279L26.2117 361.964Z" fill="url(#paint42_linear_501_43878)" fill-opacity="0.06"/>
<path d="M13.7883 310.036L-75.2125 16.7209L-40.0789 6.17718L13.7883 310.036Z" fill="url(#paint43_linear_501_43878)" fill-opacity="0.06"/>
<path d="M43.1822 329.043L314.485 268.712L305.071 229.362L43.1822 329.043Z" fill="url(#paint44_linear_501_43878)" fill-opacity="0.06"/>
<path d="M-3.18219 342.957L-265.071 442.638L-274.485 403.288L-3.18219 342.957Z" fill="url(#paint45_linear_501_43878)" fill-opacity="0.06"/>
<path d="M-3.18219 342.957L-274.485 403.288L-265.071 442.638L-3.18219 342.957Z" fill="url(#paint46_linear_501_43878)" fill-opacity="0.06"/>
<path d="M43.1822 329.043L305.071 229.362L314.485 268.712L43.1822 329.043Z" fill="url(#paint47_linear_501_43878)" fill-opacity="0.06"/>
<defs>
<linearGradient id="paint0_linear_501_43878" x1="311.667" y1="10.2636" x2="-303.273" y2="649.616" gradientUnits="userSpaceOnUse">
<stop offset="0.395833" stop-color="#0A1E3F"/>
<stop offset="0.78125" stop-color="#14528E"/>
</linearGradient>
<linearGradient id="paint1_linear_501_43878" x1="311.667" y1="10.2636" x2="-303.273" y2="649.616" gradientUnits="userSpaceOnUse">
<stop offset="0.395833" stop-color="#0A1E3F"/>
<stop offset="0.78125" stop-color="#14528E"/>
</linearGradient>
<linearGradient id="paint2_linear_501_43878" x1="311.667" y1="10.2636" x2="-303.273" y2="649.616" gradientUnits="userSpaceOnUse">
<stop offset="0.395833" stop-color="#0A1E3F"/>
<stop offset="0.78125" stop-color="#14528E"/>
</linearGradient>
<linearGradient id="paint3_linear_501_43878" x1="311.667" y1="10.2636" x2="-303.273" y2="649.616" gradientUnits="userSpaceOnUse">
<stop offset="0.395833" stop-color="#0A1E3F"/>
<stop offset="0.78125" stop-color="#14528E"/>
</linearGradient>
<linearGradient id="paint4_linear_501_43878" x1="311.667" y1="10.2636" x2="-303.273" y2="649.616" gradientUnits="userSpaceOnUse">
<stop offset="0.395833" stop-color="#0A1E3F"/>
<stop offset="0.78125" stop-color="#14528E"/>
</linearGradient>
<linearGradient id="paint5_linear_501_43878" x1="311.667" y1="10.2636" x2="-303.273" y2="649.616" gradientUnits="userSpaceOnUse">
<stop offset="0.395833" stop-color="#0A1E3F"/>
<stop offset="0.78125" stop-color="#14528E"/>
</linearGradient>
<linearGradient id="paint6_linear_501_43878" x1="311.667" y1="10.2636" x2="-303.273" y2="649.616" gradientUnits="userSpaceOnUse">
<stop offset="0.395833" stop-color="#0A1E3F"/>
<stop offset="0.78125" stop-color="#14528E"/>
</linearGradient>
<linearGradient id="paint7_linear_501_43878" x1="311.667" y1="10.2636" x2="-303.273" y2="649.616" gradientUnits="userSpaceOnUse">
<stop offset="0.395833" stop-color="#0A1E3F"/>
<stop offset="0.78125" stop-color="#14528E"/>
</linearGradient>
<linearGradient id="paint8_linear_501_43878" x1="311.667" y1="10.2636" x2="-303.273" y2="649.616" gradientUnits="userSpaceOnUse">
<stop offset="0.395833" stop-color="#0A1E3F"/>
<stop offset="0.78125" stop-color="#14528E"/>
</linearGradient>
<linearGradient id="paint9_linear_501_43878" x1="311.667" y1="10.2636" x2="-303.273" y2="649.616" gradientUnits="userSpaceOnUse">
<stop offset="0.395833" stop-color="#0A1E3F"/>
<stop offset="0.78125" stop-color="#14528E"/>
</linearGradient>
<linearGradient id="paint10_linear_501_43878" x1="311.667" y1="10.2636" x2="-303.273" y2="649.616" gradientUnits="userSpaceOnUse">
<stop offset="0.395833" stop-color="#0A1E3F"/>
<stop offset="0.78125" stop-color="#14528E"/>
</linearGradient>
<linearGradient id="paint11_linear_501_43878" x1="311.667" y1="10.2636" x2="-303.273" y2="649.616" gradientUnits="userSpaceOnUse">
<stop offset="0.395833" stop-color="#0A1E3F"/>
<stop offset="0.78125" stop-color="#14528E"/>
</linearGradient>
<linearGradient id="paint12_linear_501_43878" x1="311.667" y1="10.2636" x2="-303.273" y2="649.616" gradientUnits="userSpaceOnUse">
<stop offset="0.395833" stop-color="#0A1E3F"/>
<stop offset="0.78125" stop-color="#14528E"/>
</linearGradient>
<linearGradient id="paint13_linear_501_43878" x1="311.667" y1="10.2636" x2="-303.273" y2="649.616" gradientUnits="userSpaceOnUse">
<stop offset="0.395833" stop-color="#0A1E3F"/>
<stop offset="0.78125" stop-color="#14528E"/>
</linearGradient>
<linearGradient id="paint14_linear_501_43878" x1="311.667" y1="10.2636" x2="-303.273" y2="649.616" gradientUnits="userSpaceOnUse">
<stop offset="0.395833" stop-color="#0A1E3F"/>
<stop offset="0.78125" stop-color="#14528E"/>
</linearGradient>
<linearGradient id="paint15_linear_501_43878" x1="311.667" y1="10.2636" x2="-303.273" y2="649.616" gradientUnits="userSpaceOnUse">
<stop offset="0.395833" stop-color="#0A1E3F"/>
<stop offset="0.78125" stop-color="#14528E"/>
</linearGradient>
<linearGradient id="paint16_linear_501_43878" x1="311.667" y1="10.2636" x2="-303.273" y2="649.616" gradientUnits="userSpaceOnUse">
<stop offset="0.395833" stop-color="#0A1E3F"/>
<stop offset="0.78125" stop-color="#14528E"/>
</linearGradient>
<linearGradient id="paint17_linear_501_43878" x1="311.667" y1="10.2636" x2="-303.273" y2="649.616" gradientUnits="userSpaceOnUse">
<stop offset="0.395833" stop-color="#0A1E3F"/>
<stop offset="0.78125" stop-color="#14528E"/>
</linearGradient>
<linearGradient id="paint18_linear_501_43878" x1="311.667" y1="10.2636" x2="-303.273" y2="649.616" gradientUnits="userSpaceOnUse">
<stop offset="0.395833" stop-color="#0A1E3F"/>
<stop offset="0.78125" stop-color="#14528E"/>
</linearGradient>
<linearGradient id="paint19_linear_501_43878" x1="311.667" y1="10.2636" x2="-303.273" y2="649.616" gradientUnits="userSpaceOnUse">
<stop offset="0.395833" stop-color="#0A1E3F"/>
<stop offset="0.78125" stop-color="#14528E"/>
</linearGradient>
<linearGradient id="paint20_linear_501_43878" x1="311.667" y1="10.2636" x2="-303.273" y2="649.616" gradientUnits="userSpaceOnUse">
<stop offset="0.395833" stop-color="#0A1E3F"/>
<stop offset="0.78125" stop-color="#14528E"/>
</linearGradient>
<linearGradient id="paint21_linear_501_43878" x1="311.667" y1="10.2636" x2="-303.273" y2="649.616" gradientUnits="userSpaceOnUse">
<stop offset="0.395833" stop-color="#0A1E3F"/>
<stop offset="0.78125" stop-color="#14528E"/>
</linearGradient>
<linearGradient id="paint22_linear_501_43878" x1="311.667" y1="10.2636" x2="-303.273" y2="649.616" gradientUnits="userSpaceOnUse">
<stop offset="0.395833" stop-color="#0A1E3F"/>
<stop offset="0.78125" stop-color="#14528E"/>
</linearGradient>
<linearGradient id="paint23_linear_501_43878" x1="311.667" y1="10.2636" x2="-303.273" y2="649.616" gradientUnits="userSpaceOnUse">
<stop offset="0.395833" stop-color="#0A1E3F"/>
<stop offset="0.78125" stop-color="#14528E"/>
</linearGradient>
<linearGradient id="paint24_linear_501_43878" x1="311.667" y1="10.2636" x2="-303.273" y2="649.616" gradientUnits="userSpaceOnUse">
<stop offset="0.395833" stop-color="#0A1E3F"/>
<stop offset="0.78125" stop-color="#14528E"/>
</linearGradient>
<linearGradient id="paint25_linear_501_43878" x1="311.667" y1="10.2636" x2="-303.273" y2="649.616" gradientUnits="userSpaceOnUse">
<stop offset="0.395833" stop-color="#0A1E3F"/>
<stop offset="0.78125" stop-color="#14528E"/>
</linearGradient>
<linearGradient id="paint26_linear_501_43878" x1="311.667" y1="10.2636" x2="-303.273" y2="649.616" gradientUnits="userSpaceOnUse">
<stop offset="0.395833" stop-color="#0A1E3F"/>
<stop offset="0.78125" stop-color="#14528E"/>
</linearGradient>
<linearGradient id="paint27_linear_501_43878" x1="311.667" y1="10.2636" x2="-303.273" y2="649.616" gradientUnits="userSpaceOnUse">
<stop offset="0.395833" stop-color="#0A1E3F"/>
<stop offset="0.78125" stop-color="#14528E"/>
</linearGradient>
<linearGradient id="paint28_linear_501_43878" x1="311.667" y1="10.2636" x2="-303.273" y2="649.616" gradientUnits="userSpaceOnUse">
<stop offset="0.395833" stop-color="#0A1E3F"/>
<stop offset="0.78125" stop-color="#14528E"/>
</linearGradient>
<linearGradient id="paint29_linear_501_43878" x1="311.667" y1="10.2636" x2="-303.273" y2="649.616" gradientUnits="userSpaceOnUse">
<stop offset="0.395833" stop-color="#0A1E3F"/>
<stop offset="0.78125" stop-color="#14528E"/>
</linearGradient>
<linearGradient id="paint30_linear_501_43878" x1="311.667" y1="10.2636" x2="-303.273" y2="649.616" gradientUnits="userSpaceOnUse">
<stop offset="0.395833" stop-color="#0A1E3F"/>
<stop offset="0.78125" stop-color="#14528E"/>
</linearGradient>
<linearGradient id="paint31_linear_501_43878" x1="311.667" y1="10.2636" x2="-303.273" y2="649.616" gradientUnits="userSpaceOnUse">
<stop offset="0.395833" stop-color="#0A1E3F"/>
<stop offset="0.78125" stop-color="#14528E"/>
</linearGradient>
<linearGradient id="paint32_linear_501_43878" x1="311.667" y1="10.2636" x2="-303.273" y2="649.616" gradientUnits="userSpaceOnUse">
<stop offset="0.395833" stop-color="#0A1E3F"/>
<stop offset="0.78125" stop-color="#14528E"/>
</linearGradient>
<linearGradient id="paint33_linear_501_43878" x1="311.667" y1="10.2636" x2="-303.273" y2="649.616" gradientUnits="userSpaceOnUse">
<stop offset="0.395833" stop-color="#0A1E3F"/>
<stop offset="0.78125" stop-color="#14528E"/>
</linearGradient>
<linearGradient id="paint34_linear_501_43878" x1="311.667" y1="10.2636" x2="-303.273" y2="649.616" gradientUnits="userSpaceOnUse">
<stop offset="0.395833" stop-color="#0A1E3F"/>
<stop offset="0.78125" stop-color="#14528E"/>
</linearGradient>
<linearGradient id="paint35_linear_501_43878" x1="311.667" y1="10.2636" x2="-303.273" y2="649.616" gradientUnits="userSpaceOnUse">
<stop offset="0.395833" stop-color="#0A1E3F"/>
<stop offset="0.78125" stop-color="#14528E"/>
</linearGradient>
<linearGradient id="paint36_linear_501_43878" x1="311.667" y1="10.2636" x2="-303.273" y2="649.616" gradientUnits="userSpaceOnUse">
<stop offset="0.395833" stop-color="#0A1E3F"/>
<stop offset="0.78125" stop-color="#14528E"/>
</linearGradient>
<linearGradient id="paint37_linear_501_43878" x1="311.667" y1="10.2636" x2="-303.273" y2="649.616" gradientUnits="userSpaceOnUse">
<stop offset="0.395833" stop-color="#0A1E3F"/>
<stop offset="0.78125" stop-color="#14528E"/>
</linearGradient>
<linearGradient id="paint38_linear_501_43878" x1="311.667" y1="10.2636" x2="-303.273" y2="649.616" gradientUnits="userSpaceOnUse">
<stop offset="0.395833" stop-color="#0A1E3F"/>
<stop offset="0.78125" stop-color="#14528E"/>
</linearGradient>
<linearGradient id="paint39_linear_501_43878" x1="311.667" y1="10.2636" x2="-303.273" y2="649.616" gradientUnits="userSpaceOnUse">
<stop offset="0.395833" stop-color="#0A1E3F"/>
<stop offset="0.78125" stop-color="#14528E"/>
</linearGradient>
<linearGradient id="paint40_linear_501_43878" x1="311.667" y1="10.2636" x2="-303.273" y2="649.616" gradientUnits="userSpaceOnUse">
<stop offset="0.395833" stop-color="#0A1E3F"/>
<stop offset="0.78125" stop-color="#14528E"/>
</linearGradient>
<linearGradient id="paint41_linear_501_43878" x1="311.667" y1="10.2636" x2="-303.273" y2="649.616" gradientUnits="userSpaceOnUse">
<stop offset="0.395833" stop-color="#0A1E3F"/>
<stop offset="0.78125" stop-color="#14528E"/>
</linearGradient>
<linearGradient id="paint42_linear_501_43878" x1="311.667" y1="10.2636" x2="-303.273" y2="649.616" gradientUnits="userSpaceOnUse">
<stop offset="0.395833" stop-color="#0A1E3F"/>
<stop offset="0.78125" stop-color="#14528E"/>
</linearGradient>
<linearGradient id="paint43_linear_501_43878" x1="311.667" y1="10.2636" x2="-303.273" y2="649.616" gradientUnits="userSpaceOnUse">
<stop offset="0.395833" stop-color="#0A1E3F"/>
<stop offset="0.78125" stop-color="#14528E"/>
</linearGradient>
<linearGradient id="paint44_linear_501_43878" x1="311.667" y1="10.2636" x2="-303.273" y2="649.616" gradientUnits="userSpaceOnUse">
<stop offset="0.395833" stop-color="#0A1E3F"/>
<stop offset="0.78125" stop-color="#14528E"/>
</linearGradient>
<linearGradient id="paint45_linear_501_43878" x1="311.667" y1="10.2636" x2="-303.273" y2="649.616" gradientUnits="userSpaceOnUse">
<stop offset="0.395833" stop-color="#0A1E3F"/>
<stop offset="0.78125" stop-color="#14528E"/>
</linearGradient>
<linearGradient id="paint46_linear_501_43878" x1="311.667" y1="10.2636" x2="-303.273" y2="649.616" gradientUnits="userSpaceOnUse">
<stop offset="0.395833" stop-color="#0A1E3F"/>
<stop offset="0.78125" stop-color="#14528E"/>
</linearGradient>
<linearGradient id="paint47_linear_501_43878" x1="311.667" y1="10.2636" x2="-303.273" y2="649.616" gradientUnits="userSpaceOnUse">
<stop offset="0.395833" stop-color="#0A1E3F"/>
<stop offset="0.78125" stop-color="#14528E"/>
</linearGradient>
</defs>
</svg>
