<svg width="478" height="530" viewBox="0 0 478 530" fill="none" xmlns="http://www.w3.org/2000/svg">
<path d="M339.77 484.889C415.892 484.889 477.6 477.815 477.6 469.089C477.6 460.363 415.892 453.289 339.77 453.289C263.649 453.289 201.94 460.363 201.94 469.089C201.94 477.815 263.649 484.889 339.77 484.889Z" fill="#FFD0A4"/>
<path d="M452.76 4H228.93V450.32H452.76V4Z" fill="#3B685F"/>
<path d="M452.04 99.0996H228.45V114.64H452.04V99.0996Z" fill="#69A6AB"/>
<path opacity="0.2" d="M452.04 109.18H228.45V115.27H452.04V109.18Z" fill="#001627"/>
<path d="M452.04 210.789H228.45V226.329H452.04V210.789Z" fill="#69A6AB"/>
<path opacity="0.2" d="M452.04 220.869H228.45V226.959H452.04V220.869Z" fill="#001627"/>
<path d="M452.04 322.48H228.45V338.02H452.04V322.48Z" fill="#69A6AB"/>
<path opacity="0.2" d="M452.04 332.57H228.45V338.66H452.04V332.57Z" fill="#001627"/>
<path d="M452.04 434.17H228.45V466.4H452.04V434.17Z" fill="#69A6AB"/>
<path d="M455.44 6.68L452.76 469.09H231.61L226.25 4L455.44 6.68Z" stroke="#018C87" stroke-width="8.04" stroke-miterlimit="10"/>
<path d="M402.4 99.2098H426.77L428.6 23.6798L402.1 22.7598L402.4 99.2098Z" fill="#C07979"/>
<path d="M408.65 88.5494C408.65 89.7242 408.999 90.8726 409.651 91.8495C410.304 92.8263 411.232 93.5876 412.317 94.0372C413.403 94.4868 414.597 94.6044 415.749 94.3752C416.901 94.146 417.96 93.5803 418.791 92.7496C419.621 91.9189 420.187 90.8605 420.416 89.7082C420.645 88.556 420.528 87.3616 420.078 86.2762C419.629 85.1908 418.867 84.2631 417.89 83.6104C416.914 82.9577 415.765 82.6094 414.59 82.6094C413.015 82.6094 411.504 83.2352 410.39 84.3492C409.276 85.4631 408.65 86.974 408.65 88.5494Z" fill="#00344E" stroke="#959FAF" stroke-width="1.83" stroke-miterlimit="10"/>
<path d="M422.35 34.5305L407.28 33.7305L405.91 77.6505L422.35 78.0405V34.5305Z" fill="white"/>
<path opacity="0.5" d="M423.04 27.4808L407.51 26.8008L407.35 31.1408L422.66 32.1308L423.04 27.4808Z" fill="white"/>
<path d="M374.69 99.2098H399.05L400.88 23.6798L374.38 22.7598L374.69 99.2098Z" fill="#C07979"/>
<path d="M380.93 88.5494C380.93 89.7242 381.278 90.8726 381.931 91.8495C382.583 92.8263 383.511 93.5876 384.597 94.0372C385.682 94.4868 386.876 94.6044 388.029 94.3752C389.181 94.146 390.239 93.5803 391.07 92.7496C391.901 91.9189 392.466 90.8605 392.696 89.7082C392.925 88.556 392.807 87.3616 392.358 86.2762C391.908 85.1908 391.147 84.2631 390.17 83.6104C389.193 82.9577 388.045 82.6094 386.87 82.6094C385.294 82.6094 383.783 83.2352 382.669 84.3492C381.556 85.4631 380.93 86.974 380.93 88.5494Z" fill="#00344E" stroke="#959FAF" stroke-width="1.83" stroke-miterlimit="10"/>
<path d="M394.64 34.5305L379.56 33.7305L378.19 77.6505L394.64 78.0405V34.5305Z" fill="white"/>
<path opacity="0.5" d="M395.32 27.4808L379.79 26.8008L379.64 31.1408L394.94 32.1308L395.32 27.4808Z" fill="white"/>
<path d="M346.97 99.2098H371.34L373.16 23.6798L346.67 22.7598L346.97 99.2098Z" fill="#FFA95D"/>
<path d="M353.21 88.5494C353.21 89.7242 353.558 90.8726 354.211 91.8495C354.864 92.8263 355.791 93.5876 356.877 94.0372C357.962 94.4868 359.157 94.6044 360.309 94.3752C361.461 94.146 362.519 93.5803 363.35 92.7496C364.181 91.9189 364.747 90.8605 364.976 89.7082C365.205 88.556 365.087 87.3616 364.638 86.2762C364.188 85.1908 363.427 84.2631 362.45 83.6104C361.473 82.9577 360.325 82.6094 359.15 82.6094C357.575 82.6094 356.064 83.2352 354.95 84.3492C353.836 85.4631 353.21 86.974 353.21 88.5494Z" fill="#00344E" stroke="#959FAF" stroke-width="1.83" stroke-miterlimit="10"/>
<path d="M366.92 34.5305L351.84 33.7305L350.47 77.6505L366.92 78.0405V34.5305Z" fill="white"/>
<path opacity="0.5" d="M367.61 27.4808L352.07 26.8008L351.92 31.1408L367.23 32.1308L367.61 27.4808Z" fill="white"/>
<path d="M319.25 99.2098H343.62L345.45 23.6798L318.95 22.7598L319.25 99.2098Z" fill="#8B95B5"/>
<path d="M325.5 88.5494C325.5 89.7242 325.848 90.8726 326.501 91.8495C327.154 92.8263 328.081 93.5876 329.167 94.0372C330.252 94.4868 331.447 94.6044 332.599 94.3752C333.751 94.146 334.81 93.5803 335.64 92.7496C336.471 91.9189 337.037 90.8605 337.266 89.7082C337.495 88.556 337.377 87.3616 336.928 86.2762C336.478 85.1908 335.717 84.2631 334.74 83.6104C333.763 82.9577 332.615 82.6094 331.44 82.6094C329.865 82.6094 328.354 83.2352 327.24 84.3492C326.126 85.4631 325.5 86.974 325.5 88.5494Z" fill="#00344E" stroke="#959FAF" stroke-width="1.83" stroke-miterlimit="10"/>
<path d="M339.2 34.5305L324.13 33.7305L322.76 77.6505L339.2 78.0405V34.5305Z" fill="white"/>
<path opacity="0.5" d="M339.89 27.4808L324.36 26.8008L324.2 31.1408L339.51 32.1308L339.89 27.4808Z" fill="white"/>
<path d="M283.76 99.2098H308.13L309.96 23.6798L283.46 22.7598L283.76 99.2098Z" fill="#8B95B5"/>
<path d="M290 88.5497C290 89.7219 290.347 90.868 290.997 91.8434C291.647 92.8189 292.571 93.5803 293.653 94.0315C294.735 94.4828 295.926 94.6039 297.077 94.3796C298.228 94.1552 299.286 93.5954 300.119 92.7706C300.952 91.9459 301.523 90.8931 301.758 89.7449C301.994 88.5966 301.885 87.4042 301.445 86.3178C301.004 85.2314 300.252 84.2996 299.284 83.6398C298.315 82.9799 297.172 82.6215 296 82.6097C295.215 82.6017 294.436 82.7495 293.708 83.0445C292.981 83.3395 292.319 83.7757 291.761 84.3281C291.203 84.8805 290.76 85.538 290.458 86.2626C290.156 86.9872 290 87.7646 290 88.5497Z" fill="#00344E" stroke="#959FAF" stroke-width="1.83" stroke-miterlimit="10"/>
<path d="M303.71 34.5305L288.64 33.7305L287.27 77.6505L303.71 78.0405V34.5305Z" fill="white"/>
<path opacity="0.5" d="M304.4 27.4808L288.87 26.8008L288.71 31.1408L304.02 32.1308L304.4 27.4808Z" fill="white"/>
<path d="M256.05 99.2098H280.41L282.24 23.6798L255.74 22.7598L256.05 99.2098Z" fill="#8B95B5"/>
<path d="M262.29 88.5494C262.29 89.7242 262.638 90.8726 263.291 91.8495C263.944 92.8263 264.871 93.5876 265.957 94.0372C267.042 94.4868 268.237 94.6044 269.389 94.3752C270.541 94.146 271.6 93.5803 272.43 92.7496C273.261 91.9189 273.827 90.8605 274.056 89.7082C274.285 88.556 274.167 87.3616 273.718 86.2762C273.268 85.1908 272.507 84.2631 271.53 83.6104C270.553 82.9577 269.405 82.6094 268.23 82.6094C266.655 82.6094 265.144 83.2352 264.03 84.3492C262.916 85.4631 262.29 86.974 262.29 88.5494Z" fill="#00344E" stroke="#959FAF" stroke-width="1.83" stroke-miterlimit="10"/>
<path d="M276 34.5305L260.92 33.7305L259.55 77.6505L276 78.0405V34.5305Z" fill="white"/>
<path opacity="0.5" d="M276.68 27.4808L261.15 26.8008L261 31.1408L276.3 32.1308L276.68 27.4808Z" fill="white"/>
<path d="M402.4 210.901H426.77L428.6 135.371L402.1 134.461L402.4 210.901Z" fill="#FFA95D"/>
<path d="M408.65 200.241C408.648 201.416 408.995 202.565 409.647 203.543C410.298 204.522 411.225 205.284 412.31 205.736C413.396 206.187 414.59 206.306 415.743 206.078C416.896 205.85 417.955 205.285 418.787 204.454C419.619 203.624 420.186 202.566 420.416 201.413C420.646 200.261 420.528 199.066 420.079 197.98C419.63 196.894 418.869 195.965 417.892 195.312C416.914 194.659 415.766 194.311 414.59 194.311C413.811 194.309 413.039 194.462 412.318 194.759C411.597 195.056 410.942 195.493 410.391 196.044C409.839 196.595 409.401 197.249 409.103 197.969C408.804 198.689 408.65 199.461 408.65 200.241Z" fill="#00344E" stroke="#959FAF" stroke-width="1.83" stroke-miterlimit="10"/>
<path d="M422.35 146.22L407.28 145.42L405.91 189.34L422.35 189.74V146.22Z" fill="white"/>
<path opacity="0.5" d="M423.04 139.18L407.51 138.49L407.35 142.83L422.66 143.82L423.04 139.18Z" fill="white"/>
<path d="M346.97 210.901H371.34L373.16 135.371L346.67 134.461L346.97 210.901Z" fill="#FFA95D"/>
<path d="M353.21 200.241C353.208 201.416 353.555 202.565 354.206 203.543C354.858 204.522 355.785 205.284 356.87 205.736C357.955 206.187 359.15 206.306 360.303 206.078C361.456 205.85 362.515 205.285 363.347 204.454C364.178 203.624 364.745 202.566 364.975 201.413C365.205 200.261 365.088 199.066 364.639 197.98C364.189 196.894 363.428 195.965 362.451 195.312C361.474 194.659 360.325 194.311 359.15 194.311C358.37 194.309 357.598 194.462 356.878 194.759C356.157 195.056 355.502 195.493 354.95 196.044C354.399 196.595 353.961 197.249 353.662 197.969C353.364 198.689 353.21 199.461 353.21 200.241Z" fill="#00344E" stroke="#959FAF" stroke-width="1.83" stroke-miterlimit="10"/>
<path d="M366.92 146.22L351.84 145.42L350.47 189.34L366.92 189.74V146.22Z" fill="white"/>
<path opacity="0.5" d="M367.61 139.18L352.07 138.49L351.92 142.83L367.23 143.82L367.61 139.18Z" fill="white"/>
<path d="M319.25 210.901H343.62L345.45 135.371L318.95 134.461L319.25 210.901Z" fill="#FFA95D"/>
<path d="M325.5 200.241C325.498 201.416 325.845 202.565 326.496 203.543C327.148 204.522 328.075 205.284 329.16 205.736C330.245 206.187 331.44 206.306 332.593 206.078C333.746 205.85 334.805 205.285 335.637 204.454C336.468 203.624 337.035 202.566 337.265 201.413C337.495 200.261 337.378 199.066 336.929 197.98C336.48 196.894 335.718 195.965 334.741 195.312C333.764 194.659 332.615 194.311 331.44 194.311C330.66 194.309 329.888 194.462 329.168 194.759C328.447 195.056 327.792 195.493 327.24 196.044C326.689 196.595 326.251 197.249 325.952 197.969C325.654 198.689 325.5 199.461 325.5 200.241Z" fill="#00344E" stroke="#959FAF" stroke-width="1.83" stroke-miterlimit="10"/>
<path d="M339.2 146.22L324.13 145.42L322.76 189.34L339.2 189.74V146.22Z" fill="white"/>
<path opacity="0.5" d="M339.89 139.18L324.36 138.49L324.2 142.83L339.51 143.82L339.89 139.18Z" fill="white"/>
<path d="M283.76 210.901H308.13L309.96 135.371L283.46 134.461L283.76 210.901Z" fill="#8B95B5"/>
<path d="M290 200.241C289.998 201.416 290.345 202.565 290.996 203.543C291.648 204.522 292.575 205.284 293.66 205.736C294.745 206.187 295.94 206.306 297.093 206.078C298.246 205.85 299.305 205.285 300.137 204.454C300.968 203.624 301.535 202.566 301.765 201.413C301.995 200.261 301.878 199.066 301.429 197.98C300.98 196.894 300.218 195.965 299.241 195.312C298.264 194.659 297.115 194.311 295.94 194.311C295.16 194.309 294.388 194.462 293.668 194.759C292.947 195.056 292.292 195.493 291.74 196.044C291.189 196.595 290.751 197.249 290.452 197.969C290.154 198.689 290 199.461 290 200.241Z" fill="#00344E" stroke="#959FAF" stroke-width="1.83" stroke-miterlimit="10"/>
<path d="M303.71 146.22L288.64 145.42L287.27 189.34L303.71 189.74V146.22Z" fill="white"/>
<path opacity="0.5" d="M304.4 139.18L288.87 138.49L288.71 142.83L304.02 143.82L304.4 139.18Z" fill="white"/>
<path d="M256.05 210.901H280.41L282.24 135.371L255.74 134.461L256.05 210.901Z" fill="#8B95B5"/>
<path d="M268.23 206.181C271.511 206.181 274.17 203.521 274.17 200.241C274.17 196.96 271.511 194.301 268.23 194.301C264.949 194.301 262.29 196.96 262.29 200.241C262.29 203.521 264.949 206.181 268.23 206.181Z" fill="#00344E" stroke="#959FAF" stroke-width="1.83" stroke-miterlimit="10"/>
<path d="M276 146.22L260.92 145.42L259.55 189.34L276 189.74V146.22Z" fill="white"/>
<path opacity="0.5" d="M276.68 139.18L261.15 138.49L261 142.83L276.3 143.82L276.68 139.18Z" fill="white"/>
<path d="M402.4 322.6H426.77L428.6 247.06L402.1 246.15L402.4 322.6Z" fill="#C07979"/>
<path d="M408.65 311.93C408.65 313.105 408.999 314.253 409.651 315.23C410.304 316.207 411.232 316.969 412.317 317.418C413.403 317.868 414.597 317.985 415.749 317.756C416.901 317.527 417.96 316.961 418.791 316.13C419.621 315.3 420.187 314.241 420.416 313.089C420.645 311.937 420.528 310.742 420.078 309.657C419.629 308.572 418.867 307.644 417.89 306.991C416.914 306.339 415.765 305.99 414.59 305.99C413.015 305.99 411.504 306.616 410.39 307.73C409.276 308.844 408.65 310.355 408.65 311.93Z" fill="#00344E" stroke="#959FAF" stroke-width="1.83" stroke-miterlimit="10"/>
<path d="M422.35 257.909L407.28 257.109L405.91 301.029L422.35 301.429V257.909Z" fill="white"/>
<path opacity="0.5" d="M423.04 250.87L407.51 250.18L407.35 254.52L422.66 255.51L423.04 250.87Z" fill="white"/>
<path d="M374.69 322.6H399.05L400.88 247.06L374.38 246.15L374.69 322.6Z" fill="#C07979"/>
<path d="M380.93 311.93C380.93 313.105 381.278 314.253 381.931 315.23C382.583 316.207 383.511 316.969 384.597 317.418C385.682 317.868 386.876 317.985 388.029 317.756C389.181 317.527 390.239 316.961 391.07 316.13C391.901 315.3 392.466 314.241 392.696 313.089C392.925 311.937 392.807 310.742 392.358 309.657C391.908 308.572 391.147 307.644 390.17 306.991C389.193 306.339 388.045 305.99 386.87 305.99C385.294 305.99 383.783 306.616 382.669 307.73C381.556 308.844 380.93 310.355 380.93 311.93Z" fill="#00344E" stroke="#959FAF" stroke-width="1.83" stroke-miterlimit="10"/>
<path d="M394.64 257.909L379.56 257.109L378.19 301.029L394.64 301.429V257.909Z" fill="white"/>
<path opacity="0.5" d="M395.32 250.87L379.79 250.18L379.64 254.52L394.94 255.51L395.32 250.87Z" fill="white"/>
<path d="M342.25 322.6H366.62L368.44 247.06L341.95 246.15L342.25 322.6Z" fill="#C07979"/>
<path d="M348.49 311.93C348.49 313.105 348.839 314.253 349.491 315.23C350.144 316.207 351.072 316.969 352.157 317.418C353.242 317.868 354.437 317.985 355.589 317.756C356.741 317.527 357.8 316.961 358.63 316.13C359.461 315.3 360.027 314.241 360.256 313.089C360.485 311.937 360.368 310.742 359.918 309.657C359.469 308.572 358.707 307.644 357.73 306.991C356.753 306.339 355.605 305.99 354.43 305.99C352.855 305.99 351.344 306.616 350.23 307.73C349.116 308.844 348.49 310.355 348.49 311.93Z" fill="#00344E" stroke="#959FAF" stroke-width="1.83" stroke-miterlimit="10"/>
<path d="M362.2 257.909L347.12 257.109L345.75 301.029L362.2 301.429V257.909Z" fill="white"/>
<path opacity="0.5" d="M362.89 250.87L347.35 250.18L347.2 254.52L362.5 255.51L362.89 250.87Z" fill="white"/>
<path d="M314.53 322.6H338.9L340.73 247.06L314.23 246.15L314.53 322.6Z" fill="#C07979"/>
<path d="M320.78 311.93C320.78 313.105 321.129 314.253 321.781 315.23C322.434 316.207 323.362 316.969 324.447 317.418C325.533 317.868 326.727 317.985 327.879 317.756C329.031 317.527 330.09 316.961 330.921 316.13C331.751 315.3 332.317 314.241 332.546 313.089C332.775 311.937 332.658 310.742 332.208 309.657C331.759 308.572 330.997 307.644 330.02 306.991C329.044 306.339 327.895 305.99 326.72 305.99C325.145 305.99 323.634 306.616 322.52 307.73C321.406 308.844 320.78 310.355 320.78 311.93Z" fill="#00344E" stroke="#959FAF" stroke-width="1.83" stroke-miterlimit="10"/>
<path d="M334.48 257.909L319.41 257.109L318.04 301.029L334.48 301.429V257.909Z" fill="white"/>
<path opacity="0.5" d="M335.17 250.87L319.63 250.18L319.48 254.52L334.79 255.51L335.17 250.87Z" fill="white"/>
<path d="M287.89 322.6H312.26L314.09 247.06L287.59 246.15L287.89 322.6Z" fill="#C07979"/>
<path d="M294.14 311.93C294.14 313.105 294.488 314.253 295.141 315.23C295.793 316.207 296.721 316.969 297.806 317.418C298.892 317.868 300.086 317.985 301.238 317.756C302.391 317.527 303.449 316.961 304.28 316.13C305.111 315.3 305.676 314.241 305.905 313.089C306.135 311.937 306.017 310.742 305.567 309.657C305.118 308.572 304.357 307.644 303.38 306.991C302.403 306.339 301.254 305.99 300.08 305.99C298.504 305.99 296.993 306.616 295.879 307.73C294.765 308.844 294.14 310.355 294.14 311.93Z" fill="#00344E" stroke="#959FAF" stroke-width="1.83" stroke-miterlimit="10"/>
<path d="M307.84 257.909L292.77 257.109L291.4 301.029L307.84 301.429V257.909Z" fill="white"/>
<path opacity="0.5" d="M308.53 250.87L293 250.18L292.84 254.52L308.15 255.51L308.53 250.87Z" fill="white"/>
<path d="M256.05 322.6H280.41L282.24 247.06L255.74 246.15L256.05 322.6Z" fill="#8B95B5"/>
<path d="M262.29 311.93C262.29 313.105 262.638 314.253 263.291 315.23C263.944 316.207 264.871 316.969 265.957 317.418C267.042 317.868 268.237 317.985 269.389 317.756C270.541 317.527 271.6 316.961 272.43 316.13C273.261 315.3 273.827 314.241 274.056 313.089C274.285 311.937 274.167 310.742 273.718 309.657C273.268 308.572 272.507 307.644 271.53 306.991C270.553 306.339 269.405 305.99 268.23 305.99C266.655 305.99 265.144 306.616 264.03 307.73C262.916 308.844 262.29 310.355 262.29 311.93Z" fill="#00344E" stroke="#959FAF" stroke-width="1.83" stroke-miterlimit="10"/>
<path d="M276 257.909L260.92 257.109L259.55 301.029L276 301.429V257.909Z" fill="white"/>
<path opacity="0.5" d="M276.68 250.87L261.15 250.18L261 254.52L276.3 255.51L276.68 250.87Z" fill="white"/>
<path d="M402.4 434.29H426.77L428.6 358.75L402.1 357.84L402.4 434.29Z" fill="#8B95B5"/>
<path d="M408.65 423.629C408.65 424.804 408.999 425.953 409.651 426.93C410.304 427.906 411.232 428.668 412.317 429.117C413.403 429.567 414.597 429.685 415.749 429.455C416.901 429.226 417.96 428.66 418.791 427.83C419.621 426.999 420.187 425.941 420.416 424.788C420.645 423.636 420.528 422.442 420.078 421.356C419.629 420.271 418.867 419.343 417.89 418.691C416.914 418.038 415.765 417.689 414.59 417.689C413.015 417.689 411.504 418.315 410.39 419.429C409.276 420.543 408.65 422.054 408.65 423.629Z" fill="#00344E" stroke="#959FAF" stroke-width="1.83" stroke-miterlimit="10"/>
<path d="M422.35 369.601L407.28 368.811L405.91 412.721L422.35 413.121V369.601Z" fill="white"/>
<path opacity="0.5" d="M423.04 362.561L407.51 361.881L407.35 366.221L422.66 367.211L423.04 362.561Z" fill="white"/>
<path d="M371.33 434.29H395.7L397.53 358.75L371.03 357.84L371.33 434.29Z" fill="#8B95B5"/>
<path d="M377.58 423.629C377.58 424.804 377.928 425.953 378.581 426.93C379.234 427.906 380.162 428.668 381.247 429.117C382.332 429.567 383.527 429.685 384.679 429.455C385.831 429.226 386.89 428.66 387.72 427.83C388.551 426.999 389.117 425.941 389.346 424.788C389.575 423.636 389.458 422.442 389.008 421.356C388.558 420.271 387.797 419.343 386.82 418.691C385.843 418.038 384.695 417.689 383.52 417.689C381.945 417.689 380.434 418.315 379.32 419.429C378.206 420.543 377.58 422.054 377.58 423.629Z" fill="#00344E" stroke="#959FAF" stroke-width="1.83" stroke-miterlimit="10"/>
<path d="M391.28 369.601L376.21 368.811L374.84 412.721L391.28 413.121V369.601Z" fill="white"/>
<path opacity="0.5" d="M391.97 362.561L376.44 361.881L376.28 366.221L391.59 367.211L391.97 362.561Z" fill="white"/>
<path d="M343.62 434.29H367.98L369.81 358.75L343.31 357.84L343.62 434.29Z" fill="#FFA95D"/>
<path d="M349.86 423.629C349.86 424.804 350.209 425.953 350.861 426.93C351.514 427.906 352.442 428.668 353.527 429.117C354.613 429.567 355.807 429.685 356.959 429.455C358.111 429.226 359.17 428.66 360.001 427.83C360.831 426.999 361.397 425.941 361.626 424.788C361.855 423.636 361.738 422.442 361.288 421.356C360.839 420.271 360.077 419.343 359.1 418.691C358.124 418.038 356.975 417.689 355.8 417.689C354.225 417.689 352.714 418.315 351.6 419.429C350.486 420.543 349.86 422.054 349.86 423.629Z" fill="#00344E" stroke="#959FAF" stroke-width="1.83" stroke-miterlimit="10"/>
<path d="M363.57 369.601L348.49 368.811L347.12 412.721L363.57 413.121V369.601Z" fill="white"/>
<path opacity="0.5" d="M364.25 362.561L348.72 361.881L348.57 366.221L363.87 367.211L364.25 362.561Z" fill="white"/>
<path d="M315.9 434.29H340.27L342.09 358.75L315.6 357.84L315.9 434.29Z" fill="#C07979"/>
<path d="M328.08 429.569C331.36 429.569 334.02 426.91 334.02 423.629C334.02 420.349 331.36 417.689 328.08 417.689C324.799 417.689 322.14 420.349 322.14 423.629C322.14 426.91 324.799 429.569 328.08 429.569Z" fill="#00344E" stroke="#959FAF" stroke-width="1.83" stroke-miterlimit="10"/>
<path d="M335.85 369.601L320.77 368.811L319.4 412.721L335.85 413.121V369.601Z" fill="white"/>
<path opacity="0.5" d="M336.54 362.561L321 361.881L320.85 366.221L336.15 367.211L336.54 362.561Z" fill="white"/>
<path d="M283.76 434.29H308.13L309.96 358.75L283.46 357.84L283.76 434.29Z" fill="#FFA95D"/>
<path d="M290 423.629C290 424.804 290.348 425.953 291.001 426.93C291.654 427.906 292.581 428.668 293.667 429.117C294.752 429.567 295.947 429.685 297.099 429.455C298.251 429.226 299.31 428.66 300.14 427.83C300.971 426.999 301.537 425.941 301.766 424.788C301.995 423.636 301.877 422.442 301.428 421.356C300.978 420.271 300.217 419.343 299.24 418.691C298.263 418.038 297.115 417.689 295.94 417.689C294.365 417.689 292.854 418.315 291.74 419.429C290.626 420.543 290 422.054 290 423.629Z" fill="#00344E" stroke="#959FAF" stroke-width="1.83" stroke-miterlimit="10"/>
<path d="M303.71 369.601L288.64 368.811L287.27 412.721L303.71 413.121V369.601Z" fill="white"/>
<path opacity="0.5" d="M304.4 362.561L288.87 361.881L288.71 366.221L304.02 367.211L304.4 362.561Z" fill="white"/>
<path d="M256.05 434.29H280.41L282.24 358.75L255.74 357.84L256.05 434.29Z" fill="#FFA95D"/>
<path d="M268.23 429.569C271.511 429.569 274.17 426.91 274.17 423.629C274.17 420.349 271.511 417.689 268.23 417.689C264.949 417.689 262.29 420.349 262.29 423.629C262.29 426.91 264.949 429.569 268.23 429.569Z" fill="#00344E" stroke="#959FAF" stroke-width="1.83" stroke-miterlimit="10"/>
<path d="M276 369.601L260.92 368.811L259.55 412.721L276 413.121V369.601Z" fill="white"/>
<path opacity="0.5" d="M276.68 362.561L261.15 361.881L261 366.221L276.3 367.211L276.68 362.561Z" fill="white"/>
<path d="M224.65 529.691C357.005 529.691 464.3 521.171 464.3 510.661C464.3 500.151 357.005 491.631 224.65 491.631C92.295 491.631 -15 500.151 -15 510.661C-15 521.171 92.295 529.691 224.65 529.691Z" fill="#FFD0A4"/>
<path d="M102.28 467.28V454.93L125.83 453.91L123.65 471.68L102.28 467.28Z" fill="#E79E80"/>
<path d="M206 498.929C205.964 498.356 205.781 497.8 205.47 497.317C205.158 496.834 204.728 496.439 204.22 496.169C200.61 494.409 187.34 488.889 183.8 485.869C181.04 483.529 178.72 478.549 177.8 476.439L152.8 476.869C151.15 483.329 149.8 495.819 149.52 498.439L206 498.929Z" fill="#BB4761"/>
<path d="M205.92 504.6L149.42 504.1L149.46 498.42L205.95 498.91L205.92 504.6Z" fill="#F5E2D7"/>
<path d="M179 487.4L178.88 487.6C178.61 488.09 178.42 488.86 179.08 489.16C179.43 489.275 179.809 489.275 180.16 489.16C181.389 488.895 182.568 488.432 183.65 487.79C184.903 487.21 186.006 486.348 186.87 485.27C187.67 484.08 186.58 482.95 185.24 483.22C182.696 483.75 180.457 485.249 179 487.4Z" fill="#EEDCD2"/>
<path d="M183.21 490.48L183.09 490.68C182.81 491.17 182.63 491.94 183.28 492.24C183.629 492.372 184.01 492.39 184.37 492.29C185.599 492.025 186.778 491.562 187.86 490.92C189.112 490.343 190.212 489.48 191.07 488.4C191.88 487.21 190.79 486.09 189.45 486.35C186.914 486.868 184.677 488.348 183.21 490.48Z" fill="#EEDCD2"/>
<path d="M188.43 492.539L188.31 492.729C188.03 493.229 187.85 493.989 188.5 494.299C188.855 494.409 189.235 494.409 189.59 494.299C190.82 494.038 191.998 493.578 193.08 492.939C194.333 492.358 195.433 491.492 196.29 490.409C197.09 489.229 196.01 488.099 194.67 488.409C192.134 488.927 189.898 490.407 188.43 492.539Z" fill="#EEDCD2"/>
<path d="M127.13 497.08C126.13 490.77 124.59 482.46 123.87 481.35C123.15 480.24 123.4 474.79 123.65 471.68L102.28 467.27C99.7898 472.02 95.0498 488.74 92.7998 496.94C92.0298 499.74 91.5498 501.55 91.5498 501.55C91.5498 501.55 103.81 510.37 107.15 510.65C110.49 510.93 128 506.38 128 504.11C128 503.31 127.66 500.49 127.13 497.08Z" fill="#BB4761"/>
<path d="M91.5498 501.551C91.5498 501.551 103.81 510.371 107.15 510.651C110.49 510.931 128 506.381 128 504.111C128 503.311 127.62 500.491 127.09 497.111C121.38 499.401 109.15 503.921 105.09 502.441C102.36 501.441 97.1498 499.051 92.7398 496.971C91.9998 499.741 91.5498 501.551 91.5498 501.551Z" fill="#EEDCD2"/>
<path d="M107.19 484.26L106.98 484.36C106.48 484.6 105.9 485.12 106.26 485.75C106.473 486.055 106.773 486.288 107.12 486.42C108.271 486.926 109.498 487.24 110.75 487.35C112.096 487.611 113.484 487.55 114.8 487.17C116.12 486.67 115.87 485.11 114.61 484.54C112.269 483.481 109.605 483.381 107.19 484.26Z" fill="#EEDCD2"/>
<path d="M107.19 489.189L106.98 489.279C106.48 489.529 105.9 490.049 106.26 490.679C106.473 490.985 106.773 491.218 107.12 491.349C108.271 491.856 109.498 492.17 110.75 492.279C112.096 492.541 113.484 492.479 114.8 492.099C116.12 491.589 115.87 490.039 114.61 489.469C112.269 488.411 109.605 488.31 107.19 489.189Z" fill="#EEDCD2"/>
<path d="M106.72 493.699L106.51 493.799C106 494.039 105.43 494.559 105.79 495.189C106.002 495.497 106.301 495.734 106.65 495.869C107.801 496.373 109.027 496.684 110.28 496.789C111.608 497.049 112.98 496.987 114.28 496.609C115.61 496.109 115.35 494.549 114.1 493.979C111.77 492.931 109.123 492.831 106.72 493.699Z" fill="#EEDCD2"/>
<path d="M186.56 384.34C186.2 389.17 180.78 460.83 180.78 460.83L152.09 459.49L152.8 448.93L154.91 381.79L147.77 310.27L147.54 305.72L146.81 310.24L133.81 382.09L127.81 456.24L100.67 455.02L100.87 444.65L102.11 378.84L105.43 281.59L182.04 282.43H185.41C185.74 286.73 186.86 380.21 186.56 384.34Z" fill="#B68961"/>
<path d="M186.56 384.34C186.2 389.17 180.78 460.83 180.78 460.83L152.09 459.49L152.8 448.93L176.59 453.93L182.84 381.79L182.08 282.43H185.45C185.74 286.73 186.86 380.21 186.56 384.34Z" fill="#99704C"/>
<path d="M155.41 459.641L154.91 476.821L176.12 476.421L178.61 460.731L155.41 459.641Z" fill="#E79E80"/>
<path d="M147.54 305.699L146.81 310.219L133.84 382.069L127.84 456.219L100.71 454.999L100.91 444.629L123.11 447.449L128.62 378.759L147.16 296.119L147.54 305.699Z" fill="#99704C"/>
<path d="M186.57 61.3292C185.09 61.8292 188.09 86.7292 188.09 86.7292C185.101 84.0374 181.286 82.4402 177.27 82.1992H177.16C176.987 82.1754 176.81 82.1949 176.646 82.256C176.482 82.3171 176.336 82.4178 176.22 82.5492C176.147 82.6985 176.113 82.8634 176.12 83.0292C176.157 83.736 176.344 84.4269 176.668 85.0561C176.992 85.6853 177.446 86.2386 178 86.6792C179.128 87.5374 180.303 88.332 181.52 89.0592C183.77 90.5892 185.3 92.8892 186.81 95.1492C189.41 98.9292 197.73 98.9292 197.73 98.9292C197.73 98.9292 197.92 99.5692 198.2 100.429L210.56 97.5492L209.24 92.1292L210.59 88.8392C211.23 86.3692 206.02 62.9092 204.41 62.8392C203.954 62.8093 203.496 62.8093 203.04 62.8392C202.33 62.8392 201.66 62.9792 201.21 63.0392L200.69 63.1392C200.092 62.9021 199.481 62.6984 198.86 62.5292C198.267 62.3511 197.657 62.2339 197.04 62.1792C196.789 62.132 196.531 62.1388 196.282 62.1992C196.034 62.2595 195.801 62.372 195.6 62.5292C195.32 62.8292 195.15 64.3492 195.03 66.3392C194.75 71.2692 194.8 79.1092 194.31 78.7792C193.65 78.3192 189.24 61.5792 189.24 61.5792C188.869 61.39 188.465 61.2746 188.05 61.2392C187.556 61.1671 187.052 61.1977 186.57 61.3292Z" fill="#E79E80"/>
<path d="M195.6 62.4602C195.32 62.7602 195.15 64.2802 195.03 66.2702C196.27 67.0302 197.85 67.4902 198.94 68.2702C200.652 69.4877 202.062 71.082 203.06 72.9302C204.539 76.0507 205.252 79.4789 205.14 82.9302C205.19 86.3502 204.9 89.7802 205.2 93.1802C205.393 95.0133 205.727 96.8288 206.2 98.6102L211.2 97.5002L209.31 92.1602L210.66 88.8702C211.3 86.4002 206.09 62.9402 204.48 62.8702C204.024 62.8403 203.566 62.8403 203.11 62.8702C202.4 62.8702 201.73 63.0102 201.28 63.0702L200.76 63.1702C200.162 62.9331 199.551 62.7294 198.93 62.5602C198.337 62.3821 197.727 62.2649 197.11 62.2102C196.856 62.1384 196.588 62.1235 196.327 62.1668C196.066 62.21 195.818 62.3102 195.6 62.4602Z" fill="#E27C6F"/>
<path d="M198.86 62.4594C198.92 62.9094 198.97 63.3594 199.01 63.8294C199.22 66.1413 199.22 68.4675 199.01 70.7794C198.84 72.4494 198.64 73.5194 198.61 73.6394C198.61 73.5194 198.36 72.4594 198.09 70.8094C197.82 69.1594 197.46 66.6494 197.23 63.9894C197.17 63.3394 197.13 62.7194 197.09 62.1094C197.69 62.1673 198.283 62.2846 198.86 62.4594Z" fill="#B34B57"/>
<path d="M203 62.7695C203.279 65.4281 203.296 68.1077 203.05 70.7695C202.184 68.2226 201.571 65.5966 201.22 62.9295C201.66 62.9295 202.33 62.8195 203 62.7695Z" fill="#B34B57"/>
<path d="M201.18 99.7005L201.12 99.4805C201.006 99.1071 200.873 98.7399 200.72 98.3805C200.58 98.0983 200.398 97.8387 200.18 97.6105C199.515 97.0619 198.691 96.7427 197.83 96.7005C195.09 96.2605 192.21 96.0505 189.83 94.6405C187 92.9705 185.31 89.9205 182.83 87.7605C181.03 86.1905 178.78 85.0305 177.57 82.9805C177.42 82.7305 177.29 82.4605 177.15 82.1905C176.978 82.1627 176.802 82.1804 176.638 82.2418C176.475 82.3032 176.331 82.4062 176.22 82.5405C176.147 82.6897 176.113 82.8547 176.12 83.0205C176.151 83.73 176.335 84.4243 176.66 85.056C176.984 85.6877 177.442 86.2418 178 86.6805C179.13 87.5364 180.305 88.3309 181.52 89.0605C183.659 90.7266 185.456 92.7913 186.81 95.1405C189.41 98.9305 197.72 98.9305 197.72 98.9305C197.72 98.9305 197.82 99.5705 197.88 100.321C197.875 100.38 197.875 100.441 197.88 100.501L197.94 101.061L201.18 99.7005Z" fill="#EEBD90"/>
<path d="M203.71 93.2101C203.71 93.2101 203.71 93.0301 203.61 92.7201C203.512 92.2698 203.368 91.8308 203.18 91.4101C202.558 89.9903 201.537 88.7817 200.241 87.9314C198.945 87.081 197.43 86.6254 195.88 86.6201C195.424 86.6124 194.968 86.6526 194.52 86.74L194.03 86.85L194.5 87.0101C194.8 87.1101 195.22 87.2701 195.71 87.4801C196.957 88.0116 198.153 88.6577 199.28 89.4101C200.412 90.1481 201.476 90.9847 202.46 91.9101C202.85 92.2801 203.16 92.6101 203.37 92.8401L203.71 93.2101Z" fill="#B34B57"/>
<path d="M88.9296 61.3296C90.3996 61.8296 87.4096 86.7296 87.4096 86.7296C90.3979 84.0357 94.2135 82.4382 98.2296 82.1996H98.3396C98.5117 82.1718 98.6881 82.1895 98.8512 82.2509C99.0143 82.3123 99.1586 82.4153 99.2696 82.5496C99.3507 82.6961 99.3888 82.8624 99.3796 83.0296C99.339 83.7413 99.1467 84.436 98.8155 85.0673C98.4844 85.6985 98.0221 86.2517 97.4596 86.6896C96.3297 87.5501 95.1511 88.3448 93.9296 89.0696C91.6896 90.5996 90.1496 92.8996 88.6396 95.1596C86.0896 98.9296 77.7696 98.9296 77.7696 98.9296C77.7696 98.9296 77.5696 99.5696 77.2896 100.43L64.9396 97.5096L66.2496 92.0896L64.9096 88.7996C64.2696 86.3296 69.4796 62.8696 71.0796 62.7996C71.5358 62.7697 71.9935 62.7697 72.4496 62.7996C73.1696 62.7996 73.8396 62.9396 74.2796 62.9996L74.8096 63.0996C75.4071 62.8605 76.0182 62.6569 76.6396 62.4896C77.2329 62.3115 77.8427 62.1942 78.4596 62.1396C78.7108 62.0924 78.969 62.0992 79.2173 62.1595C79.4656 62.2199 79.6982 62.3324 79.8996 62.4896C80.3075 63.7171 80.497 65.0066 80.4596 66.2996C80.7496 71.2296 80.6996 79.0696 81.1796 78.7396C81.8496 78.2796 86.2596 61.5396 86.2596 61.5396C86.6274 61.3514 87.0281 61.2359 87.4396 61.1996C87.94 61.1399 88.4472 61.1842 88.9296 61.3296Z" fill="#E79E80"/>
<path d="M79.9 62.4602C80.3079 63.6878 80.4974 64.9773 80.46 66.2702C79.23 67.0302 77.64 67.4902 76.55 68.2702C74.841 69.488 73.4348 71.0824 72.44 72.9302C70.9565 76.0491 70.2432 79.4785 70.36 82.9302C70.36 86.3502 70.6 89.7802 70.29 93.1802C70.1023 95.014 69.7679 96.8299 69.29 98.6102L64.29 97.5002L66.18 92.1602L64.84 88.8702C64.2 86.4002 69.41 62.9402 71.01 62.8702C71.4662 62.8403 71.9239 62.8403 72.38 62.8702C73.1 62.8702 73.77 63.0102 74.21 63.0702L74.74 63.1702C75.3375 62.9312 75.9486 62.7275 76.57 62.5602C77.1633 62.3821 77.7731 62.2649 78.39 62.2102C78.6446 62.1384 78.9119 62.1235 79.1729 62.1668C79.4339 62.21 79.6822 62.3102 79.9 62.4602Z" fill="#E27C6F"/>
<path d="M76.6301 62.4594C76.6301 62.9094 76.5301 63.3594 76.4901 63.8294C76.2913 66.1426 76.308 68.4693 76.5401 70.7794C76.6225 71.7391 76.7561 72.6938 76.9401 73.6394C76.9401 73.5194 77.1901 72.4594 77.4501 70.8094C77.7101 69.1594 78.0901 66.6494 78.3201 63.9894C78.3701 63.3394 78.4201 62.7194 78.4501 62.1094C77.8334 62.1658 77.2238 62.283 76.6301 62.4594Z" fill="#B34B57"/>
<path d="M72.4597 62.7695C72.1795 65.4279 72.1595 68.1073 72.3997 70.7695C73.2851 68.2251 73.9149 65.5988 74.2797 62.9295C73.8397 62.9295 73.1697 62.8195 72.4597 62.7695Z" fill="#B34B57"/>
<path d="M74.3096 99.6991C74.3096 99.6291 74.3096 99.5491 74.3796 99.4791C74.4856 99.1044 74.6159 98.737 74.7696 98.3791C74.9136 98.0965 75.099 97.837 75.3196 97.6091C75.9844 97.0605 76.8087 96.7413 77.6696 96.6991C80.3996 96.2591 83.2796 96.0491 85.6696 94.6391C88.4896 92.9691 90.1796 89.9191 92.6696 87.7591C94.4696 86.1891 96.6696 85.0291 97.9296 82.9791C98.0696 82.7291 98.1996 82.4591 98.3496 82.1891C98.5201 82.1632 98.6944 82.1818 98.8556 82.2431C99.0168 82.3044 99.1594 82.4064 99.2696 82.5391C99.3457 82.6874 99.3835 82.8524 99.3796 83.0191C99.3377 83.7316 99.1438 84.4268 98.8109 85.0581C98.478 85.6894 98.0138 86.2421 97.4496 86.6791C96.3231 87.5396 95.1478 88.3343 93.9296 89.0591C91.6796 90.5991 90.1496 92.8791 88.6396 95.1391C86.0896 98.9291 77.7696 98.9291 77.7696 98.9291C77.7696 98.9291 77.6696 99.5691 77.6196 100.319C77.6196 100.379 77.6196 100.439 77.6196 100.499L77.5596 101.059L74.3096 99.6991Z" fill="#EEBD90"/>
<path d="M71.79 93.2099C71.79 93.2099 71.79 93.0299 71.88 92.7199C71.9826 92.2709 72.1266 91.8324 72.31 91.4099C72.961 89.9923 74.0014 88.7889 75.31 87.9399C76.6036 87.0922 78.1135 86.634 79.66 86.6199C80.1196 86.6129 80.5787 86.6531 81.03 86.7399L81.52 86.8499L81.05 87.0099C80.75 87.1099 80.33 87.2699 79.83 87.4799C77.3154 88.5614 75.0052 90.0666 73 91.9299C72.61 92.2999 72.29 92.6299 72.09 92.8599L71.79 93.2099Z" fill="#B34B57"/>
<path d="M130.75 160.429L146.35 172.629L150.27 160.499L149.8 158.419C149.49 157.029 149.27 156.029 149.23 155.809C148.91 154.009 149.07 145.909 149.07 145.909L128.31 140.529C128.31 140.529 128.71 144.529 129.19 148.969C129.77 154.299 130.75 160.429 130.75 160.429Z" fill="#E79E80"/>
<path d="M129.19 148.93C135.19 151.86 148.46 158.25 149.69 158.37H149.8C149.49 156.98 149.27 155.98 149.23 155.76C148.91 153.96 149.07 145.86 149.07 145.86L128.31 140.48C128.31 140.48 128.71 144.54 129.19 148.93Z" fill="#E27C6F"/>
<path d="M125.8 141.67C126.638 142.846 127.737 143.811 129.01 144.49C129.577 144.836 130.161 145.153 130.76 145.44C133.3 146.66 155.99 151.95 159.16 150.95C162.33 149.95 163.42 138.23 163.38 137.03C163.15 129.64 161.45 103.34 161.45 103.34C149.13 80.5001 123.4 101.66 120.57 104.62C117.74 107.58 125.8 141.67 125.8 141.67Z" fill="#E79E80"/>
<path d="M129 144.489C129.567 144.836 130.151 145.153 130.75 145.439C133.29 146.659 155.98 151.949 159.15 150.949C162.32 149.949 163.41 138.229 163.37 137.029C162.21 142.289 161.13 149.469 158.79 149.659C155.29 149.929 131.81 145.379 129 144.489Z" fill="#EEBD90"/>
<path d="M129.06 141.98C127.237 142.118 125.405 141.883 123.675 141.289C121.946 140.696 120.355 139.758 119 138.53C118.587 138.156 118.2 137.755 117.84 137.33C116.21 135.33 114.47 127.56 117.34 125.18C119.34 123.52 121.34 125.07 122.34 126.18C122.583 126.444 122.807 126.725 123.01 127.02L129.06 141.98Z" fill="#EEBD90"/>
<path d="M129.06 141.979C127.236 142.117 125.404 141.882 123.675 141.288C121.946 140.695 120.355 139.757 119 138.529C118.82 138.339 118.65 138.149 118.51 137.969C116.87 135.969 115.13 128.199 118 125.819C119.63 124.469 121.22 125.239 122.3 126.149C122.543 126.413 122.767 126.694 122.97 126.989L129.06 141.979Z" fill="#E79E80"/>
<path d="M117.39 131.559C117.37 132.212 117.536 132.857 117.87 133.419C119.21 135.879 122.18 137.419 125.01 138.829C124.05 137.708 123.484 136.303 123.4 134.829C123.395 134.335 123.365 133.841 123.31 133.349C123 131.429 117.68 127.699 117.39 131.559Z" fill="#E27C6F"/>
<path d="M126.4 139.35H126.24L125.79 139.18C125.275 138.947 124.794 138.644 124.36 138.28C123.756 137.766 123.283 137.114 122.98 136.38C122.615 135.488 122.555 134.5 122.81 133.57C122.837 133.443 122.877 133.319 122.93 133.2V133.11L122.88 133.05L122.76 132.91L122.54 132.65C122.241 132.32 121.924 132.006 121.59 131.71C121.27 131.42 120.94 131.16 120.59 130.92C120.3 130.7 119.992 130.503 119.67 130.33C119.403 130.185 119.104 130.109 118.8 130.11C118.56 130.129 118.328 130.212 118.13 130.35C118.012 130.431 117.921 130.546 117.87 130.68C117.866 130.727 117.866 130.774 117.87 130.82C117.861 130.774 117.861 130.727 117.87 130.68C117.891 130.529 117.962 130.388 118.07 130.28C118.275 130.078 118.537 129.942 118.82 129.89C119.21 129.801 119.617 129.815 120 129.93C120.381 130.073 120.749 130.247 121.1 130.45C121.489 130.672 121.864 130.92 122.22 131.19C122.607 131.476 122.971 131.79 123.31 132.13L123.56 132.4L123.69 132.54L123.85 132.74L123.97 132.88C123.955 132.939 123.935 132.995 123.91 133.05L123.82 133.29C123.778 133.397 123.744 133.508 123.72 133.62C123.49 134.438 123.49 135.303 123.72 136.12C123.92 136.806 124.261 137.443 124.72 137.99C125.06 138.374 125.45 138.711 125.88 138.99L126.26 139.23L126.4 139.35Z" fill="#B34B57"/>
<path d="M154 132.311C153.64 131.641 153.29 130.961 152.94 130.311C151.109 130.225 149.355 129.548 147.94 128.381C147.778 128.95 147.694 129.539 147.69 130.131C147.693 130.731 147.913 131.311 148.31 131.761C148.72 132.129 149.221 132.382 149.76 132.491C151.162 132.837 152.633 132.774 154 132.311Z" fill="#E27C6F"/>
<path d="M148.05 131.65C148.253 131.814 148.467 131.964 148.69 132.1C149.311 132.466 149.986 132.733 150.69 132.89C151.19 132.994 151.699 133.044 152.21 133.04C152.955 133.038 153.695 132.913 154.4 132.67L154.6 132.61H154.69L154.64 132.53L154.45 132.2L154.05 131.53L153.9 131.27L153.8 131.06L153.59 130.65C153.307 130.076 153.06 129.484 152.85 128.88C152.091 126.738 151.751 124.47 151.85 122.2C151.877 121.499 151.951 120.801 152.07 120.11L152.21 119.34L151.9 120.06C151.647 120.733 151.45 121.425 151.31 122.13C150.711 125.198 151.195 128.379 152.68 131.13L153.14 131.9C153.14 131.95 153.3 132.06 153.26 132.08C152.913 132.224 152.545 132.312 152.17 132.34C151.704 132.384 151.235 132.384 150.77 132.34C150.088 132.298 149.415 132.163 148.77 131.94C148.524 131.857 148.284 131.761 148.05 131.65Z" fill="#DB5B67"/>
<path d="M161 114.931C161 114.931 157 108.811 154.25 110.791C151.5 112.771 152.59 113.111 152.59 113.111L161 114.931Z" fill="#E17458"/>
<path d="M129.42 118.36C129.42 118.36 136.17 108.89 139.9 110.96C142.08 112.17 140.9 113.55 140.9 113.55L129.42 118.36Z" fill="#E17458"/>
<path d="M159.08 130.93C159.57 131.76 161.5 131.52 163.4 130.4C165.3 129.28 166.4 127.7 165.95 126.87C165.5 126.04 163.53 126.28 161.63 127.4C159.73 128.52 158.59 130.08 159.08 130.93Z" fill="#E27C6F"/>
<path d="M128.8 130.27C128.69 131.67 131.2 133.01 134.41 133.27C137.62 133.53 140.31 132.59 140.41 131.19C140.51 129.79 138 128.45 134.8 128.19C131.6 127.93 128.91 128.87 128.8 130.27Z" fill="#E27C6F"/>
<path d="M144.09 122.361C143.18 120.581 140.75 119.731 138.59 120.151C137.543 120.392 136.559 120.848 135.698 121.49C134.837 122.133 134.119 122.946 133.59 123.881C135.14 122.916 136.874 122.284 138.681 122.022C140.488 121.76 142.33 121.876 144.09 122.361Z" fill="#2A2B2B"/>
<path d="M155.26 121.931C155.308 121.305 155.592 120.722 156.054 120.299C156.517 119.875 157.123 119.644 157.75 119.651C158.417 119.753 159.054 120 159.616 120.375C160.177 120.75 160.65 121.243 161 121.821C159.14 120.721 156.6 121.311 155.26 121.931Z" fill="#2A2B2B"/>
<path d="M138.55 136.55C138.55 136.55 144.89 134.16 155.41 136.07C155.41 136.07 153.02 143.58 146.9 143.37C140.78 143.16 138.55 136.55 138.55 136.55Z" fill="#FAEFE6"/>
<path d="M176 164.7L163.05 162.5L159.16 161.89L158.1 161.73C156.995 159.429 155.622 157.268 154.01 155.29C151.88 152.96 125.9 154.87 123.58 155.29C121.26 155.71 119.25 162.63 119.25 162.63L116.53 163.2C110.53 164.5 104.81 166.33 103.84 166.93L104.66 259.93C103.99 267.62 103.73 284.15 103.42 290.16C130.09 297.62 162.1 297.44 188.03 286.11L176 164.7Z" fill="#FAB655"/>
<path d="M155.34 161.93C154.8 161.93 154.25 161.88 153.71 161.85C153.508 159.973 152.693 158.216 151.39 156.85C151.1 156.54 150.54 156.95 150.79 157.3C151.737 158.65 152.36 160.2 152.61 161.83C151.23 161.77 149.84 161.73 148.45 161.72C147.952 160.402 147.333 159.133 146.6 157.93C146.44 157.67 145.96 157.84 146.08 158.16C146.41 159.02 146.72 159.9 147.08 160.78C147.18 161.05 147.24 161.41 147.36 161.72C145.91 161.72 144.46 161.72 143 161.78C143.16 160.687 143.036 159.571 142.64 158.54C142.609 158.481 142.561 158.434 142.502 158.403C142.444 158.372 142.377 158.36 142.311 158.367C142.245 158.375 142.183 158.402 142.133 158.445C142.083 158.489 142.047 158.546 142.03 158.61C141.88 159.67 141.98 160.76 141.91 161.83C140.61 161.83 139.31 161.95 138.02 162.04C138.02 160.92 137.89 159.81 137.74 158.7C137.74 158.594 137.698 158.492 137.623 158.417C137.548 158.342 137.446 158.3 137.34 158.3C137.234 158.3 137.132 158.342 137.057 158.417C136.982 158.492 136.94 158.594 136.94 158.7C136.94 159.84 136.94 160.99 137 162.13C135.3 162.26 133.6 162.43 131.92 162.64C131.885 162.127 131.885 161.613 131.92 161.1C132.01 160.366 132.06 159.629 132.07 158.89C132.072 158.839 132.056 158.788 132.025 158.747C131.995 158.706 131.951 158.676 131.902 158.662C131.853 158.648 131.8 158.651 131.752 158.671C131.705 158.69 131.665 158.725 131.64 158.77C130.977 159.991 130.738 161.398 130.96 162.77C129.32 162.98 127.69 163.22 126.08 163.5C126.23 162.87 126.24 162.2 126.4 161.56C126.595 160.795 126.867 160.051 127.21 159.34C127.25 159.246 127.255 159.14 127.223 159.043C127.191 158.946 127.124 158.864 127.036 158.812C126.947 158.76 126.843 158.743 126.742 158.763C126.642 158.783 126.552 158.839 126.49 158.92C125.66 160.21 124.8 162.11 125.11 163.68C123.97 163.89 122.82 164.11 121.7 164.36C121.603 164.391 121.52 164.455 121.465 164.541C121.411 164.627 121.389 164.73 121.404 164.831C121.418 164.932 121.468 165.024 121.544 165.092C121.62 165.159 121.718 165.198 121.82 165.2C127.41 164.79 132.97 164.08 138.57 163.74C144.17 163.4 149.8 163.45 155.42 163.28C155.599 163.269 155.767 163.188 155.886 163.054C156.005 162.92 156.066 162.744 156.055 162.565C156.044 162.386 155.963 162.218 155.829 162.099C155.695 161.98 155.519 161.919 155.34 161.93Z" fill="#EAA928"/>
<path d="M103.87 166.931C103.87 166.931 79.8197 157.411 73.0597 154.461C73.0597 154.461 80.7198 108.031 80.7198 103.751L61.3397 99.6406C61.3397 99.6406 39.9398 153.891 43.3398 164.991C46.7398 176.091 104.23 212.361 104.23 212.361L103.87 166.931Z" fill="#FAB655"/>
<path d="M176 164.701C176 164.701 195.67 157.411 202.43 154.461C202.43 154.461 194.77 108.031 194.77 103.751L214.15 99.6406C214.15 99.6406 235.55 153.891 232.15 164.991C228.75 176.091 171.26 212.361 171.26 212.361L176 164.701Z" fill="#FAB655"/>
<path d="M61.46 96.0996L58.71 104.62L81.54 110.37L83.44 100.54L61.46 96.0996Z" fill="#EAA928"/>
<path d="M192.09 101.17L194 110.37L217.88 103.24L214.93 96.0996L192.09 101.17Z" fill="#EAA928"/>
<path d="M205.3 157.629C207.72 158.279 210.41 158.699 212.66 159.819C212.791 159.897 212.892 160.016 212.949 160.157C213.006 160.298 213.016 160.454 212.976 160.601C212.936 160.748 212.85 160.878 212.73 160.972C212.61 161.065 212.463 161.117 212.31 161.119C210.359 160.941 208.434 160.545 206.57 159.939C207.216 161.437 207.702 162.999 208.02 164.599C208.16 165.519 206.92 166.229 206.41 165.279C205.467 163.189 204.708 161.021 204.14 158.799C204.11 158.64 204.119 158.476 204.167 158.321C204.214 158.166 204.299 158.024 204.413 157.909C204.527 157.794 204.668 157.708 204.822 157.66C204.977 157.611 205.141 157.6 205.3 157.629Z" fill="#3C6B5B"/>
<path d="M60.8397 159.7C64.0872 158.786 67.4165 158.194 70.7797 157.93C71.0365 157.929 71.2835 158.028 71.4697 158.205C71.6558 158.382 71.7668 158.623 71.7797 158.88C71.8538 161.808 71.2082 164.709 69.8997 167.33C69.7297 167.63 69.1697 167.51 69.2097 167.14C69.4897 164.81 69.7797 162.49 69.8497 160.14C67.0071 160.923 64.1034 161.465 61.1697 161.76C59.9097 161.93 59.7197 160.01 60.8397 159.7Z" fill="#EAA928"/>
<path d="M176.53 170.491C176.539 170.396 176.58 170.308 176.645 170.24C176.711 170.172 176.797 170.128 176.891 170.115C176.985 170.102 177.08 170.122 177.162 170.17C177.243 170.218 177.306 170.292 177.34 170.381C179.86 180.441 180.52 191.151 181.67 201.381C181.85 203.021 179.28 203.011 179.1 201.381C178 191.231 176.29 180.761 176.53 170.491Z" fill="#EAA928"/>
<path d="M103.83 175.159C103.92 174.569 104.93 174.699 104.83 175.299C104.46 180.369 104.48 185.519 104.49 190.599C104.5 195.679 105.38 200.909 104.79 205.919C104.78 206.098 104.708 206.269 104.586 206.4C104.465 206.532 104.301 206.617 104.123 206.641C103.945 206.665 103.764 206.626 103.612 206.53C103.46 206.435 103.346 206.29 103.29 206.119C100.42 196.509 102.49 184.929 103.83 175.159Z" fill="#EAA928"/>
<path d="M158.38 48.6797L155.35 67.1497L166.02 53.5697L158.38 48.6797Z" fill="#EAA928"/>
<path d="M141.13 61.0096L150.95 68.6596L146.42 58.0996L141.13 61.0096Z" fill="#EAA928"/>
<path d="M168.98 63.9004L158.31 72.5904L170.8 70.3204L168.98 63.9004Z" fill="#EAA928"/>
<path d="M255.04 100.75L241.32 115.22L258.85 109.63L255.04 100.75Z" fill="#EAA928"/>
<path d="M232.46 101.301L236.54 113.921L238.86 101.901L232.46 101.301Z" fill="#EAA928"/>
<path d="M260.39 175.561L226.41 184.551L236 216.721L261.91 209.091L260.39 175.561Z" fill="#526993"/>
<path d="M248.51 501.991C248.51 501.991 260.42 510.381 263.66 510.651C266.9 510.921 284 506.591 284 504.421C284 503.671 283.64 500.981 283.12 497.741C282.12 491.741 280.65 483.831 279.95 482.741C278.87 481.111 279.95 471.371 279.95 471.371C279.95 471.371 262.36 467.311 259.95 468.121C258.07 468.751 252.32 488.561 249.8 497.571C249 500.271 248.51 501.991 248.51 501.991Z" fill="#444444"/>
<path d="M248.51 501.989C248.51 501.989 260.42 510.379 263.66 510.649C266.9 510.919 284 506.589 284 504.419C284 503.669 283.64 500.979 283.12 497.739C277.57 499.919 265.69 504.219 261.77 502.809C259.11 501.859 254.05 499.589 249.77 497.609C249 500.269 248.51 501.989 248.51 501.989Z" fill="#F5E2D7"/>
<path d="M263.7 485.539L263.5 485.629C263.01 485.859 262.45 486.359 262.8 486.959C263.005 487.251 263.295 487.474 263.63 487.599C264.752 488.08 265.943 488.377 267.16 488.479C268.465 488.729 269.811 488.671 271.09 488.309C272.37 487.829 272.09 486.309 270.91 485.799C268.626 484.801 266.049 484.708 263.7 485.539Z" fill="#F5E2D7"/>
<path d="M263.7 490.23L263.5 490.32C263.01 490.55 262.45 491.05 262.8 491.65C263.005 491.943 263.295 492.166 263.63 492.29C264.752 492.771 265.943 493.069 267.16 493.17C268.465 493.42 269.811 493.362 271.09 493C272.37 492.52 272.09 491 270.91 490.49C268.626 489.492 266.049 489.399 263.7 490.23Z" fill="#F5E2D7"/>
<path d="M263.24 494.531L263.04 494.621C262.55 494.851 261.99 495.341 262.34 495.941C262.544 496.239 262.839 496.463 263.18 496.581C264.297 497.066 265.486 497.367 266.7 497.471C268.006 497.718 269.352 497.656 270.63 497.291C271.92 496.811 271.63 495.291 270.45 494.791C268.169 493.783 265.587 493.689 263.24 494.531Z" fill="#F5E2D7"/>
<path d="M248.51 473.651L255.51 474.201L284.4 476.501C284.4 476.501 300.17 391.681 300.89 385.881C301.3 382.641 302.14 357.341 302.82 335.671C303.01 329.381 303.18 323.401 303.33 318.361C303.59 309.711 303.74 303.801 303.74 303.801L296.74 304.381L266.23 306.931L269.53 381.551L248.51 473.651Z" fill="#526993"/>
<path d="M360.45 502.251C360.432 501.699 360.273 501.16 359.988 500.687C359.702 500.215 359.3 499.823 358.82 499.551C355.4 497.721 342.75 491.891 339.43 488.871C336.86 486.521 334.8 481.691 334.01 479.651L309.71 478.971C307.83 485.031 306.01 496.851 305.64 499.331L360.45 502.251Z" fill="#444444"/>
<path d="M360.18 507.66L305.37 504.73L305.64 499.33L360.44 502.25L360.18 507.66Z" fill="#F5E2D7"/>
<path d="M334.74 490.14L334.62 490.32C334.33 490.78 334.12 491.5 334.74 491.82C335.073 491.955 335.439 491.986 335.79 491.91C336.993 491.711 338.158 491.323 339.24 490.76C340.473 490.265 341.575 489.491 342.46 488.5C343.29 487.41 342.28 486.29 340.97 486.5C338.506 486.877 336.278 488.179 334.74 490.14Z" fill="#F5E2D7"/>
<path d="M338.72 493.25L338.6 493.43C338.31 493.89 338.1 494.61 338.72 494.93C339.038 495.054 339.385 495.086 339.72 495.02C340.922 494.825 342.083 494.436 343.16 493.87C344.4 493.38 345.506 492.606 346.39 491.61C347.21 490.52 346.21 489.4 344.89 489.61C342.445 489.991 340.237 491.293 338.72 493.25Z" fill="#F5E2D7"/>
<path d="M343.7 495.429L343.58 495.609C343.29 496.069 343.08 496.789 343.7 497.109C344.033 497.244 344.399 497.275 344.75 497.199C345.95 497 347.111 496.612 348.19 496.049C349.429 495.56 350.536 494.786 351.42 493.789C352.24 492.699 351.24 491.579 349.92 491.789C347.456 492.159 345.229 493.462 343.7 495.429Z" fill="#F5E2D7"/>
<path d="M296.66 304.251C296.66 304.251 296.66 304.301 296.66 304.381C296.85 305.301 297.92 310.781 299.43 318.501C300.43 323.501 301.56 329.431 302.76 335.671C307 357.671 311.88 383.621 311.81 385.881C311.69 389.881 303.68 480.381 303.68 480.381H339.06C339.06 480.381 344.67 394.741 345.12 390.461C345.47 387.231 339.96 338.211 337.23 314.461C336.36 306.761 335.78 301.711 335.78 301.711L306.6 303.621L296.66 304.251Z" fill="#526993"/>
<path d="M248.51 473.65L255.51 474.2L273.6 385.93L271.94 317.93C281.093 318.617 290.275 318.827 299.45 318.56C300.74 318.56 302.03 318.48 303.29 318.42C314.705 317.957 326.069 316.647 337.29 314.5C336.42 306.8 335.84 301.75 335.84 301.75L296.7 304.31C296.7 304.31 296.7 304.36 296.7 304.44L266.23 306.93L269.53 381.55L248.51 473.65Z" fill="#385077"/>
<path d="M301.34 328.221L318.08 385.931L308.46 480.341H303.7C303.7 480.341 311.7 389.841 311.83 385.841C311.9 383.581 307.02 357.661 302.78 335.631C302.41 333.771 301.34 328.221 301.34 328.221Z" fill="#385077"/>
<path d="M341.6 308.931L324.21 309.641L274.33 311.641L259.53 312.231L256.92 253.731L256.32 240.401L256.1 235.231L255.51 221.931L255.27 216.771L254.68 203.431L253.74 182.251L270.42 172.871C270.42 172.871 277.61 169.871 280.04 169.451C288.58 167.831 300.04 170.741 307.72 174.451C310.771 175.97 313.656 177.799 316.33 179.911C318.33 181.521 320.77 183.311 322.07 185.561C323.2 187.561 324.37 191.121 325.54 195.831C326.12 198.101 326.69 200.631 327.26 203.391C328.09 207.391 328.93 211.921 329.74 216.731C330.02 218.411 330.32 220.131 330.6 221.891C331.29 226.191 331.97 230.671 332.6 235.231C332.85 236.941 333.1 238.671 333.34 240.401C333.97 244.841 334.58 249.311 335.15 253.731C336.26 262.171 337.26 270.441 338.15 277.901C340.27 295.751 341.6 308.931 341.6 308.931Z" fill="#FAEFE6"/>
<path d="M329.74 221.929H255.27L254.68 214.439H327.26C328.09 216.689 328.93 219.209 329.74 221.929Z" fill="#526993"/>
<path d="M332.64 232.311H256.1L255.51 224.811H330.6C331.29 227.231 332 229.751 332.64 232.311Z" fill="#526993"/>
<path d="M335.19 242.701H256.92L256.32 235.211H333.38C334 237.701 334.62 240.211 335.19 242.701Z" fill="#526993"/>
<path d="M270.43 172.829C270.43 172.829 270.74 173.029 271.33 173.379C275.33 175.809 291.82 185.569 298.91 187.309C307.01 189.309 316.33 179.909 316.33 179.909C315.972 179.415 315.516 178.999 314.99 178.689H314.94C313.69 177.839 311.76 176.689 309.72 175.479C308.72 174.919 307.79 174.359 306.85 173.819C303.85 172.109 301.17 170.649 300.85 170.509C297.85 169.179 291.42 169.339 286.85 169.209C285.72 169.209 284.7 169.119 283.85 169.029H283.31C282.117 169.051 280.93 169.202 279.77 169.479C278.705 169.752 277.656 170.086 276.63 170.479H276.52C275.14 170.969 273.78 171.479 272.39 171.989L272.25 172.049C272.172 172.088 272.092 172.121 272.01 172.149C271.5 172.399 270.64 172.809 270.47 172.859L270.43 172.829Z" fill="#E79E80"/>
<path d="M282.24 171.041C282.66 171.461 301.93 182.161 301.93 182.161C301.93 182.161 301.51 173.661 301.3 169.241C301.24 167.861 301.2 166.881 301.2 166.671C301.2 164.901 302.71 157.231 302.71 157.231L283.9 148.631C283.9 148.631 283.6 152.511 283.32 156.791C283 161.931 282 170.811 282.24 171.041Z" fill="#E79E80"/>
<path d="M283.32 156.79C288.54 160.59 300.05 168.89 301.2 169.21H301.3C301.24 167.83 301.2 166.85 301.2 166.64C301.2 164.87 302.71 157.2 302.71 157.2L283.9 148.6C283.9 148.6 283.6 152.51 283.32 156.79Z" fill="#E27C6F"/>
<path d="M281.33 149.29C281.924 150.549 282.804 151.652 283.9 152.51C284.33 152.89 284.83 153.29 285.41 153.71C287.62 155.29 308.28 164.14 311.41 163.71C314.54 163.28 317.59 152.35 317.76 151.2C318.76 144.14 321.59 122.33 321.59 122.33C313.74 98.5599 285.73 110.87 282.59 113.21C279.45 115.55 281.33 149.29 281.33 149.29Z" fill="#E79E80"/>
<path d="M283.9 152.509C284.33 152.889 284.83 153.289 285.41 153.709C287.62 155.289 308.28 164.139 311.41 163.709C314.54 163.279 317.59 152.349 317.76 151.199C315.76 155.999 313.53 162.639 311.28 162.429C307.94 162.119 286.41 153.829 283.9 152.509Z" fill="#EEBD90"/>
<path d="M284.37 150.13C282.608 149.953 280.901 149.419 279.354 148.559C277.806 147.699 276.45 146.532 275.37 145.13C275.033 144.709 274.732 144.261 274.47 143.79C273.25 141.59 272.9 133.94 276.03 132.17C278.23 130.92 279.82 132.73 280.58 133.92C280.765 134.213 280.932 134.517 281.08 134.83L284.37 150.13Z" fill="#EEBD90"/>
<path d="M284.37 150.131C282.608 149.954 280.901 149.419 279.354 148.56C277.806 147.7 276.45 146.533 275.37 145.131C275.22 144.911 275.1 144.711 274.99 144.511C273.78 142.311 273.43 134.661 276.55 132.891C278.33 131.891 279.71 132.891 280.55 133.891C280.735 134.183 280.902 134.487 281.05 134.801L284.37 150.131Z" fill="#E79E80"/>
<path d="M275 138.27C274.867 138.887 274.916 139.53 275.14 140.12C275.99 142.68 278.56 144.64 281.01 146.46C280.298 145.255 279.996 143.851 280.15 142.46C280.2 141.99 280.3 141.51 280.31 141.03C280.37 139.09 276 134.65 275 138.27Z" fill="#E27C6F"/>
<path d="M282.28 147.191L282.14 147.111C282.05 147.051 281.91 146.981 281.75 146.871C281.294 146.571 280.886 146.204 280.54 145.781C280.054 145.202 279.712 144.517 279.54 143.781C279.344 142.875 279.453 141.929 279.85 141.091C279.9 140.973 279.96 140.859 280.03 140.751L280.08 140.671V140.591L280 140.451L279.82 140.161C279.594 139.815 279.35 139.482 279.09 139.161C278.83 138.831 278.56 138.531 278.3 138.251C278.058 137.992 277.797 137.751 277.52 137.531C277.292 137.347 277.019 137.227 276.73 137.181C276.497 137.156 276.262 137.194 276.05 137.291C275.924 137.348 275.82 137.442 275.75 137.561C275.766 137.489 275.796 137.421 275.839 137.36C275.882 137.3 275.937 137.249 276 137.211C276.226 137.054 276.494 136.967 276.77 136.961C277.139 136.974 277.5 137.077 277.82 137.261C278.173 137.461 278.508 137.692 278.82 137.951C279.153 138.223 279.467 138.517 279.76 138.831C280.076 139.169 280.367 139.53 280.63 139.911C280.7 140.011 280.77 140.111 280.83 140.211L280.93 140.371L281.05 140.581L281.14 140.741L281.05 140.891L280.93 141.101C280.869 141.197 280.815 141.297 280.77 141.401C280.427 142.144 280.292 142.967 280.38 143.781C280.46 144.466 280.682 145.126 281.03 145.721C281.282 146.157 281.591 146.557 281.95 146.911C282.08 147.041 282.2 147.131 282.28 147.201V147.191Z" fill="#B34B57"/>
<path d="M290.37 146.729C290.37 146.729 297.76 145.079 309.18 148.729C309.18 148.729 305.41 156.549 298.63 155.389C291.85 154.229 290.37 146.729 290.37 146.729Z" fill="white"/>
<path d="M319.2 130.681C319.2 130.681 317.09 124.681 314.46 125.971C311.83 127.261 312.68 127.741 312.68 127.741L319.2 130.681Z" fill="#4A0E2F"/>
<path d="M289.49 126.5C289.49 126.5 297.78 119.73 300.13 123.04C301.49 124.98 300.13 125.91 300.13 125.91L289.49 126.5Z" fill="#4A0E2F"/>
<path d="M293.18 134.01C293.18 136.2 294.28 138.01 295.65 138.01C297.02 138.01 298.13 136.23 298.13 134.01C298.13 131.79 297.02 130.01 295.65 130.01C294.28 130.01 293.18 131.81 293.18 134.01Z" fill="#1D1E1E"/>
<path d="M290.81 131.79C291.401 132.666 292.225 133.359 293.19 133.79C294.178 134.153 295.247 134.236 296.28 134.03C295.686 133.157 294.862 132.465 293.9 132.03C292.912 131.664 291.842 131.581 290.81 131.79Z" fill="white"/>
<path d="M316.58 135.5C316.58 137.15 315.75 138.5 314.72 138.5C313.69 138.5 312.85 137.16 312.85 135.5C312.85 133.84 313.69 132.5 314.72 132.5C315.75 132.5 316.58 133.84 316.58 135.5Z" fill="#1D1E1E"/>
<path d="M318.19 134.04C317.731 134.616 317.137 135.07 316.46 135.36C315.771 135.619 315.03 135.708 314.3 135.62C314.756 135.041 315.351 134.587 316.03 134.3C316.717 134.035 317.459 133.946 318.19 134.04Z" fill="white"/>
<path d="M314.74 144.67C315.07 145.54 316.95 145.67 318.94 144.9C320.93 144.13 322.28 142.84 321.94 141.97C321.6 141.1 319.73 140.97 317.74 141.75C315.75 142.53 314.42 143.8 314.74 144.67Z" fill="#E27C6F"/>
<path d="M289.67 140.61C289.33 141.92 291.5 143.61 294.5 144.4C297.5 145.19 300.22 144.74 300.56 143.4C300.9 142.06 298.74 140.4 295.73 139.61C292.72 138.82 290 139.3 289.67 140.61Z" fill="#E27C6F"/>
<path d="M311.51 142.449C311.285 143.04 310.945 143.581 310.51 144.039C309.894 144.616 309.225 145.131 308.51 145.579C307.737 145.418 307.015 145.068 306.409 144.56C305.804 144.052 305.334 143.403 305.04 142.669L305.59 142.779C306.959 143.105 308.379 143.163 309.77 142.949C310.366 142.845 310.95 142.677 311.51 142.449Z" fill="#E27C6F"/>
<path d="M309.16 132.26C310.782 135.453 311.619 138.988 311.6 142.57C310.716 143.811 309.607 144.876 308.33 145.71L310.84 142.21C309.827 138.986 309.262 135.638 309.16 132.26Z" fill="#DB5B67"/>
<path d="M270.43 172.83C270.43 172.83 288.92 267.42 286.31 293.83C283.7 320.24 282.31 332.56 282.31 332.56C282.31 332.56 252.56 330.56 248.54 328.21C244.52 325.86 248.54 292.54 248.54 292.54C248.54 292.54 244.54 190.06 248.54 185.43C253.74 179.42 257 176.66 270.43 172.83Z" fill="#526993"/>
<path d="M270.43 287.029L253.74 314.649L262.08 319.499L276.11 290.009L270.43 287.029Z" fill="#385077"/>
<path d="M326.63 122.13C312.44 128.2 292.45 113.63 292.45 113.63C292.45 113.63 291.53 117.18 289.65 118.86C287.77 120.54 283.31 122.13 283.31 122.13L282.31 136.89L280.43 135.19C279.974 134.77 279.435 134.452 278.847 134.256C278.26 134.06 277.637 133.991 277.021 134.054C276.405 134.116 275.809 134.308 275.273 134.618C274.737 134.928 274.272 135.347 273.91 135.85C272.993 133.844 272.221 131.776 271.6 129.66C270.23 125.13 269.02 118.83 270.45 113.26C273.05 103.18 281.08 103.92 281.08 103.92C286.36 99.4298 294.15 98.2198 300.91 98.1998C305.574 98.174 310.196 99.0808 314.505 100.867C318.813 102.653 322.722 105.282 326 108.6C326.979 109.589 327.884 110.649 328.71 111.77C331.55 115.75 332.21 119.74 326.63 122.13Z" fill="#38102B"/>
<path d="M328.7 111.77C326.359 112.894 323.871 113.685 321.31 114.12C315.815 115.08 310.177 114.854 304.777 113.455C299.377 112.056 294.338 109.517 290 106.01C289.043 108.926 287.375 111.559 285.148 113.671C282.921 115.783 280.203 117.308 277.24 118.11C278.338 119.452 278.919 121.142 278.879 122.875C278.838 124.609 278.179 126.27 277.02 127.56C276.319 128.27 275.475 128.825 274.544 129.187C273.614 129.548 272.617 129.71 271.62 129.66C270.806 127.034 270.253 124.334 269.97 121.6C269.655 118.812 269.825 115.99 270.47 113.26C273.07 103.18 281.1 103.92 281.1 103.92C286.38 99.4297 294.17 98.2197 300.93 98.1997C309.405 98.1546 317.61 101.177 324.03 106.71C324.72 107.3 325.39 107.94 326.03 108.6C326.995 109.591 327.888 110.65 328.7 111.77Z" fill="#4A0E2F"/>
<path d="M324 106.71C321.078 107.068 318.13 107.172 315.19 107.02C307.43 106.87 299.46 106.66 292.33 103.63C291.24 103.17 290.06 102.63 288.94 102.99C287.9 103.503 287.059 104.347 286.55 105.39C283.466 109.963 278.776 113.211 273.41 114.49C273.572 115.883 273.332 117.293 272.716 118.553C272.101 119.813 271.138 120.871 269.94 121.6C269.625 118.812 269.794 115.99 270.44 113.26C273.04 103.18 281.07 103.92 281.07 103.92C286.35 99.4297 294.14 98.2197 300.9 98.1997C309.375 98.1546 317.58 101.177 324 106.71Z" fill="#5F1234"/>
<path d="M302.84 98.6099L302.13 98.9299L295.79 101.87L292 103.63L279.71 109.33L269.8 113.93L269.69 109.33L269.61 106.45L269.53 103.63L269.45 100.54V98.9299V98.1199L269.34 94.0199V93.2499L269.23 88.5499V87.8399L269.18 86.3399L269 82.8599L268.88 78.1699V77.0399V76.7899L268.77 72.4799L268.65 67.6699L273.65 72.1899L273.98 72.4799L276.9 75.1299L280.27 78.1299L281.2 78.9699L281.68 79.4099L285.47 82.8199L287.7 84.8199L290.87 87.6899L291.76 88.4899L294.87 91.2899L296.96 93.1899L299.64 95.6199L302.88 98.5399L302.84 98.6099Z" fill="#BB4761"/>
<path d="M280.21 78.1705H268.87L268.83 77.0405L268.82 76.7905L268.71 72.4805H273.92L276.84 75.1205L280.21 78.1705Z" fill="white"/>
<path d="M291.7 88.5494H269.15L269.13 87.8394L269.08 86.3394L268.99 82.8594H285.41L287.64 84.8794L290.81 87.7494L291.7 88.5494Z" fill="white"/>
<path d="M302.84 98.61L302.13 98.93H269.42V98.12L269.31 94.02V93.25H296.9L299.58 95.68L302.82 98.6L302.84 98.61Z" fill="white"/>
<path d="M292.01 103.631L279.72 109.331H269.7L269.62 106.451L269.54 103.631H292.01Z" fill="white"/>
<g style="mix-blend-mode:screen" opacity="0.6">
<path d="M295.79 101.87L302.79 98.6097L299.55 95.6797L290.78 87.7597L281.6 79.4597L273.6 72.1997L268.6 67.6797L295.79 101.87Z" fill="#BB4761"/>
</g>
<path d="M261.72 66.9009L265.49 67.8709L266.82 71.5209L268.9 68.2409L272.78 68.1109L270.31 65.1109L271.38 61.3809L267.77 62.8009L264.55 60.6309L264.78 64.5109L261.72 66.9009Z" fill="#EEC05C"/>
<path d="M316.33 179.93C316.33 179.93 326.25 254.27 327.75 264.12C329.25 273.97 333.35 330.35 333.35 330.35C333.35 330.35 349.35 329.98 350.52 326.62C351.69 323.26 333.45 197.5 328.87 187.62C327.77 185.21 316.33 179.93 316.33 179.93Z" fill="#526993"/>
<path d="M335.59 289.75L339.28 287.48L346.6 305.43L341.61 308.97L335.59 289.75Z" fill="#385077"/>
<path d="M316.33 179.93C316.33 179.93 354.06 185.51 365.08 187.61C365.08 187.61 382.62 143.61 388.22 138.82L413.11 148.53C413.11 148.53 383.97 221.87 375.52 224.83C365.52 228.32 328.33 222.61 328.33 222.61L325.54 195.85L316.33 179.93Z" fill="#526993"/>
<path d="M415.55 141.109C413.579 143.006 411.502 144.789 409.33 146.449C406.42 148.789 403.6 150.959 403.6 150.959C401.024 150.037 398.514 148.938 396.09 147.669C392.44 145.669 390.15 143.359 389.82 138.989C389.708 137.456 389.874 135.914 390.31 134.439C390.504 133.786 390.809 133.171 391.21 132.619L391.52 132.399C393.03 131.222 394.217 129.681 394.97 127.919C395.357 127.033 395.672 126.117 395.91 125.179C396.086 124.007 396.577 122.905 397.33 121.989C398.045 121.377 398.97 121.065 399.91 121.119C400.705 121.129 401.497 121.23 402.27 121.419C405.591 122.188 408.827 123.287 411.93 124.699C413.452 125.272 414.801 126.226 415.85 127.469C416.21 127.978 416.493 128.538 416.69 129.129C416.7 129.769 416.91 139.429 415.55 141.109Z" fill="#E79E80"/>
<path d="M415.55 141.109C415.07 141.499 408.46 146.909 405.23 146.169C402.972 145.601 400.79 144.765 398.73 143.679L396.09 147.679C392.44 145.679 390.15 143.369 389.82 138.999C389.708 137.465 389.874 135.924 390.31 134.449C390.504 133.796 390.809 133.18 391.21 132.629L391.31 132.479C392.56 130.929 394 129.929 394.94 127.929C395.327 127.043 395.642 126.127 395.88 125.189C396.056 124.017 396.547 122.915 397.3 121.999C398.015 121.386 398.94 121.075 399.88 121.129C400.675 121.139 401.467 121.24 402.24 121.429C405.561 122.198 408.797 123.297 411.9 124.709C413.422 125.282 414.771 126.236 415.82 127.479C416.18 127.988 416.463 128.548 416.66 129.139C416.7 129.769 416.91 139.429 415.55 141.109Z" fill="#E27C6F"/>
<path d="M404.82 135.48C407.806 136.536 410.499 138.284 412.68 140.58C411.238 137.824 409.025 135.548 406.31 134.03C404.949 133.29 403.428 132.893 401.879 132.874C400.329 132.855 398.799 133.214 397.42 133.92C396.892 134.174 396.422 134.535 396.04 134.98C397.1 135.38 399.04 134.65 400.21 134.67C401.779 134.704 403.334 134.977 404.82 135.48Z" fill="#B34B57"/>
<path d="M391.38 110.455L376.326 124.163C375.297 125.1 375.223 126.694 376.16 127.723L398.276 152.012C399.213 153.041 400.807 153.115 401.836 152.178L416.89 138.471C417.92 137.534 417.994 135.94 417.057 134.911L394.94 110.622C394.003 109.593 392.409 109.518 391.38 110.455Z" fill="#444444"/>
<path d="M382.7 127.42C382.979 127.168 383.177 126.839 383.268 126.474C383.36 126.109 383.341 125.725 383.214 125.371C383.088 125.017 382.859 124.709 382.557 124.485C382.255 124.261 381.893 124.132 381.517 124.114C381.142 124.095 380.769 124.189 380.447 124.383C380.125 124.576 379.867 124.861 379.707 125.201C379.546 125.541 379.491 125.921 379.546 126.293C379.602 126.665 379.767 127.012 380.02 127.29C380.359 127.662 380.831 127.885 381.333 127.909C381.836 127.933 382.327 127.758 382.7 127.42Z" fill="#F5E2D7"/>
<path d="M417.79 128.01C417.44 132.95 413.63 137.69 413.63 137.69C412.444 137.642 411.271 137.419 410.15 137.03C409.63 136.88 409.15 136.68 408.59 136.47C407.389 135.969 406.22 135.395 405.09 134.75C404.57 134.47 404.09 134.18 403.56 133.87C402.23 133.06 400.94 132.2 399.76 131.35C399.25 131 398.76 130.64 398.3 130.35C397.05 129.42 395.99 128.57 395.2 127.92C394.41 127.27 393.76 126.69 393.76 126.69C395.39 122.4 401 117.93 401 117.93C402.76 118.157 404.476 118.649 406.09 119.39C412.51 122.2 417.79 128.01 417.79 128.01Z" fill="#E79E80"/>
<path d="M402.88 124.689C402.88 124.689 402.7 125.299 402.36 126.179C401.956 127.282 401.482 128.358 400.94 129.399C400.58 130.069 400.186 130.72 399.76 131.349C399.25 130.999 398.76 130.639 398.3 130.349C398.787 128.437 399.921 126.751 401.51 125.579C401.933 125.234 402.392 124.936 402.88 124.689Z" fill="#B34B57"/>
<path d="M407.78 128.32C407.78 128.32 407.66 128.92 407.39 129.78C407.074 130.857 406.666 131.904 406.17 132.91C405.83 133.58 405.44 134.2 405.09 134.75C404.57 134.47 404.09 134.18 403.56 133.87C403.708 133.197 403.939 132.546 404.25 131.93C404.801 130.862 405.571 129.922 406.51 129.17C406.905 128.848 407.331 128.563 407.78 128.32Z" fill="#B34B57"/>
<path d="M413.11 130.18C413.11 130.18 412.98 130.8 412.71 131.71C412.367 132.857 411.922 133.972 411.38 135.04C411.014 135.732 410.603 136.401 410.15 137.04C409.63 136.89 409.15 136.69 408.59 136.48C408.777 135.635 409.073 134.818 409.47 134.05C410.062 132.94 410.856 131.95 411.81 131.13C412.21 130.77 412.646 130.452 413.11 130.18Z" fill="#B34B57"/>
<path d="M406.06 119.34C404.559 119.562 403.112 120.057 401.79 120.8C400.628 121.561 399.578 122.48 398.67 123.53C397.517 124.668 396.463 125.902 395.52 127.22C395.397 127.428 395.29 127.645 395.2 127.87C394.29 127.12 393.76 126.64 393.76 126.64C395.39 122.4 401 117.93 401 117.93C402.747 118.144 404.453 118.619 406.06 119.34Z" fill="#EEBD90"/>
<path d="M373.39 194.7C371.39 192.85 369.3 191.11 367.24 189.34C367.103 189.211 366.935 189.119 366.753 189.073C366.57 189.027 366.379 189.028 366.197 189.076C366.015 189.124 365.848 189.217 365.712 189.347C365.577 189.478 365.476 189.64 365.42 189.82C364.76 191.71 364.07 193.59 363.37 195.47C363.04 196.36 364.51 196.99 364.9 196.12C365.54 194.71 366.18 193.32 366.83 191.92C368.47 193.43 370.11 194.92 371.83 196.38C373 197.42 374.47 195.62 373.39 194.7Z" fill="#385077"/>
<path d="M241 200.5C232.287 205.229 222.642 207.988 212.746 208.58C202.851 209.173 192.945 207.585 183.73 203.93C182.3 203.34 180.88 202.72 179.49 202.03C184.724 187.747 187.27 172.619 187 157.41C186.88 150.77 186.23 144 187.9 137.56C188.964 133.543 190.886 129.804 193.535 126.601C196.183 123.399 199.494 120.809 203.24 119.01C211.41 115.14 224.94 114.46 232.76 119.63C238.09 123.17 240.93 129.15 242.12 135.36C242.543 137.566 242.778 139.804 242.82 142.05C242.99 152 239.93 161.67 238.13 171.45C236.33 181.23 235.93 191.93 241 200.5Z" fill="#EDC88D"/>
<path d="M242.1 135.36C235.539 132.606 229.815 128.178 225.5 122.52C220.215 129.325 212.869 134.237 204.56 136.52C200.98 137.52 196.96 138.14 194.5 140.93C191.71 144.1 191.95 148.82 192.25 153.02C193.52 170.45 192.71 188.9 183.73 203.89C182.3 203.3 180.88 202.68 179.49 201.99C184.71 187.717 187.255 172.605 187 157.41C186.88 150.77 186.23 144 187.9 137.56C188.964 133.543 190.886 129.804 193.535 126.601C196.183 123.399 199.494 120.809 203.24 119.01C211.41 115.14 224.94 114.46 232.76 119.63C235.528 121.519 237.777 124.074 239.3 127.06C240.637 129.673 241.581 132.47 242.1 135.36Z" fill="#F5DB9E"/>
<path d="M206.81 502.4L214.09 503.48L215.21 492.21C215.21 492.21 220.44 504.5 222.68 505.27C224.92 506.04 246.39 506.56 254.41 504.69C262.6 502.78 262.25 500.38 262.25 500.38C261.42 498.68 255.16 494.38 249.18 492.5C247.545 491.858 246.007 490.993 244.61 489.93C237.68 485.07 228.01 475.49 228.01 475.49H212.37C205.88 483.54 206.81 502.4 206.81 502.4Z" fill="#E79E80"/>
<path d="M206.81 502.4L214.09 503.48L215.21 492.21C215.21 492.21 220.44 504.5 222.68 505.27C224.92 506.04 246.39 506.56 254.41 504.69C262.6 502.78 262.25 500.38 262.25 500.38C261.42 498.68 255.16 494.38 249.18 492.5C247.545 491.858 246.007 490.993 244.61 489.93C242.881 492.081 241.042 494.14 239.1 496.1C237.89 497.05 226.97 489.02 225.01 487.81C223.05 486.6 218.38 475.49 218.38 475.49H212.38C205.88 483.54 206.81 502.4 206.81 502.4Z" fill="#E27C6F"/>
<path d="M206.81 502.4L214.09 503.48L215.21 492.21C215.21 492.21 220.44 504.5 222.68 505.27C224.92 506.04 246.39 506.56 254.41 504.69C262.6 502.78 262.25 500.38 262.25 500.38C261.42 498.68 255.16 494.38 249.18 492.5C249.18 492.5 246.38 500.55 240.6 500.38C234.82 500.21 220.25 489.69 218.2 484.59C216.764 481.26 214.795 478.186 212.37 475.49C205.88 483.54 206.81 502.4 206.81 502.4Z" fill="#FAEFE6"/>
<path d="M148.42 499.229C148.42 501.919 154.09 510.699 157.42 510.659C160.75 510.619 172.84 502.659 174.34 497.439C174.79 494.798 174.904 492.11 174.68 489.439L174.59 487.579C174.13 478.809 172.75 467.939 172.75 467.939H157.45C157.45 467.939 152.95 480.119 150.3 489.709C149.328 492.805 148.698 495.997 148.42 499.229Z" fill="#E79E80"/>
<path d="M148.42 499.23C148.42 501.92 154.09 510.7 157.42 510.66C160.75 510.62 172.84 502.66 174.34 497.44C174.79 494.798 174.904 492.11 174.68 489.44L174.59 487.58C170.87 490.28 162.48 496.26 161.59 496.04C160.43 495.75 157.72 492.21 157.44 490.49C157.16 488.77 160.71 467.93 160.71 467.93H157.45C157.45 467.93 152.95 480.11 150.3 489.7C149.327 492.798 148.697 495.994 148.42 499.23Z" fill="#E27C6F"/>
<path d="M148.42 499.229C148.42 501.919 154.09 510.699 157.42 510.659C160.75 510.619 172.84 502.659 174.34 497.439C174.79 494.798 174.904 492.11 174.68 489.439C171.05 493.889 164.14 501.439 159.38 500.609C155.3 499.929 152.13 494.149 150.27 489.709C149.308 492.806 148.688 495.998 148.42 499.229Z" fill="#FAEFE6"/>
<path d="M157.44 467.929H172.78C172.78 467.929 187.65 397.359 191.48 389.069C193.21 385.339 196.8 368.819 200.21 351.799C202.09 342.489 203.9 333.039 205.34 325.429C207.89 325.489 210.42 325.499 212.66 325.519C212.79 333.579 212.95 343.609 213.12 352.759C213.38 365.669 213.66 376.809 213.91 378.129C213.91 378.129 208.46 394.209 206.82 402.659C205.63 408.829 212.37 475.509 212.37 475.509H228C228 475.509 232.78 390.719 234.84 384.749C235.78 382.019 238.11 368.169 240.12 352.349C242.52 333.739 244.51 312.349 243.39 303.249C243.04 300.439 242.56 297.179 241.98 293.729C241.11 288.429 239.98 282.649 238.98 277.199H178.82C178.56 277.989 178.3 278.779 178.05 279.599C176.694 284.013 175.621 288.509 174.84 293.059C174.42 295.429 174.1 297.819 173.84 300.229C173.84 300.569 173.84 300.919 173.77 301.229C173.45 306.649 173.5 329.289 173.58 347.909C173.67 362.199 173.77 374.119 173.77 374.119C173.77 374.119 161.51 397.739 160.77 407.259C160.42 412.229 157.44 467.929 157.44 467.929Z" fill="#E79E80"/>
<path d="M157.44 467.929H160.71C162.16 451.929 165.55 415.749 166.81 407.869C168.44 397.709 179.71 373.019 179.71 373.019C179.71 373.019 179.34 310.939 179.71 306.939C179.98 303.809 182.97 285.059 184.24 277.199H178.82C178.56 277.989 178.3 278.779 178.05 279.599C176.694 284.013 175.621 288.509 174.84 293.059C174.42 295.429 174.1 297.819 173.84 300.229C173.84 300.569 173.84 300.919 173.77 301.229C173.45 306.649 173.5 329.289 173.58 347.909C173.67 362.199 173.77 374.119 173.77 374.119C173.77 374.119 161.51 397.739 160.77 407.259C160.42 412.229 157.44 467.929 157.44 467.929Z" fill="#E27C6F"/>
<path d="M213.12 352.74C213.38 365.65 213.66 376.79 213.91 378.11C213.91 378.11 208.46 394.19 206.82 402.64C205.63 408.81 212.37 475.49 212.37 475.49H218.37L216.61 464.93C216.61 464.93 208.61 409.79 211.19 404.67C213.77 399.55 219.88 376.39 219.88 376.39L217.1 319.52L198.77 318.59L205.34 325.46C207.89 325.52 210.42 325.53 212.66 325.55C212.79 333.56 213 343.59 213.12 352.74Z" fill="#E27C6F"/>
<path d="M153.17 423.289C153.17 423.289 193.02 459.289 208.87 462.539C224.47 465.769 260.34 437.099 261.4 436.259L241.65 279.929L190.09 268.719L181.89 266.939C168.39 291.639 153.17 423.289 153.17 423.289Z" fill="#B0200B"/>
<path d="M240.66 287.121C207.92 296.181 179.41 286.581 179.32 286.551C179.23 286.521 179.43 285.901 179.61 285.011C180.19 282.061 181.61 275.251 183.13 267.011C184.46 260.011 185.92 251.881 187.13 244.211C189.13 231.721 190.43 220.331 189.46 216.421C188.46 212.221 182.96 193.021 183.46 191.641C183.74 190.841 186.1 189.011 188.7 187.251C189.43 186.741 190.18 186.251 190.91 185.801C192.34 184.901 193.69 184.111 194.65 183.641C195.624 183.148 196.626 182.71 197.65 182.331C199.567 181.69 201.517 181.149 203.49 180.711L217.12 180.931C220.327 181.878 223.445 183.103 226.44 184.591C227.357 185.063 228.242 185.594 229.09 186.181C229.24 186.281 229.37 186.391 229.51 186.491L229.99 186.861C230.81 187.481 231.65 188.191 232.54 188.951C242.62 197.711 236.31 226.861 235.42 230.731C235.09 232.171 237.47 256.661 239.14 272.911C239.93 280.791 240.57 286.731 240.66 287.121Z" fill="#B0200B"/>
<path d="M226.41 184.549C226.25 189.809 225.65 198.649 223.35 199.729C220.08 201.259 215.47 193.559 215.47 193.559C215.033 195.491 214.171 197.302 212.946 198.859C211.722 200.416 210.165 201.68 208.39 202.559C203.74 204.979 194.95 192.249 190.88 185.789C192.31 184.889 193.66 184.099 194.62 183.629C195.594 183.136 196.596 182.699 197.62 182.319C199.537 181.678 201.486 181.138 203.46 180.699L217.09 180.919C220.296 181.857 223.414 183.071 226.41 184.549Z" fill="#FAEFE6"/>
<path d="M156.07 400.071C156.07 400.071 190.07 426.931 203.65 429.381C216.97 431.791 247.65 410.381 248.51 409.751C247.51 410.051 216.51 419.881 205.09 421.411C193.53 422.941 164.59 396.241 164.59 396.241C164.59 396.241 172.24 330.551 174.96 320.741C175.52 318.741 176.38 316.011 177.4 312.971C181.35 301.221 187.61 284.631 187.61 284.631L186.43 254.041L184.25 245.811C183.15 258.431 181.82 271.741 180.61 283.301C169.07 301.741 156.07 400.071 156.07 400.071Z" fill="#961406"/>
<path d="M215.47 193.549L203.47 180.669C203.47 178.669 203.71 177.869 203.98 172.849C204.26 167.269 204.55 162.029 204.55 162.029L220.22 168.529C218.486 172.545 217.471 176.833 217.22 181.199C216.48 190.219 215.47 193.549 215.47 193.549Z" fill="#E79E80"/>
<path d="M220.21 168.529C218.476 172.545 217.461 176.833 217.21 181.199C216.71 181.399 216.21 181.579 215.76 181.739C213.92 182.339 208.12 177.019 204 172.849C204.28 167.269 204.57 162.029 204.57 162.029L220.21 168.529Z" fill="#E27C6F"/>
<path d="M237.07 150.06C236.72 151.52 236.29 153.06 235.76 154.63C235.76 154.63 236.33 162.54 235.47 164.3C234.61 166.06 229.12 177 223.55 176.23C218.9 175.58 207.62 168.57 203.73 164.44C203.115 163.902 202.653 163.213 202.39 162.44C201.89 159.3 200.25 145.44 200.1 144.29C199.67 141.15 198.75 117.39 227.34 124.46C229.857 125.069 232.151 126.374 233.962 128.226C235.773 130.077 237.026 132.4 237.58 134.93C238.531 139.949 238.357 145.116 237.07 150.06Z" fill="#E79E80"/>
<path d="M235.76 154.631C235.76 154.631 236.33 162.541 235.47 164.301C234.61 166.061 229.12 177.001 223.55 176.231C218.9 175.581 207.62 168.571 203.73 164.441C208.52 167.891 221.31 176.691 225.13 175.441C229.85 173.881 235.34 163.571 235.25 162.541C235.16 161.511 234.97 154.761 234.97 154.761C234.97 154.761 235.97 152.651 237.07 150.061C236.72 151.521 236.29 153.041 235.76 154.631Z" fill="#EEBD90"/>
<path d="M229.76 152.371C230.091 151.611 230.66 150.978 231.381 150.568C232.102 150.159 232.936 149.993 233.759 150.096C234.582 150.2 235.349 150.567 235.946 151.143C236.542 151.719 236.937 152.472 237.07 153.291C236.098 152.411 234.865 151.874 233.56 151.761C232.26 151.55 230.928 151.764 229.76 152.371Z" fill="#1D1E1E"/>
<path d="M213.55 146.17C214.021 146.908 214.725 147.467 215.55 147.76C215.688 147.562 215.869 147.397 216.078 147.276C216.287 147.155 216.519 147.082 216.76 147.06C217.95 147.06 218.97 148.51 219.06 150.42C219.15 152.33 218.24 153.9 217.06 153.95C215.88 154 214.85 152.5 214.77 150.6C214.753 150.034 214.83 149.47 215 148.93C214.294 148.145 213.795 147.196 213.55 146.17Z" fill="#1D1E1E"/>
<path d="M217.07 150.86C216.221 151.215 215.28 151.295 214.383 151.087C213.486 150.878 212.677 150.393 212.07 149.7C212.921 149.352 213.859 149.276 214.755 149.484C215.651 149.692 216.46 150.172 217.07 150.86Z" fill="#FAEFE6"/>
<path d="M203.67 162.019C202.182 161.848 200.745 161.375 199.447 160.628C198.149 159.882 197.017 158.878 196.12 157.679C195.844 157.317 195.594 156.936 195.37 156.539C194.37 154.649 194.19 148.179 196.86 146.719C198.74 145.719 200.06 147.239 200.69 148.269C200.841 148.516 200.975 148.774 201.09 149.039L203.67 162.019Z" fill="#EEBD90"/>
<path d="M203.67 162.021C202.183 161.849 200.746 161.376 199.447 160.63C198.149 159.883 197.017 158.88 196.12 157.681C196.004 157.512 195.901 157.335 195.81 157.151C194.81 155.271 194.62 148.791 197.29 147.341C197.868 147.028 198.543 146.95 199.177 147.124C199.81 147.297 200.352 147.708 200.69 148.271C200.841 148.518 200.975 148.775 201.09 149.041L203.67 162.021Z" fill="#E79E80"/>
<path d="M195.94 151.84C195.818 152.361 195.852 152.908 196.04 153.41C196.72 155.6 198.87 157.29 200.92 158.86C200.327 157.828 200.092 156.629 200.25 155.45C200.32 155.049 200.37 154.645 200.4 154.24C200.44 152.62 196.78 148.8 195.94 151.84Z" fill="#E27C6F"/>
<path d="M202 159.5L201.88 159.43C201.81 159.38 201.69 159.32 201.55 159.22C201.174 158.955 200.837 158.639 200.55 158.28C200.149 157.77 199.872 157.175 199.74 156.54C199.587 155.771 199.692 154.973 200.04 154.27C200.084 154.17 200.134 154.073 200.19 153.98L200.24 153.91V153.84L200.18 153.72L200.04 153.47C199.85 153.159 199.643 152.858 199.42 152.57C199.21 152.29 198.99 152.03 198.77 151.79C198.571 151.565 198.354 151.358 198.12 151.17C197.932 151.009 197.704 150.902 197.46 150.86C197.262 150.835 197.061 150.866 196.88 150.95C196.776 151 196.686 151.075 196.62 151.17C196.659 151.048 196.736 150.943 196.84 150.87C197.036 150.742 197.266 150.676 197.5 150.68C197.816 150.687 198.123 150.781 198.39 150.95C198.672 151.124 198.94 151.322 199.19 151.54C199.465 151.778 199.725 152.031 199.97 152.3C200.237 152.591 200.481 152.902 200.7 153.23L200.86 153.49L200.94 153.62L201.04 153.8L201.11 153.93C201.11 153.93 201.11 154.02 201.04 154.06L200.93 154.24C200.878 154.32 200.831 154.403 200.79 154.49C200.492 155.112 200.368 155.803 200.43 156.49C200.485 157.074 200.662 157.639 200.95 158.15C201.157 158.516 201.412 158.853 201.71 159.15L201.98 159.4L202 159.5Z" fill="#B34B57"/>
<path d="M238.27 145.62C238.27 145.62 234.27 140.94 232.4 143C230.53 145.06 231.4 145.21 231.4 145.21L238.27 145.62Z" fill="#F5DB9E"/>
<path d="M209.51 145.249C209.51 145.249 217.07 138.249 219.51 141.249C220.94 143.029 219.71 143.999 219.71 143.999L209.51 145.249Z" fill="#F5DB9E"/>
<path d="M225.14 159.529C224.591 159.234 223.983 159.064 223.36 159.029C223.971 160.469 225.119 161.614 226.56 162.219C226.666 162.274 226.782 162.304 226.9 162.309C227.048 162.299 227.19 162.247 227.31 162.159C228.117 161.708 228.824 161.1 229.39 160.369C229.518 160.228 229.613 160.061 229.67 159.879C229.82 159.279 229.4 159.409 229.04 159.539C228.622 159.697 228.185 159.801 227.74 159.849C226.861 159.954 225.969 159.844 225.14 159.529Z" fill="#E27C6F"/>
<path d="M226.69 161.93C227.06 161.61 227.48 161.34 227.86 161.02C228.332 160.635 228.767 160.206 229.16 159.74C227.23 158.36 227.28 156.31 227.41 154C227.468 152.944 227.772 151.917 228.3 151C228.58 150.523 228.916 150.08 229.3 149.68C229.496 149.483 229.703 149.296 229.92 149.12C230.129 148.962 230.362 148.837 230.61 148.75C230.48 148.89 230.4 149.05 230.29 149.19C229.984 149.539 229.7 149.907 229.44 150.29C228.68 151.493 228.239 152.869 228.16 154.29C228.101 155.215 228.237 156.141 228.56 157.01C228.916 158.041 229.583 158.935 230.47 159.57C230.47 159.57 229.11 161.11 228.98 161.24C228.634 161.563 228.255 161.847 227.85 162.09C227.466 162.386 227.003 162.56 226.52 162.59C226.37 162.588 226.224 162.543 226.1 162.46C226.183 162.409 226.26 162.348 226.33 162.28L226.42 162.19L226.69 161.93Z" fill="#DB5B67"/>
<path d="M226.87 165.93C226.87 165.93 220.75 161.4 213.87 163.75C213.87 163.75 215.87 169.67 219.27 170.15C223.41 170.68 226.87 165.93 226.87 165.93Z" fill="#DB5B67"/>
<path d="M226.47 165.99C226.47 165.99 222.08 163.93 214.29 163.93C214.29 163.93 215.38 168.58 219.83 169.12C221.118 169.264 222.421 169.048 223.593 168.495C224.766 167.942 225.762 167.075 226.47 165.99Z" fill="#FAEFE6"/>
<path d="M230.17 161.23C230.47 162.07 231.87 162.34 233.3 161.84C234.73 161.34 235.64 160.23 235.3 159.39C234.96 158.55 233.6 158.28 232.18 158.78C230.76 159.28 229.87 160.39 230.17 161.23Z" fill="#E27C6F"/>
<path d="M208.43 156.17C208.09 157.43 210.14 159.09 213.02 159.89C215.9 160.69 218.52 160.31 218.87 159.06C219.22 157.81 217.16 156.13 214.28 155.33C211.4 154.53 208.78 154.93 208.43 156.17Z" fill="#E27C6F"/>
<path d="M240.65 140.51C240.65 140.51 236.42 139.1 232.46 137.7C228.5 136.3 227.8 130.42 227.8 130.42C227.8 130.42 223.08 136.3 220.4 136.72C217.72 137.14 206.4 140.25 206.4 140.25L202.9 150.7C202.9 150.7 199.4 146.21 196.9 146.7L198.43 130.4L207.68 120.6H227.8L235.42 125.78L241.66 133.78L240.65 140.51Z" fill="#EDC88D"/>
<path d="M241.65 133.79L241.46 135.08C235.148 132.318 229.642 127.996 225.46 122.52C220.175 129.325 212.829 134.236 204.52 136.52C202.145 137.028 199.82 137.744 197.57 138.66L198.35 130.4L207.6 120.6H227.8L235.41 125.77L241.65 133.79Z" fill="#F5DB9E"/>
<path d="M182.08 241.541C182.08 241.541 185.08 277.951 202.83 269.291C225.99 261.181 248.53 244.851 258.99 236.541L258.94 236.451L253.5 227.721L200.77 249.471L199.32 241.221L185.85 241.471L182.08 241.541Z" fill="#E79E80"/>
<path d="M253.5 227.72L258.94 236.45L258.99 236.54L262.51 234.31C262.615 234.255 262.715 234.191 262.81 234.12H262.86L265.76 234.29C267.85 234.14 284.68 223.91 284.35 222.63C284.247 222.273 284.124 221.923 283.98 221.58C283.75 221.03 283.51 220.58 283.34 220.21L283.13 219.83C283.165 219.304 283.165 218.776 283.13 218.25C283.12 217.741 283.053 217.235 282.93 216.74C282.899 216.537 282.825 216.343 282.713 216.17C282.601 215.998 282.453 215.851 282.28 215.74C281.218 215.736 280.164 215.926 279.17 216.3C275.27 217.38 269.17 219.48 269.33 219.02C269.51 218.38 281.33 210.54 281.33 210.54C281.389 210.21 281.389 209.871 281.33 209.54C281.234 209.137 281.053 208.759 280.8 208.43C280.04 207.43 262.03 216.04 261.49 216.29C262.794 213.262 263.027 209.879 262.15 206.7C262.154 206.677 262.154 206.653 262.15 206.63C262.06 206.33 261.92 206.05 261.64 205.99C261.506 205.951 261.364 205.951 261.23 205.99C260.69 206.211 260.204 206.543 259.802 206.965C259.4 207.388 259.093 207.89 258.9 208.44C258.534 209.542 258.23 210.664 257.99 211.8C257.255 213.904 256.121 215.846 254.65 217.52C252.35 220.52 254.65 226.94 254.65 226.94L253.5 227.72Z" fill="#E79E80"/>
<path d="M283.12 218.231C282.79 218.391 282.45 218.551 282.12 218.701C280.373 219.467 278.558 220.069 276.7 220.501C275.37 220.811 274.48 220.931 274.38 220.941C274.47 220.941 275.23 220.431 276.44 219.791C277.65 219.151 279.5 218.201 281.51 217.321L282.93 216.721C283.041 217.217 283.104 217.723 283.12 218.231Z" fill="#B34B57"/>
<path d="M284 221.549C282 222.474 279.913 223.198 277.77 223.709C279.514 222.357 281.386 221.178 283.36 220.189C283.51 220.519 283.76 221.009 284 221.549Z" fill="#B34B57"/>
<path d="M182.08 241.541C182.08 241.541 185.08 277.951 202.83 269.291C225.99 261.181 248.53 244.851 258.99 236.541L262.51 234.311L258.94 236.451C245.74 244.271 203.33 268.921 196.48 266.721C190.48 264.781 187.15 249.311 185.85 241.471L182.08 241.541Z" fill="#EEBD90"/>
<path d="M253.65 244.169C253.65 244.169 198.46 283.639 187.42 272.829C177.25 262.879 175.96 244.829 175.81 242.019C175.81 241.789 175.81 241.669 175.81 241.669C175.81 241.669 172.09 210.079 174.52 203.279C176.95 196.479 183.44 191.609 183.44 191.609L189.58 194.699L205.34 241.139L206.59 244.189L243.73 228.569L250.61 239.399L253.65 244.169Z" fill="#B0200B"/>
<path d="M253.65 244.169C253.65 244.169 198.46 283.639 187.42 272.829C177.25 262.879 175.96 244.829 175.81 242.019C176.932 246.427 178.39 250.743 180.17 254.929C182.5 260.429 186.11 266.249 191.95 267.439C195.83 268.219 199.76 266.749 203.43 265.299C220.22 258.659 237.52 251.699 250.6 239.359L253.65 244.169Z" fill="#961406"/>
<path d="M239 231.111C238.47 231.231 237.94 231.381 237.42 231.511C239.11 220.391 237.94 207.741 232.87 198.361C232.79 198.211 232.6 198.361 232.64 198.521C235.93 209.701 237.64 220.011 236.12 231.841C234.52 232.261 232.94 232.721 231.36 233.221C227.9 232.801 224.99 231.071 221.43 232.151C219.7 232.681 218.16 233.681 216.43 234.201C213.05 235.201 210.35 234.491 207.09 233.391C207.002 233.362 206.907 233.364 206.821 233.397C206.735 233.43 206.663 233.491 206.617 233.571C206.571 233.651 206.554 233.745 206.569 233.836C206.584 233.927 206.63 234.01 206.7 234.071C208.118 235.242 209.808 236.039 211.615 236.389C213.421 236.738 215.286 236.629 217.04 236.071C219.94 235.271 221.93 233.751 225.1 234.071C226.01 234.161 226.83 234.331 227.63 234.481C219.431 237.432 211.618 241.36 204.36 246.181C202.17 237.051 199.68 227.971 196.64 219.081C194.53 212.881 192.32 205.081 186.44 201.381C186.18 201.221 185.79 201.561 185.99 201.831C191.1 208.461 193.25 215.831 195.69 223.761C198.21 231.921 200.456 240.151 202.43 248.451C202.481 248.628 202.572 248.792 202.696 248.929C202.82 249.067 202.973 249.174 203.144 249.245C203.315 249.315 203.499 249.345 203.684 249.334C203.868 249.323 204.048 249.271 204.21 249.181C214.978 241.845 227.011 236.563 239.7 233.601C241.34 233.211 240.65 230.731 239 231.111Z" fill="#961406"/>
<path d="M239.28 127.06C234.08 124.96 229.5 118.66 223.72 119.34C221.772 119.717 219.925 120.501 218.3 121.64L201 132.05C197.5 134.16 193.86 136.4 191.73 139.88C188.53 145.16 189.54 151.82 189.48 157.99C189.464 164.272 188.249 170.493 185.9 176.32C186.751 170.054 187.119 163.732 187 157.41C186.88 150.77 186.23 144 187.9 137.56C188.964 133.543 190.886 129.804 193.535 126.601C196.183 123.399 199.494 120.809 203.24 119.01C211.41 115.14 224.94 114.46 232.76 119.63C235.521 121.522 237.763 124.077 239.28 127.06Z" fill="#F8E8AD"/>
<path d="M191.27 132.21L217.27 120.15L224.27 116.89L221 113.93L216.22 109.61L212.22 106.01L209.04 103.14L203.04 97.7097L202.55 97.2697L198.25 93.3897L195.01 90.4497L190 85.9297L190.24 95.0597V95.2997L190.48 104.6V106.09L190.65 112.28L190.76 116.37L190.82 118.8L190.98 124.71L191.27 132.21Z" fill="#E17458"/>
<path d="M211 111.669C211.974 111.92 213.003 111.863 213.943 111.505C214.883 111.146 215.689 110.505 216.25 109.669L212.25 106.069L209.07 103.199C208.37 103.773 207.843 104.531 207.549 105.387C207.255 106.243 207.205 107.164 207.404 108.047C207.603 108.93 208.044 109.74 208.677 110.387C209.31 111.033 210.111 111.491 210.99 111.709L211 111.669Z" fill="#F0C62F"/>
<path d="M190.53 104.62C191.504 104.276 192.345 103.633 192.93 102.782C193.516 101.931 193.817 100.916 193.791 99.8831C193.764 98.8503 193.411 97.8524 192.782 97.0327C192.153 96.213 191.281 95.6135 190.29 95.3203L190.53 104.62Z" fill="#F0C62F"/>
<path d="M191.07 124.731C192.146 124.896 193.244 124.642 194.138 124.022C195.032 123.402 195.654 122.462 195.876 121.396C196.098 120.331 195.903 119.221 195.33 118.295C194.758 117.369 193.852 116.699 192.8 116.421C192.143 116.258 191.457 116.258 190.8 116.421L190.86 118.851L191.07 124.731Z" fill="#F0C62F"/>
<path d="M197.41 111.459C197.987 111.61 198.595 111.585 199.158 111.389C199.721 111.192 200.212 110.832 200.569 110.355C200.926 109.878 201.134 109.305 201.164 108.71C201.195 108.115 201.047 107.524 200.74 107.013C200.434 106.502 199.982 106.094 199.442 105.841C198.903 105.588 198.3 105.501 197.711 105.592C197.122 105.682 196.573 105.947 196.135 106.351C195.697 106.754 195.389 107.28 195.25 107.859C195.068 108.623 195.192 109.427 195.595 110.1C195.999 110.773 196.651 111.261 197.41 111.459Z" fill="#F0C62F"/>
<path d="M199.31 98.6702C199.932 98.8202 200.586 98.7673 201.176 98.519C201.766 98.2707 202.262 97.8401 202.59 97.2902L198.29 93.4102C197.726 93.8144 197.325 94.4066 197.16 95.0802C196.98 95.8407 197.104 96.6414 197.505 97.3119C197.907 97.9824 198.554 98.4697 199.31 98.6702Z" fill="#F0C62F"/>
<path d="M203.46 119.68C203.86 119.78 204.282 119.759 204.671 119.62C205.06 119.481 205.398 119.229 205.645 118.897C205.891 118.566 206.033 118.168 206.053 117.756C206.074 117.343 205.971 116.934 205.759 116.579C205.547 116.225 205.235 115.941 204.861 115.764C204.488 115.587 204.071 115.525 203.662 115.585C203.253 115.645 202.872 115.825 202.565 116.101C202.258 116.378 202.041 116.74 201.94 117.14C201.806 117.679 201.891 118.248 202.176 118.724C202.461 119.199 202.922 119.543 203.46 119.68Z" fill="#F0C62F"/>
<g style="mix-blend-mode:screen" opacity="0.5">
<path d="M217.24 120.15L224.24 116.89L221 113.93L212.23 106.01L203.05 97.7097L195.05 90.4497L190 85.9297L217.24 120.15Z" fill="#E17458"/>
</g>
<path d="M183.18 85.1802L186.94 86.1502L188.27 89.8002L190.35 86.5302L194.24 86.3902L191.76 83.3902L192.83 79.6602L189.22 81.0802L186 78.9102L186.23 82.7902L183.18 85.1802Z" fill="#526993"/>
<path d="M191.37 191.991C189.76 192.611 182.9 187.201 185 188.841C187.1 190.481 192 199.611 190.44 200.841C188.88 202.071 177.09 193.021 177.09 193.021C177.09 193.021 184.64 202.121 181.24 203.881C180.13 204.451 178.15 203.661 175.99 202.351C176.6 205.121 176.58 207.461 174.67 207.241C170.18 206.721 166.33 194.721 166.33 194.721C163.33 180.371 186.55 181.611 186.55 181.611C186.55 181.611 193 191.361 191.37 191.991Z" fill="#E79E80"/>
<path d="M170.33 96.8709C168.86 100.161 166.9 103.481 163.71 105.161C160.71 106.721 157.17 106.601 153.89 105.881C150.61 105.161 147.48 103.881 144.19 103.261C136.66 101.801 128.6 104.261 122.66 109.161C123.658 115.386 124.193 121.677 124.26 127.981C122.959 127.396 121.546 127.105 120.12 127.127C118.695 127.149 117.291 127.485 116.01 128.111C114.023 125.632 112.36 122.91 111.06 120.011C110.361 118.429 109.769 116.802 109.29 115.141C108.49 112.813 108.317 110.316 108.79 107.901C109.045 106.699 109.644 105.596 110.514 104.728C111.383 103.86 112.487 103.263 113.69 103.011C112.69 101.101 113.63 98.6609 114.69 96.7909C116.409 93.7907 118.858 91.2729 121.81 89.4709C127.22 86.2009 133.81 85.6409 140.01 84.6509C146.21 83.6609 152.86 81.9309 157 77.1309C158.043 78.9459 158.717 80.9498 158.981 83.0267C159.246 85.1036 159.096 87.2123 158.54 89.2309C161.543 88.6231 164.28 87.0917 166.37 84.8509C166.794 87.3351 166.865 89.8668 166.58 92.3709C166.411 93.5186 166.053 94.6304 165.52 95.6609C164.918 96.8844 163.995 97.9214 162.85 98.6609C165.457 98.7305 168.037 98.1132 170.33 96.8709Z" fill="#D64D46"/>
<path d="M166.56 92.3709C166.391 93.5186 166.033 94.6304 165.5 95.6609C163.226 96.3087 160.849 96.5057 158.5 96.2409C154.95 95.8909 151.5 94.8309 148.03 94.1109C144.56 93.3909 140.86 93.0109 137.46 94.0409C133.46 95.2309 130.33 98.1309 127.09 100.701C123.85 103.271 120.09 105.631 115.92 105.441C115.45 108.131 115.627 110.894 116.435 113.502C117.244 116.11 118.661 118.488 120.57 120.441C117.396 120.82 114.181 120.662 111.06 119.971C110.36 118.389 109.769 116.762 109.29 115.101C108.721 113.294 108.464 111.404 108.53 109.511C108.561 108.954 108.648 108.401 108.79 107.861C109.045 106.659 109.643 105.556 110.513 104.688C111.383 103.82 112.487 103.223 113.69 102.971C112.69 101.061 113.63 98.6209 114.69 96.7509C116.409 93.7507 118.858 91.2329 121.81 89.4309C127.22 86.1609 133.81 85.6009 140.01 84.6109C146.21 83.6209 152.86 81.9309 157 77.1309C158.043 78.9459 158.717 80.9498 158.981 83.0267C159.245 85.1036 159.095 87.2123 158.54 89.2309C161.543 88.6231 164.28 87.0917 166.37 84.8509C166.49 85.8509 166.63 86.9309 166.7 87.9809C166.828 89.4445 166.781 90.9184 166.56 92.3709Z" fill="#E17458"/>
<path d="M166.68 87.9809C162.555 91.0955 157.474 92.676 152.31 92.4509C153.15 91.8246 153.799 90.9759 154.182 90.0004C154.566 89.025 154.669 87.9618 154.48 86.9309C151.55 89.4309 147.59 90.4009 143.74 90.6509C139.89 90.9009 136.03 90.4909 132.18 90.6509C128.33 90.8109 124.37 91.5509 121.24 93.8009C118.11 96.0509 116.06 100.091 117.03 103.801C116.002 103.701 114.969 103.922 114.072 104.433C113.175 104.944 112.459 105.72 112.02 106.655C111.582 107.589 111.444 108.637 111.625 109.653C111.805 110.669 112.296 111.605 113.03 112.331C111.304 111.809 109.746 110.843 108.51 109.531C108.541 108.974 108.628 108.421 108.77 107.881C109.025 106.679 109.623 105.576 110.493 104.708C111.363 103.84 112.467 103.243 113.67 102.991C112.67 101.081 113.61 98.6409 114.67 96.7709C116.389 93.7707 118.838 91.2529 121.79 89.4509C127.2 86.1809 133.79 85.6209 139.99 84.6309C146.19 83.6409 152.86 81.9309 157 77.1309C158.043 78.9459 158.717 80.9498 158.981 83.0267C159.245 85.1036 159.095 87.2123 158.54 89.2309C161.543 88.6231 164.28 87.0917 166.37 84.8509C166.47 85.9309 166.61 86.9309 166.68 87.9809Z" fill="#E3905A"/>
<path d="M139.37 86.0999L138.73 86.5399L132.98 90.5399L129.55 92.9299L125.91 95.4599L121.3 98.6499L118.43 100.65L109.43 106.87L108.54 102.35L108 99.5599V99.4599L107.44 96.6899L107.06 94.9299L106.81 93.6499L106.49 92.0799L106.33 91.2799L105.53 87.2799L105.37 86.5199L104.47 81.9099L104.32 81.2099L104 79.7299L103.33 76.3299L103.24 75.8599L102.73 73.3099L102.41 71.7199L102.19 70.6099L102.13 70.3699L101.29 66.1399L100.35 61.4199L106.05 65.0299L106.42 65.2599L109.75 67.3699L113.59 69.7999L114.65 70.4699H114.73L115.2 70.7699L118.6 72.9199L119.51 73.4899L122.05 75.0999L125.66 77.3899L126.66 78.0299L130.19 80.2599L130.93 80.7299L132.57 81.7299L135 83.3399L135.66 83.7599L139.36 86.0899L139.37 86.0999Z" fill="#526993"/>
<g style="mix-blend-mode:screen" opacity="0.5">
<path d="M133 90.5099L139.38 86.0999L135.69 83.7599L125.69 77.4399L115.24 70.8199L106.08 65.0299L100.38 61.4199L133 90.5099Z" fill="#526993"/>
</g>
<path d="M93.4805 61.8302L97.3505 62.1502L99.2805 65.5102L100.78 61.9302L104.58 61.1402L101.64 58.6002L102.06 54.7402L98.7405 56.7602L95.2005 55.1702L96.0905 58.9502L93.4805 61.8302Z" fill="#E17458"/>
<path d="M121.89 82.4492L122.7 83.5592L124.07 83.5192L123.26 84.6292L123.72 85.9292L122.41 85.5092L121.32 86.3392V84.9692L120.19 84.1892L121.5 83.7592L121.89 82.4492Z" fill="#ADAD2B"/>
<path d="M104.33 74.8209L104.79 76.1109L103.48 75.6909L103.26 75.8609L102.75 73.3109L102.95 72.6309L103.76 73.7409L105.13 73.7009L104.33 74.8209Z" fill="#ADAD2B"/>
<path d="M118.21 73.5295L119.19 76.3095L116.38 75.3995L114.03 77.1995L114.04 74.2495L111.6 72.5695L114.41 71.6595L114.75 70.5195L115.22 70.8195L118.62 72.9695L118.21 73.5295Z" fill="#ADAD2B"/>
<path d="M113.55 97.7601L110.81 98.8901L110.19 101.79L108.28 99.5301L107.98 99.5601L107.97 99.4601L107.41 96.6901L107.06 94.9401L108.57 95.3001L110.76 93.3301L110.99 96.2801L113.55 97.7601Z" fill="#ADAD2B"/>
<path d="M125.91 95.41L121.3 98.6H121.28L119.89 98.74L121.43 96.22L120.24 93.52L123.12 94.22L125.32 92.25L125.54 95.2L125.91 95.41Z" fill="#ADAD2B"/>
<path d="M108.21 81.3805L110.55 81.7205L112.16 79.9805L112.56 82.3105L114.7 83.3005L112.61 84.4005L112.33 86.7505L110.64 85.1005L108.32 85.5605L109.37 83.4405L108.21 81.3805Z" fill="#ADAD2B"/>
<path d="M135 83.3395L134.73 85.5395L133.05 83.8795L130.73 84.3395L131.77 82.2295L130.97 80.7695L132.61 81.8195L135 83.3395Z" fill="#ADAD2B"/>
</svg>
